<svg xmlns="http://www.w3.org/2000/svg" viewBox="0 0 1024 768" width="1024px" height="768px" xmlns:bx="https://boxy-svg.com">
  <defs>
    <bx:export></bx:export>
    <linearGradient gradientUnits="userSpaceOnUse" x1="512.003" y1="48.36" x2="512.003" y2="835.641" id="gradient-0" gradientTransform="matrix(0.999981, 0.006091, -0.006091, 1, 5.099603, 14.881316)">
      <stop offset="0" style="stop-color: rgb(178, 105, 43);"></stop>
      <stop offset="1" style="stop-color: rgb(108, 58, 21);"></stop>
    </linearGradient>
    <linearGradient gradientUnits="userSpaceOnUse" x1="512.003" y1="66.36" x2="512.003" y2="853.641" id="gradient-1" gradientTransform="matrix(0.800089, 0, 0, 0.800089, 102.354647, -53.10743)">
      <stop offset="0" style="stop-color: rgb(141, 232, 76);"></stop>
      <stop offset="1" style="stop-color: rgb(98, 180, 40);"></stop>
    </linearGradient>
    <linearGradient gradientUnits="userSpaceOnUse" x1="512.003" y1="66.36" x2="512.003" y2="853.641" id="gradient-3" gradientTransform="matrix(0.800089, 0, 0, 0.800089, 102.354647, -53.10743)">
      <stop offset="0" style="stop-color: rgb(141, 232, 76);"></stop>
      <stop offset="1" style="stop-color: rgb(98, 180, 40);"></stop>
    </linearGradient>
    <linearGradient gradientUnits="userSpaceOnUse" x1="512.003" y1="66.36" x2="512.003" y2="853.641" id="gradient-2" gradientTransform="matrix(0.800089, 0, 0, 0.800089, 102.354647, -53.10743)">
      <stop offset="0" style="stop-color: rgb(141, 232, 76);"></stop>
      <stop offset="1" style="stop-color: rgb(98, 180, 40);"></stop>
    </linearGradient>
  </defs>
  <path d="M 8.611 23.427 C 63.488 53.697 106.76 51.172 152.38 60.296 C 175.802 64.98 204.882 74.746 228.506 92.812 C 250.524 109.649 292.512 126.498 292.512 176.107 C 292.512 213.714 191.233 244.251 196.529 222.713 C 193.434 219.609 173.566 171.652 170.191 169.071 C 158.962 160.483 151.137 157.948 133.554 154.432 C 97.164 147.154 76.782 146.641 35.146 135.004 L 35.146 177.46 L -60.854 177.46 L -60.854 -14.889 L 8.611 23.427 Z" style="fill: url(#gradient-1);"></path>
  <path d="M 730.886 177.46 C 752.475 119.708 773.495 109.65 795.513 92.812 C 819.137 74.747 848.216 64.98 871.637 60.296 C 917.256 51.172 960.525 53.697 1015.393 23.428 L 1084.86 -14.895 L 1084.86 177.46 L 988.86 177.46 L 988.86 135.113 C 947.26 146.845 926.853 147.154 890.465 154.432 C 872.882 157.948 865.057 160.483 853.828 169.07 C 850.453 171.651 809.023 226.754 805.928 229.858 C 805.205 245.532 715.443 218.771 730.886 177.46 Z" style="fill: url(#gradient-3);"></path>
  <path d="M 386.921 525.935 C 394.521 536.145 414.559 557.469 420.202 559.817 C 426.615 562.486 432.853 564.303 442.758 566.388 C 463.33 570.719 486.233 572.74 512.005 572.74 C 537.778 572.74 560.681 570.719 581.254 566.388 C 591.158 564.303 597.397 562.486 603.811 559.817 C 609.454 557.468 626.13 547.14 655.959 517.311 C 685.788 487.482 737.573 491.392 729.348 515.694 C 713.874 548.177 690.126 582.874 658.834 614.916 C 649.29 623.445 652.79 643.415 640.699 648.447 C 629.378 653.159 614.499 657.493 601.032 660.329 C 574.86 665.839 541.997 668.739 512.005 668.739 C 482.013 668.739 449.151 665.839 422.979 660.329 C 409.512 657.493 394.633 653.159 383.313 648.447 C 371.221 643.414 356.395 633.686 346.852 625.155 C 315.562 593.115 299.362 549.254 283.889 516.772 C 274.55 505.383 342.243 471.449 386.921 525.935 Z" style="fill: url(#gradient-2);"></path>
  <path d="M -12.854 66.36 C 118.365 131.966 183.972 66.36 249.579 197.573 C 315.186 328.787 249.579 460.002 380.794 591.215 C 420.158 630.581 603.852 630.581 643.219 591.215 C 774.442 460.002 708.83 328.787 774.442 197.573 C 840.045 66.36 905.657 131.966 1036.86 66.36 L 1036.86 853.641 L -12.854 853.641 L -12.854 66.36 Z" style="fill: url(#gradient-0); stroke-width: 96px; paint-order: stroke;"></path>
  <path d="M 21.615 232.385 C 45.182 231.11 71.699 233.41 92.312 238.04 C 151.003 254.895 203.564 297.561 242.834 318.553 C 256.349 326.115 270.224 332.676 284.628 338.372 C 288.307 373.586 290.987 408.8 299.007 444.014 C 263.071 433.78 227.254 419.301 196.57 402.67 C 149.008 375.903 108.375 337.853 69.908 331.39 C 56.899 327.95 44.2 327.303 26.805 328.245 C 12.885 328.998 0.322 330.818 -12.854 334.183 L -12.854 236.324 C -1.041 234.32 10.718 232.975 21.615 232.385 Z M 767.164 378.425 C 756.169 382.35 745.089 386.346 733.929 390.359 C 738.196 354.841 740.306 319.323 746.766 283.805 C 837.265 252.001 935.618 223.678 1036.86 226.63 L 1036.86 322.608 C 946.529 316.15 860.868 344.974 767.164 378.425 Z M -9.684 559.588 C 18.429 568.191 45.892 582.13 69.53 595.003 C 93.152 607.869 114.447 620.258 135.947 629.842 C 157.395 639.402 173.819 645.415 194.648 645.987 C 265.044 651.105 322.024 640.708 385.372 609.373 C 389.742 607.28 394.235 605.103 398.841 602.868 C 459.157 630.096 608.221 626.212 643.219 591.215 C 653.929 580.506 663.328 569.796 671.594 559.087 C 681.185 563.838 690.224 569.098 698.102 574.225 C 729.622 594.737 754.861 618.728 782.269 634.585 C 804.097 647.896 825.082 656.985 849.604 663.692 C 874.098 670.392 894.718 673.273 918.58 670.808 C 953.649 669.509 991.909 650.283 1036.86 630.476 L 1036.86 734.523 C 1001.44 748.971 963.879 762.173 926.552 766.476 C 893.141 768.784 855.728 764.894 824.276 756.291 C 792.851 747.695 759.977 732.949 732.879 716.905 C 697.6 695.149 670.501 670.801 645.739 654.686 C 633.496 646.718 624.997 642.221 613.433 638.721 C 601.624 635.147 594.157 633.675 580.042 635.97 C 531.024 639.911 479.71 670.528 426.914 695.919 C 351.51 731.184 270.764 746.213 188.66 741.801 C 156.211 739.043 123.121 729.23 96.863 717.525 C 70.655 705.844 46.048 691.529 23.613 679.311 C 10.55 672.196 -1.267 665.993 -12.854 660.83 L -12.854 558.65 C -11.786 558.955 -10.729 559.268 -9.684 559.588 Z M 8.819 784.579 C 71.271 781.878 126.385 795.006 172.828 811.341 C 214.989 826.17 252.594 843.024 293.779 853.641 L -12.854 853.641 L -12.854 788.178 C -5.571 786.483 1.903 785.232 8.819 784.579 Z M 468.31 845.357 C 489.216 837.378 511.141 826.625 535.094 815.769 C 559.064 804.906 586.794 793.369 613.783 787.086 C 627.445 783.905 644.225 781.559 658.791 781.438 C 673.406 781.316 691.86 783.96 707.02 788.16 C 718.508 792.376 732.765 800.062 741.626 806.768 C 750.099 813.181 759.182 821.398 766.574 828.48 C 776.784 838.261 785.336 847.291 792.059 853.641 L 443.354 853.641 C 450.827 851.71 458.88 848.956 468.31 845.357 Z" style="fill: rgba(0, 0, 0, 0.133);"></path>
</svg>