<svg viewBox="0 0 32 32" width="42px" height="42px" xmlns="http://www.w3.org/2000/svg">
  <defs>
    <radialGradient gradientUnits="userSpaceOnUse" cx="-4.753" cy="21.403" r="16" id="gradient-1" gradientTransform="matrix(-0.408479, 0.880121, -0.997616, -0.46301, 39.149204, 24.679935)">
      <stop offset="0" style="stop-color: rgb(108, 108, 108);"></stop>
      <stop offset="1" style="stop-color: rgb(69, 69, 69);"></stop>
    </radialGradient>
    <linearGradient gradientUnits="userSpaceOnUse" x1="17.635" y1="16.103" x2="17.635" y2="32" id="gradient-0" gradientTransform="matrix(-0.983225, 0, 0, -0.983225, 34.974184, 46.451673)">
      <stop offset="0" style="stop-color: rgba(0, 0, 0, 0.094);"></stop>
      <stop offset="1" style="stop-color: rgba(0, 0, 0, 0.094);"></stop>
    </linearGradient>
  </defs>
  <circle style="fill: url('#gradient-1');" cx="16" cy="16" r="16"></circle>
  <path style="fill: url('#gradient-0');" d="M 15.633 17.427 C 18.371 15.921 22.065 15.805 25.058 16.553 C 26.782 16.984 28.92 18.182 30.738 17.614 C 31.17 17.479 31.59 17.318 32 17.136 C 31.418 25.443 24.495 32 16.04 32 C 10.824 32 6.192 29.505 3.271 25.643 C 7.705 23.414 11.136 19.901 15.633 17.427 Z"></path>
  <path d="M 32 16 C 32 24.837 24.837 32 16 32 C 7.163 32 0 24.837 0 16 C 0 7.163 7.163 0 16 0 C 24.837 0 32 7.163 32 16 Z M 16 3 C 8.82 3 3 8.82 3 16 C 3 23.18 8.82 29 16 29 C 23.18 29 29 23.18 29 16 C 29 8.82 23.18 3 16 3 Z" style="fill: rgba(59, 59, 59, 0.533);"></path>
</svg>