<svg xmlns="http://www.w3.org/2000/svg" viewBox="0 0 32 32" width="42px" height="42px" xmlns:bx="https://boxy-svg.com">
  <defs>
    <bx:export>
      <bx:file format="png" width="256" height="256"></bx:file>
    </bx:export>
    <linearGradient gradientUnits="userSpaceOnUse" x1="16.038" y1="0" x2="16.038" y2="31.999" id="gradient-0">
      <stop offset="0" style="stop-color: rgb(64.314% 55.686% 32.549%)"></stop>
      <stop offset="1" style="stop-color: rgb(122, 107, 61);"></stop>
    </linearGradient>
    <linearGradient gradientUnits="userSpaceOnUse" x1="15.966" y1="1.234" x2="15.966" y2="30.782" id="gradient-1">
      <stop offset="0" style="stop-color: rgb(50.588% 43.529% 24.314%)"></stop>
      <stop offset="1" style="stop-color: rgb(98, 85, 42);"></stop>
    </linearGradient>
  </defs>
  <path style="stroke-width: 1; fill: url(#gradient-1);" d="M 20.649 1.474 C 19.786 1.236 18.545 1.188 15.584 1.273 C 12.848 1.308 10.145 2.22 7.564 3.965 C 4.97 5.717 2.992 7.912 2.004 11.058 C -0.091 16.674 1.428 22 6.759 28.062 C 8.407 30.18 10.536 30.953 13.979 30.751 C 17.292 30.654 20.367 30.012 23.55 28.753 C 27.792 27.305 29.937 23.895 30.644 17.679 C 31.571 12.059 29.109 7.448 22.847 2.861 C 21.614 1.93 21.309 1.657 20.649 1.474 Z"></path>
  <path style="paint-order: fill; stroke-width: 2px; fill: url(#gradient-0);" d="M 23.695 1.942 C 25.042 2.957 26.483 3.996 27.244 5.072 C 28.383 6.682 21.352 6.405 18.988 5.969 C 16.831 5.811 14.14 3.876 10.948 3.876 C 8.661 3.876 5.194 6.811 4.497 4.876 C 3.8 2.941 11.769 0.14 15.548 0.034 C 21.296 -0.128 21.46 0.259 23.695 1.942 Z M 31.729 16.136 C 31.903 16.775 32.358 19.087 31.462 20.167 C 30.566 21.247 25.323 21.976 23.043 21.74 C 17.174 21.487 11.09 16.338 3.862 16.744 C 2.449 17.006 0.607 19.862 0.222 18.149 C -0.163 16.436 0.226 10.204 1.312 9.44 C 2.505 8.601 8.562 7.876 10.948 7.876 C 13.012 7.876 15.456 9.447 18.492 9.939 C 22.468 10.266 28.983 7.895 30.302 9.233 C 31.621 10.571 32.374 11.725 31.524 12.301 C 30.674 12.877 29.456 12.001 28.596 12.068 C 26.857 12.204 22.684 13.344 23.567 15.477 C 24.45 17.61 27.521 16.382 28.908 16.055 C 30.295 15.728 31.476 15.206 31.729 16.136 Z M 23.886 29.959 C 20.708 31.2 17.462 31.877 14.149 31.99 C 11.508 32.08 8.023 31.472 7.55 30.372 C 7.077 29.272 11.121 28.769 10.15 26.425 C 9.179 24.081 6.665 26.421 6.117 26.638 C 5.792 26.767 5.327 27.506 4.3 26.976 C 3.273 26.446 0.691 22.883 1.257 21.711 C 1.823 20.539 3.246 20.694 4.26 20.724 C 9.975 19.836 15.706 24.989 22.737 25.728 C 25.241 25.87 29.419 23.38 29.76 24.78 C 30.101 26.18 26.433 28.965 23.886 29.959 Z"></path>
  <path d="M 20.673 1.26 C 19.744 1.004 18.417 0.952 15.576 1.034 C 13.793 1.072 11.03 1.768 8.717 2.697 C 7.57 3.158 6.64 3.632 6.002 4.115 C 5.767 4.293 5.634 4.413 5.541 4.534 C 5.838 4.514 6.211 4.389 6.757 4.172 C 7.954 3.698 9.577 2.876 10.948 2.876 C 14.432 2.876 17.159 4.906 19.061 4.972 L 19.103 4.973 L 19.169 4.986 C 20.299 5.197 22.536 5.364 24.389 5.289 C 25.05 5.262 25.595 5.211 26.009 5.126 C 25.294 4.348 24.201 3.575 23.093 2.741 C 21.95 1.878 21.505 1.49 20.673 1.26 Z M 30.822 16.622 C 30.426 16.672 29.855 16.859 29.137 17.028 C 28.495 17.18 27.304 17.594 26.126 17.686 C 25.526 17.732 24.776 17.677 24.196 17.437 C 23.607 17.193 22.946 16.591 22.643 15.86 C 22.316 15.068 22.51 14.056 22.924 13.48 C 23.314 12.937 24.011 12.445 24.655 12.127 C 25.915 11.504 27.582 11.149 28.518 11.071 C 29.168 11.07 29.857 11.285 30.322 11.409 C 30.642 11.495 30.756 11.54 30.845 11.527 C 30.838 11.513 30.83 11.496 30.821 11.476 C 30.627 11.063 30.22 10.574 29.59 9.935 C 29.21 9.55 27.832 9.811 25.559 10.193 C 23.281 10.576 20.535 11.092 18.41 10.936 C 15.184 10.371 12.742 8.876 10.948 8.876 C 8.621 8.876 2.852 9.506 1.887 10.258 C 1.546 10.334 1.39 11.724 1.211 13.537 C 1.067 14.982 1.037 16.431 1.115 17.341 C 1.763 16.833 2.754 16.013 3.68 15.761 L 3.724 15.749 L 3.806 15.746 C 11.385 15.457 17.519 20.606 23.086 20.741 C 25.246 20.979 30.012 20.349 30.692 19.528 C 31.273 18.828 31.004 17.355 30.822 16.622 Z M 27.265 26.754 C 27.826 26.286 28.24 25.868 28.528 25.462 C 28.542 25.443 28.554 25.426 28.566 25.409 C 28.238 25.474 27.836 25.59 27.353 25.738 C 25.972 26.162 24.126 26.77 22.68 26.726 C 15.367 25.862 9.717 20.702 4.414 21.712 L 4.337 21.727 L 4.23 21.724 C 3.7 21.707 3.201 21.669 2.775 21.75 C 2.361 21.827 2.309 21.832 2.157 22.146 C 2.038 22.393 2.365 23.013 3.024 24.047 C 3.686 25.085 4.407 25.906 4.759 26.087 C 5.016 26.22 4.894 26.221 5.045 26.15 C 5.158 26.097 5.4 25.901 5.748 25.709 C 5.886 25.681 6.645 25.016 7.612 24.639 C 8.107 24.446 8.863 24.309 9.457 24.476 C 10.043 24.64 10.745 25.249 11.074 26.042 C 11.415 26.866 11.278 27.832 10.946 28.388 C 10.62 28.935 10.042 29.395 9.593 29.696 C 9.278 29.907 8.991 30.077 8.767 30.224 C 9.045 30.358 9.52 30.489 10.252 30.651 C 11.448 30.915 12.854 31.037 14.115 30.991 C 17.343 30.888 20.424 30.245 23.522 29.028 C 24.718 28.569 26.13 27.702 27.265 26.754 Z M 23.695 1.942 C 25.042 2.957 26.483 3.996 27.244 5.072 C 28.383 6.682 21.352 6.405 18.988 5.969 C 16.831 5.811 14.14 3.876 10.948 3.876 C 8.661 3.876 5.194 6.811 4.497 4.876 C 3.8 2.941 11.769 0.14 15.548 0.034 C 21.296 -0.128 21.46 0.259 23.695 1.942 Z M 31.729 16.136 C 31.903 16.775 32.358 19.087 31.462 20.167 C 30.566 21.247 25.323 21.976 23.043 21.74 C 17.174 21.487 11.09 16.338 3.862 16.744 C 2.449 17.006 0.607 19.862 0.222 18.149 C -0.163 16.436 0.226 10.204 1.312 9.44 C 2.505 8.601 8.562 7.876 10.948 7.876 C 13.012 7.876 15.456 9.447 18.492 9.939 C 22.468 10.266 28.983 7.895 30.302 9.233 C 31.621 10.571 32.374 11.725 31.524 12.301 C 30.674 12.877 29.456 12.001 28.596 12.068 C 26.857 12.204 22.684 13.344 23.567 15.477 C 24.45 17.61 27.521 16.382 28.908 16.055 C 30.295 15.728 31.476 15.206 31.729 16.136 Z M 23.886 29.959 C 20.708 31.2 17.462 31.877 14.149 31.99 C 11.508 32.08 8.023 31.472 7.55 30.372 C 7.077 29.272 11.121 28.769 10.15 26.425 C 9.179 24.081 6.665 26.421 6.117 26.638 C 5.792 26.767 5.327 27.506 4.3 26.976 C 3.273 26.446 0.691 22.883 1.257 21.711 C 1.823 20.539 3.246 20.694 4.26 20.724 C 9.975 19.836 15.706 24.989 22.737 25.728 C 25.241 25.87 29.419 23.38 29.76 24.78 C 30.101 26.18 26.433 28.965 23.886 29.959 Z" style="stroke-width: 1; fill: rgb(62, 41, 0); fill-opacity: 0.12;"></path>
</svg>