<?xml version="1.0" encoding="utf-8"?>
<svg viewBox="0 0 48 48" width="64px" height="64px" xmlns="http://www.w3.org/2000/svg">
  <defs>
    <radialGradient gradientUnits="userSpaceOnUse" cx="24" cy="24" r="24" id="gradient-0">
      <stop offset="0" style="stop-color: rgb(255, 114, 114); stop-opacity: 0.7;"></stop>
      <stop offset="1" style="stop-opacity: 0.8; stop-color: rgb(255, 21, 21);"></stop>
    </radialGradient>
  </defs>
  <circle style="fill: url(#gradient-0);" cx="24" cy="24" r="24"></circle>
  <path d="M 48.047 24.005 C 48.047 26.039 47.794 28.015 47.317 29.901 C 27.146 27.04 20.948 27.04 0.777 29.901 C 0.3 28.015 0.047 26.039 0.047 24.005 C 0.047 24.005 0.047 24.005 0.047 24.005 C 0.047 21.971 0.3 19.995 0.777 18.109 C 20.948 20.97 27.146 20.97 47.317 18.109 C 47.794 19.995 48.047 21.971 48.047 24.005 Z M 46.169 33.328 C 44.476 37.34 41.724 40.795 38.263 43.344 C 27.407 41.225 20.688 41.225 9.831 43.344 C 6.37 40.795 3.618 37.34 1.925 33.328 C 20.814 31.564 27.28 31.564 46.169 33.328 Z M 1.728 15.164 C 3.318 11.153 5.957 7.674 9.308 5.063 C 20.649 7.319 27.445 7.319 38.786 5.063 C 42.137 7.674 44.776 11.153 46.366 15.164 C 27.259 16.952 20.835 16.952 1.728 15.164 Z" style="fill: rgb(255, 255, 255); fill-opacity: 0.15;"></path>
  <path d="M 48 24 C 48 37.255 37.255 48 24 48 C 10.745 48 0 37.255 0 24 C 0 10.745 10.745 0 24 0 C 37.255 0 48 10.745 48 24 Z M 24 4 C 12.954 4 4 12.954 4 24 C 4 35.046 12.954 44 24 44 C 35.046 44 44 35.046 44 24 C 44 12.954 35.046 4 24 4 Z" style="fill: rgba(198, 61, 61, 0.733);"></path>
</svg>