<svg xmlns="http://www.w3.org/2000/svg" viewBox="0 0 1024 512" width="1024" height="512" xmlns:bx="https://boxy-svg.com">
  <defs>
    <radialGradient gradientUnits="userSpaceOnUse" cx="201.347" cy="-604.041" r="851.85" id="gradient-1" gradientTransform="matrix(0, 2.373977, -2.373977, 0, -921.980443, -1728.124604)">
      <stop offset="0" style="stop-color: rgb(0% 0% 0%)"></stop>
      <stop offset="0.663" style="stop-color: rgb(171, 105, 63);"></stop>
      <stop offset="1" style="stop-color: rgb(85, 41, 19);"></stop>
    </radialGradient>
    <radialGradient gradientUnits="userSpaceOnUse" cx="496.471" cy="-1237.879" r="851.85" id="gradient-0" gradientTransform="matrix(0, 1.684661, -1.684661, 0, -1563.919468, -2059.415235)">
      <stop offset="0" style="stop-color: rgb(43.137% 71.765% 17.647%)"></stop>
      <stop offset="0.942" style="stop-color: rgb(100, 178, 68);"></stop>
      <stop offset="1" style="stop-color: rgb(12.017% 43.554% 0%)"></stop>
    </radialGradient>
    <bx:export>
      <bx:file format="png"></bx:file>
    </bx:export>
  </defs>
  <path d="M -339.85 -121.92 C 228.114 304.001 796.093 304.001 1363.85 -121.92 L 1363.85 729.925 L -339.85 729.925 L -339.85 -121.92 Z" style="fill: url(#gradient-1); stroke-width: 96px; paint-order: stroke; stroke: url(#gradient-0);"></path>
  <path d="M -303.09 87.593 C -266.71 97.053 -235.78 100.973 -202.48 93.993 C -157.49 86.713 -118.58 67.973 -76.53 45.033 C -40.953 63.463 -5.378 80.223 30.197 95.313 C 16.51 102.983 2.61 110.943 -11.74 118.923 C -62.53 147.163 -120.73 175.673 -185.31 188.444 C -231.83 195.975 -283.58 191.864 -327.26 180.503 C -331.46 179.403 -335.66 178.243 -339.85 177.013 L -339.85 76.073 C -327.87 80.453 -315.65 84.323 -303.09 87.593 Z M 980.689 106.023 C 1008.69 105.193 1032.74 97.463 1061.74 85.363 C 1090.86 73.213 1119.55 57.513 1150.55 40.823 C 1181.54 24.133 1215.16 6.313 1249.58 -6.957 C 1283.7 -20.107 1324.39 -29.567 1363.85 -30.467 L 1363.85 65.473 C 1336.14 65.023 1312.59 71.633 1284.11 82.613 C 1255.03 93.833 1226.78 108.803 1196.06 125.343 C 1165.35 141.883 1132.49 159.863 1098.73 173.953 C 1064.85 188.094 1024.72 199.188 985.739 201.887 C 925.959 204.51 866.529 195.665 813.889 180.783 C 799.929 176.843 786.059 172.443 772.319 167.703 C 837.029 152.883 901.729 132.523 966.439 106.643 C 971.139 106.523 975.889 106.323 980.689 106.023 Z M -326.01 323.599 C -295.67 333.818 -267.88 340.65 -237.45 343.858 C -206.99 347.072 -180.04 346.662 -149.11 339.837 C -126.75 336.864 -107.76 322.5 -80.46 304.546 C -53.15 286.591 -17.9 265.067 20.907 254.548 C 115.284 233.937 227.795 242.088 315.877 246.092 C 347.047 247.508 379.546 257.952 404.909 270.023 C 430.111 282.017 454.412 297.56 476.369 311.575 C 498.325 325.591 517.979 338.112 538.607 347.936 C 559.169 357.731 574.869 363.683 595.479 364.421 C 721.039 373.511 848.989 369.728 973.509 353.767 C 1001.85 350.301 1036.77 341.812 1074.45 335.972 C 1112.16 330.128 1157.63 328.058 1196.8 336.622 C 1221.21 343.676 1247.51 357.793 1267.38 372.241 C 1287 386.507 1306.02 403.226 1323.44 417.916 C 1338.22 430.383 1351.06 440.838 1363.85 449.159 L 1363.85 554.628 C 1362.06 554.18 1360.27 553.674 1358.55 553.102 C 1346.43 549.064 1332.71 542.449 1321.93 536.095 C 1300.77 523.625 1279.74 506.639 1261.55 491.305 C 1243.38 475.98 1226.96 461.545 1210.92 449.883 C 1195.13 438.402 1185.57 431.815 1173.52 429.756 C 1149.42 422.502 1122.98 425.598 1089.16 430.84 C 1055.3 436.086 1019.07 444.603 985.639 448.999 C 856.469 465.323 719.039 469.369 588.639 460.177 C 556.409 457.141 523.324 446.989 497.329 434.609 C 471.397 422.258 446.71 406.535 424.715 392.495 C 402.72 378.454 383.459 366.131 363.656 356.707 C 344.015 347.36 330.067 342.836 311.517 341.992 C 221.663 337.908 122.126 328.545 42.493 348.09 C 19.401 351.855 -0.273 366.714 -27.712 384.758 C -55.15 402.801 -90.72 424.05 -129.53 433.819 C -168.86 441.633 -210.68 443.215 -247.52 439.329 C -278.47 436.065 -310.25 428.955 -339.85 419.96 L -339.85 318.746 C -335.25 320.422 -330.64 322.042 -326.01 323.599 Z M -54.84 556.359 C -3.896 568.72 36.671 594.009 72.349 605.095 C 117.351 620.74 173.865 625.543 235.692 624.702 C 297.528 623.861 356.99 616.668 404.943 605.645 C 444.735 597.703 495.626 569.397 552.187 561.081 C 607.439 556.797 663.349 571.189 709.839 587.452 C 756.299 603.701 796.449 621.016 835.999 624.793 C 887.269 631.502 940.479 624.394 999.309 618.234 C 1058.15 612.073 1123.42 607.177 1186.62 617.989 C 1222.54 625.222 1259.39 640.478 1287.25 648.074 C 1314.39 655.767 1339.71 664.85 1363.85 672.321 L 1363.85 729.925 L 1228.38 729.925 C 1206.75 722.507 1186.44 715.197 1169.14 712.384 C 1118.91 702.188 1067.38 707.631 1009.31 713.712 C 951.239 719.792 887.419 726.827 824.779 720.135 C 772.719 713.134 722.299 693.513 678.149 678.068 C 634.029 662.638 599.299 650.581 562.789 656.493 C 524.936 658.667 479.383 686.073 426.217 699.257 C 373.488 711.116 304.046 719.781 236.998 720.693 C 169.942 721.605 97.592 714.058 41.991 696.169 C -4.609 679.829 -39.886 655.974 -74.61 650.299 C -152.05 632.593 -244.03 646.149 -325.17 664.69 C -329.45 665.657 -334.43 666.876 -339.85 668.358 L -339.85 569.609 C -255.28 551.083 -146.12 538.511 -54.84 556.359 Z" style="fill: rgba(0, 0, 0, 0.133);"></path>
</svg>