<?xml version="1.0" encoding="utf-8"?>
<svg viewBox="0 0 1440 640" xmlns="http://www.w3.org/2000/svg" width="1440px" height="640px">
  <defs>
    <linearGradient gradientUnits="userSpaceOnUse" x1="720" y1="10.543" x2="720" y2="2210.543" id="gradient-1" gradientTransform="matrix(0.595173, 0, 0, 0.595173, 291.47513, 4.268087)">
      <stop offset="0" style="stop-color: rgb(106, 72, 27);"/>
      <stop offset="1" style="stop-color: rgb(69, 35, 0);"/>
    </linearGradient>
    <radialGradient gradientUnits="userSpaceOnUse" cx="720" cy="1110.542" r="1110.543" id="gradient-0">
      <stop offset="0" style="stop-color: rgb(37.255% 71.373% 35.686%)"/>
      <stop offset="0.889" style="stop-color: rgb(30, 130, 31);"/>
      <stop offset="1" style="stop-color: rgb(95, 182, 91);"/>
    </radialGradient>
  </defs>
  <circle style="fill: url('#gradient-1');" cx="720" cy="1110.543" r="1100"/>
  <path style="fill: none; stroke: rgba(255, 255, 255, 0.067); stroke-width: 96px;" d="M -65.848 534.32 C -60.983 514.86 -58.496 493.121 -51.454 474.345 C -20.824 392.665 59.573 428.375 121.274 422.766 C 149.353 420.213 181.353 410.489 207.638 399.976 C 314.816 357.104 382.052 234.353 496.718 212.853 C 579.492 197.333 705.84 228.053 776.201 272.828 C 802.151 289.341 830.965 323.07 860.167 332.803 C 902.969 347.071 971.158 344.923 1014.902 335.202 C 1083.701 319.914 1150.772 276.659 1224.815 311.212 C 1284.836 339.222 1358.223 373.805 1415.742 407.433 C 1459.654 433.106 1527.202 473.404 1574.466 510.542"/>
  <path style="fill: none; stroke: rgba(255, 255, 255, 0.067); stroke-width: 96px; transform-origin: 674.83px 604.05px;" d="M -184.505 621.006 C -109.719 639.702 -59.951 689.726 23.008 668.986 C 66.953 657.999 96.573 626.663 133.363 603.013 C 206.289 556.132 374.079 466.246 465.048 470.794 C 595.002 477.292 616.973 624.33 748.688 632.078 C 853.599 638.249 873.268 610.257 970.232 583.323 C 1020.569 569.34 1106.587 554.859 1157.148 562.691 C 1204.792 570.072 1243.969 596.41 1283.444 618.615 C 1319.842 639.089 1354.867 683.4 1388.932 706.82 C 1423.288 730.44 1492.997 741.826 1534.166 735.945" transform="matrix(0.995845019817, -0.091063015163, 0.091063015163, 0.995845019817, 0.000007083195, -0.000003730733)"/>
  <path d="M 1075.62 154.546 L 1078.546 122.31 C 1038.803 107.887 997.942 95.794 956.129 86.194 L 941.186 104.817 L 932.117 80.979 C 873.247 68.913 812.583 61.77 750.573 59.999 L 691.16 105.755 L 660.565 61.216 C 593.438 64.958 527.991 74.999 464.807 90.759 L 469.477 105.66 L 436.92 98.126 C 347.385 123.109 262.672 159.649 184.488 206.038 L 169.43 252.26 L 119.781 247.704 C -152.688 437.597 -330.98 753.248 -330.98 1110.542 C -330.98 1690.983 139.56 2161.523 720 2161.523 C 1300.44 2161.522 1770.98 1690.983 1770.98 1110.543 C 1770.98 793.114 1630.254 508.554 1407.786 315.846 L 1405.079 363.96 L 1343.396 264.327 C 1271.108 210.985 1191.742 166.684 1106.965 133.093 L 1075.62 154.546 Z M 1830.543 1110.543 C 1830.543 1723.879 1333.336 2221.086 720 2221.085 C 106.664 2221.086 -390.544 1723.879 -390.543 1110.543 C -390.543 497.207 106.664 0 720 0 C 1333.335 0 1830.543 497.208 1830.543 1110.543 Z" style="fill: url('#gradient-0');"/>
</svg>