<svg xmlns="http://www.w3.org/2000/svg" viewBox="0 0 512 1024" width="512px" height="1024px" xmlns:bx="https://boxy-svg.com">
  <defs>
    <bx:export>
      <bx:file format="png"></bx:file>
    </bx:export>
    <linearGradient gradientUnits="userSpaceOnUse" x1="96.737" y1="148.881" x2="96.737" y2="1108.524" id="gradient-0" gradientTransform="matrix(0.999818, 0.019076, 0, 0.911921, -96.719426, 11.267908)">
      <stop offset="0" style="stop-color: rgb(173, 136, 82);"></stop>
      <stop offset="1" style="stop-color: rgb(38.804% 27.179% 7.5068%)"></stop>
    </linearGradient>
  </defs>
  <path d="M -10.109 222.601 C -41.535 223.043 -49.307 157.119 -19.512 121.71 C -0.215 98.779 44.937 89.401 75.487 116.585 C 112.614 149.621 85.282 194.38 35.468 192.213 C -3.804 190.505 -10.911 236.528 -10.109 222.601 Z M 21.294 487.117 C -35.934 364.153 91.769 437.889 139.081 437.889 C 186.393 437.889 297.407 416.401 372.665 429.331 C 408.774 435.924 443.821 445.958 470.266 455.432 C 496.711 464.906 554.92 594.442 395.782 544.034 C 382.096 542.066 372.829 526.839 355.729 523.825 C 290.717 511.615 229.501 513.93 162.093 531.091 C 145.301 534.995 125.469 537.258 110.135 536.164 C 94.033 535.016 73.813 529.258 60.152 521.716 C 46.491 514.174 28.105 501.752 21.294 487.117 Z" style="fill: rgb(126, 197, 81);"></path>
  <path style="stroke-width: 96px; paint-order: stroke; fill: url(#gradient-0);" d="M -7.643 1101.585 C -12.258 779.852 78.706 603.442 348.355 608.717 C 381.452 609.364 432.768 592.521 461.979 540.357 C 491.19 488.193 439.524 490.374 364.197 476.578 C 294.11 463.742 222.859 466.646 150.587 484.49 C 42.703 511.127 7.761 405.64 45.76 168.031 C 50.786 136.606 19.799 143.858 -47.2 189.787 C -280.726 349.873 -336.106 627.944 -213.341 1024 C -190.87 1096.495 -122.304 1122.357 -7.643 1101.585 Z"></path>
  <path d="M -74.096 819.065 C -37.866 807.91 -0.746 797.863 37.12 789.686 C 23.946 821.085 13.914 856.392 6.714 895.466 C -10.716 900.239 -28.216 905.387 -45.846 910.813 C -106.38 929.457 -167.08 951.624 -228.23 973.376 C -237.15 941.362 -244.83 910.16 -251.29 879.77 C -193.23 859.012 -134.33 837.615 -74.096 819.065 Z M -232.59 576.787 C -182.74 555.42 -129.43 534.909 -75.666 522.149 C -21.856 509.375 38.672 504.133 97.853 511.236 C 131.591 516.699 165.095 530.786 191.293 544.464 C 217.467 558.129 239.379 571.518 260.734 579.133 C 285.499 588.436 310.339 598.407 335.185 608.592 C 269.719 608.764 215.175 620.09 170.28 642.013 C 162.179 637.704 154.355 633.475 146.864 629.564 C 122.969 617.089 105.503 607.985 85.437 606.43 C 37.084 599.507 -6.046 604.29 -53.496 615.554 C -101.01 626.831 -146.59 644.368 -194.77 665.022 C -221.34 676.41 -248.3 688.569 -275.67 700.63 C -277.5 663.976 -277.09 628.818 -274.41 595.156 C -260.62 588.991 -246.69 582.832 -232.59 576.787 Z M -20.516 246.658 C -2.246 245.492 16.46 245.241 35.433 245.812 C 31.814 281.493 30.367 313.239 31.092 341.051 C 16.013 340.8 1.094 341.231 -13.676 342.414 C -52.356 344.018 -87.916 359.596 -130.48 377.892 C -162.19 391.517 -197.09 406.741 -233.88 417.48 C -213.65 367.811 -186.27 322.88 -151.74 282.685 C -112.03 266.361 -67.076 250.999 -20.516 246.658 Z" style="fill: rgba(0, 0, 0, 0.133);"></path>
</svg>