<svg xmlns="http://www.w3.org/2000/svg" viewBox="0 0 512 512" width="512px" height="512px" xmlns:bx="https://boxy-svg.com">
  <defs>
    <bx:export>
      <bx:file format="png"></bx:file>
    </bx:export>
    <linearGradient gradientUnits="userSpaceOnUse" x1="451.382" y1="82.605" x2="451.382" y2="435.469" id="gradient-0" gradientTransform="matrix(1, 0, 0, 1, -43.117886, 6.633521)">
      <stop offset="0" style="stop-color: rgb(61.176% 47.451% 27.059%)"></stop>
      <stop offset="1" style="stop-color: rgb(38.804% 27.179% 7.5068%)"></stop>
    </linearGradient>
  </defs>
  <path d="M 36.639 231.993 C 39.391 221.898 45.835 208.555 52.011 199.947 C 57.919 191.713 67.707 182.011 76 175.249 C 119.592 141.302 167.697 112.097 215.35 91.31 C 263.109 70.477 316.038 55.752 367.607 48.297 C 409.643 42.484 449.543 40.115 482.725 41.814 C 516.798 43.558 550.773 50.347 576.193 60.892 C 589.391 66.368 604.081 74.644 614.81 82.743 C 625.744 90.998 637.742 103.135 645.661 114.007 C 653.567 124.863 661.441 139.98 666 152.955 C 668.418 159.835 670.497 167.826 672.13 175.98 C 708.639 195.587 737.546 214.329 756.028 232.924 L 591.58 232.924 L 580.65 218.872 L 579.652 205.242 C 579.008 196.435 577.827 191.605 575.43 184.783 C 573.125 178.226 571.762 175.607 568.061 170.525 C 564.37 165.458 562.387 163.452 556.968 159.362 C 551.343 155.115 547.307 152.842 539.408 149.565 C 522.631 142.605 504.92 139.076 477.817 137.688 C 449.823 136.255 419.058 137.94 380.939 143.367 C 335.753 149.48 295.528 161.071 253.734 179.302 C 220.437 193.827 189.699 211.086 159.03 232.924 C 156.862 306.638 32.747 356.9 36.393 232.924 C 36.474 232.61 36.556 232.299 36.639 231.993 Z" style="fill: rgb(159, 230, 87);"></path>
  <path style="stroke-width: 96px; paint-order: stroke; fill: url(#gradient-0);" d="M 635.192 210.813 L 627.452 200.862 C 618.976 108.361 534.583 73.351 374.273 95.832 C 277.518 109.4 187.965 148.464 105.615 213.024 C 57.951 250.391 80.063 306.776 171.951 382.179 C 255.751 450.945 471.176 530.682 599.122 471.049 C 677.236 434.641 645.807 349.658 718.111 312.527 C 757.278 292.413 729.638 258.509 635.192 210.813 Z"></path>
  <path d="M 646.177 401.563 C 598.163 411.605 549.025 425.81 490.35 425.81 C 469.644 425.81 445.722 423.033 424.781 422.676 C 414.333 422.498 406.677 422.751 398.545 423.953 C 390.716 425.11 388.621 425.064 385.087 427.688 C 368.595 435.814 352.245 449.454 334.751 464.788 C 299.126 453.257 265.465 438.953 236.36 423.657 C 266.053 400.95 298.775 366.936 339.117 343.41 C 352.685 336.705 370.689 331.028 384.506 328.985 C 398.022 326.987 413.563 326.471 426.417 326.69 C 452.08 327.128 475.179 329.81 490.35 329.81 C 535.719 329.81 574.969 318.515 626.399 307.623 C 656.717 302.943 686.686 284.476 722.978 267.793 C 740.93 286.763 739.304 301.693 718.102 312.581 C 679.549 332.379 670.488 365.783 658.588 398.173 C 654.525 399.38 650.39 400.515 646.177 401.563 Z M 581.934 136.573 C 547.629 148.414 517.072 168.796 481.704 191.058 C 446.333 213.321 405.528 237.553 360.941 252.259 C 317.178 263.686 280.512 260.012 254.7 266.702 C 207.984 276.434 160.688 285.822 120.567 302.791 C 113.917 304.591 110.656 307.714 104.466 314.747 C 73.051 272.192 73.431 238.302 105.606 213.078 C 111.109 208.764 116.644 204.563 122.212 200.477 C 160.421 188.49 200.304 179.973 235.12 172.72 C 276.624 165.386 308.762 170.236 332.307 160.629 C 366.064 150.853 395.616 131.811 430.565 109.812 C 441.167 103.139 452.208 96.202 463.671 89.312 C 525.927 89.893 570.509 103.858 597.42 131.206 C 592.218 132.839 587.058 134.624 581.934 136.573 Z M 922.705 232.73 C 922.705 232.73 922.705 232.73 922.705 232.73 C 922.705 232.73 922.705 232.73 922.705 232.73 Z" style="fill: rgba(0, 0, 0, 0.133);"></path>
</svg>