<svg viewBox="0 0 32 32" width="64px" height="64px" xmlns="http://www.w3.org/2000/svg" xmlns:bx="https://boxy-svg.com">
  <defs>
    <radialGradient gradientUnits="userSpaceOnUse" cx="-4.753" cy="21.403" r="16" id="gradient-1" gradientTransform="matrix(-0.36528, 0.787043, -0.892112, -0.414044, 36.701035, 23.761979)">
      <stop offset="0" style="stop-color: rgb(138, 138, 138);"></stop>
      <stop offset="1" style="stop-color: rgb(95, 95, 95);"></stop>
    </radialGradient>
    <linearGradient gradientUnits="userSpaceOnUse" x1="17.635" y1="16.103" x2="17.635" y2="32" id="gradient-0" gradientTransform="matrix(-0.879243, 0, 0, -0.879243, 32.967547, 43.231222)">
      <stop offset="0" style="stop-color: rgba(198, 198, 198, 0.137);"></stop>
      <stop offset="1" style="stop-color: rgba(139, 139, 139, 0.15);"></stop>
    </linearGradient>
    <filter id="drop-shadow-filter-0" bx:preset="drop-shadow 1 0 0 1 0.5 #000" color-interpolation-filters="sRGB" x="-50%" y="-50%" width="200%" height="200%">
      <feGaussianBlur in="SourceAlpha" stdDeviation="1"></feGaussianBlur>
      <feOffset dx="0" dy="0"></feOffset>
      <feComponentTransfer result="offsetblur">
        <feFuncA id="spread-ctrl" type="linear" slope="1"></feFuncA>
      </feComponentTransfer>
      <feFlood flood-color="#000"></feFlood>
      <feComposite in2="offsetblur" operator="in"></feComposite>
      <feMerge>
        <feMergeNode></feMergeNode>
        <feMergeNode in="SourceGraphic"></feMergeNode>
      </feMerge>
    </filter>
  </defs>
  <circle style="fill: url(#gradient-1); filter: url(#drop-shadow-filter-0);" cx="16" cy="16" r="14.308"></circle>
  <path style="fill: url(#gradient-0);" d="M 15.672 17.276 C 18.12 15.929 21.424 15.826 24.1 16.495 C 25.642 16.88 27.554 17.951 29.179 17.443 C 29.566 17.323 29.941 17.179 30.308 17.016 C 29.787 24.444 23.597 30.308 16.036 30.308 C 11.371 30.308 7.229 28.077 4.617 24.623 C 8.582 22.63 11.65 19.488 15.672 17.276 Z"></path>
  <path d="M 30.308 16 C 30.308 23.902 23.902 30.308 16 30.308 C 8.098 30.308 1.692 23.902 1.692 16 C 1.692 8.098 8.098 1.692 16 1.692 C 23.902 1.692 30.308 8.098 30.308 16 Z M 16 4.375 C 9.579 4.375 4.375 9.579 4.375 16 C 4.375 22.421 9.579 27.625 16 27.625 C 22.421 27.625 27.625 22.421 27.625 16 C 27.625 9.579 22.421 4.375 16 4.375 Z" style="fill: rgba(82, 82, 82, 0.533);"></path>
  <path stroke="rgb(255,0,0)" stroke-width="0" opacity="0.9725490196078431" d="M 11.291 6.593 C 11.65 6.564 12.374 6.625 12.681 6.737 C 12.887 6.813 13.003 6.903 13.088 7.049 C 13.18 7.207 13.233 7.456 13.185 7.672 C 13.128 7.925 12.853 8.301 12.681 8.462 C 12.555 8.581 12.482 8.612 12.298 8.655 C 12.015 8.72 11.41 8.751 11.051 8.702 C 10.746 8.661 10.408 8.62 10.261 8.439 C 10.114 8.259 10.105 7.89 10.164 7.624 C 10.228 7.338 10.458 6.954 10.668 6.785 C 10.846 6.641 11.026 6.615 11.291 6.593 Z M 9.131 9.001 C 9.337 8.988 9.702 9.054 9.827 9.169 C 9.925 9.259 9.932 9.395 9.923 9.552 C 9.91 9.764 9.843 10.187 9.659 10.343 C 9.471 10.502 8.989 10.529 8.796 10.487 C 8.664 10.457 8.593 10.388 8.532 10.271 C 8.451 10.113 8.401 9.741 8.436 9.552 C 8.465 9.4 8.545 9.283 8.652 9.192 C 8.769 9.094 8.952 9.011 9.131 9.001 Z" style="fill-opacity: 1; fill-rule: nonzero; stroke: none; stroke-dasharray: none; stroke-dashoffset: 0px; stroke-linecap: butt; stroke-linejoin: miter; stroke-miterlimit: 4; stroke-opacity: 1; stroke-width: 1px; paint-order: normal; vector-effect: none; opacity: 1; mix-blend-mode: normal; isolation: auto; fill: rgba(174, 174, 174, 0.34);"></path>
</svg>