<?xml version="1.0" encoding="utf-8"?>
<svg xmlns="http://www.w3.org/2000/svg" viewBox="0 0 512 1024" xmlns:bx="https://boxy-svg.com" width="512px" height="1024px">
    <defs>
        <linearGradient gradientUnits="userSpaceOnUse" x1="604.403" y1="51.332" x2="604.403" y2="1469.474" id="gradient-0" gradientTransform="matrix(0.986427, -0.1642, 0.114799, 0.745578, -252.894369, 179.771027)">
            <stop offset="0" style="stop-color: rgb(167, 113, 52);"/>
            <stop offset="1" style="stop-color: rgb(100, 70, 24);"/>
        </linearGradient>
        <linearGradient gradientUnits="userSpaceOnUse" x1="456.299" y1="-21.333" x2="456.299" y2="249.643" id="gradient-1" gradientTransform="matrix(0.291301, 1.44713, -1.535325, 0.311495, 365.510111, -562.468482)">
            <stop offset="0" style="stop-color: rgb(92, 179, 53);"/>
            <stop offset="0.819" style="stop-color: rgb(116, 213, 87);"/>
            <stop offset="1" style="stop-color: rgb(144, 185, 33);"/>
        </linearGradient>
    </defs>
    <path d="M 194.283 175.643 C 190.27 210.661 59.179 198.695 152.173 96.077 C 155.427 92.486 164.74 91.206 169.644 90.426 C 174.547 89.646 183.214 89.649 188.005 90.377 C 192.487 91.058 199.741 93.209 203.7 94.93 C 210.558 97.909 219.843 104.623 225.329 109.381 C 248.528 131.575 267.14 142.376 289.828 149.302 C 300.842 152.664 308.502 153.879 319.637 154.051 C 330.834 154.224 339.037 153.202 350.854 150.114 C 375.326 143.719 396.976 132.323 424.706 110.725 C 453.249 88.494 481.117 60.21 511.924 21.397 L 545.84 -21.333 L 583.878 17.889 C 661.77 98.207 731.766 175.514 793.689 249.643 L 668.375 249.643 C 632.166 208.697 576.358 140.223 551.536 122.689 C 526.714 105.155 515.941 131.675 483.695 186.464 C 451.449 241.253 410.116 233.851 375.125 242.995 C 362.046 246.413 347.221 248.742 333.22 249.643 L 308.843 249.643 C 293.226 248.579 276.238 245.527 261.799 241.119 C 240.838 234.72 215.292 189.791 194.283 175.643 Z" style="fill: url(&quot;#gradient-1&quot;);"/>
    <path style="stroke-width: 96px; fill: url(&quot;#gradient-0&quot;); paint-order: stroke;" d="M 549.446 51.332 C 419.763 213.883 300.836 244.965 192.673 144.56 C 170.119 123.632 155.176 150.524 147.851 225.242 C 113.294 577.41 106.126 931.202 126.335 1286.61 C 140.655 1538.52 392.851 1530.17 882.916 1261.5 C 1249.18 1060.71 1138.03 657.322 549.446 51.332 Z"/>
    <path style="fill: none; stroke-width: 96px;" d="M -322.81 719.623 C -253.06 719.623 -188.94 769.942 -123.34 790.024 C -26.828 819.567 73.316 839.799 170.003 869.225 C 202.85 879.222 233.254 897.132 266.805 904.426 C 323.72 916.799 426.196 924.544 480.942 901.493 C 547.36 873.527 587.595 808.966 651.079 775.357 C 698.126 750.449 809.069 749.517 859.35 760.69 C 928.277 776.007 993.391 821.579 1055.89 851.625 C 1139.58 891.863 1216.97 931.026 1296.42 977.761 C 1332.79 999.154 1375.84 1008.73 1413.76 1024.69 C 1490.66 1057.07 1563.48 1101.36 1636.7 1142.03 M -187.87 300.148 C -173.96 293.191 -163.02 307.05 -152.67 314.815 C -119.29 339.848 -80.603 364.703 -44.135 385.217 C 71.591 450.312 217.109 497.445 348.94 517.219 C 387.522 523.006 438.492 533.923 478.009 526.019 C 567.561 508.109 643.154 443.775 736.147 432.151 C 810.641 422.839 884.097 420.417 959.085 420.417 C 987.366 420.417 1028.26 414.137 1055.89 420.417 C 1131.47 437.595 1202.02 480.861 1275.89 505.486"/>
    <path d="M 183.975 823.174 C 222.015 835.452 250.525 852.87 276.995 857.391 C 303.365 863.218 338.475 867.557 375.415 868.118 C 412.305 868.679 441.925 866.881 462.315 857.124 C 489.105 847.131 508.955 828.333 534.865 804.847 C 560.785 781.357 591.605 753.389 628.615 732.804 C 659.495 717.876 709.045 708.502 751.655 706.419 C 794.245 704.338 840.935 707.592 869.755 713.702 C 946.015 732.483 1015.33 778.665 1073.88 806.888 C 1085.21 847.695 1091.67 886.432 1093.27 923.102 C 1074.21 913.669 1054.87 904.263 1035.09 894.755 C 969.225 862.741 909.305 818.967 848.935 807.416 C 827.475 802.353 793.555 800.486 756.345 802.305 C 719.145 804.122 689.705 807.668 673.535 817.648 C 647.065 830.672 626.025 851.789 599.345 875.974 C 572.665 900.162 539.185 927.627 499.565 945.6 C 465.205 958.894 416.215 964.749 373.955 964.107 C 331.735 963.465 287.155 957.745 256.605 951.199 C 215.965 941.132 183.675 922.73 156.025 915.014 C 142.505 910.885 128.875 906.932 115.155 903.101 C 115.105 869.998 115.295 836.91 115.725 803.836 C 138.485 809.916 161.265 816.288 183.975 823.174 Z M 356.055 469.615 C 396.105 475.675 438.805 486.79 468.595 478.82 C 507.375 471.915 543.085 453.195 585.225 433.225 C 627.355 413.245 676.815 392.135 730.185 384.395 C 764.775 380.115 799.305 377.235 833.755 375.355 C 858.285 407.245 881.075 438.395 902.125 468.815 C 848.285 469.895 795.695 472.875 742.095 479.649 C 702.485 483.528 667.645 500.394 626.345 519.97 C 585.045 539.546 538.185 561.95 487.415 572.956 C 438.165 580.794 378.935 570.077 341.815 564.557 C 272.245 553.953 197.915 535.651 125.815 511.296 C 127.645 478.459 129.725 445.635 132.035 412.825 C 205.295 439.385 282.225 458.735 356.055 469.615 Z" style="fill: rgba(255, 255, 255, 0.067);"/>
</svg>