<?xml version="1.0" encoding="utf-8"?>
<svg xmlns="http://www.w3.org/2000/svg" viewBox="0 0 1024 256" xmlns:bx="https://boxy-svg.com" width="1024px" height="256px"><defs><linearGradient gradientUnits="userSpaceOnUse" x1="512.883" y1="52.897" x2="512.883" y2="324.62" id="gradient-0"><stop offset="0" style="stop-color: rgb(63.137% 63.137% 63.137%)"/><stop offset="1" style="stop-color: rgb(36.713% 36.713% 36.713%)"/></linearGradient><bx:export><bx:file format="svg"/></bx:export></defs><path d="M 45.974 35.137 L 80.66 58.601 L 137.134 36.206 L 208.135 65.441 L 299.096 41.667 L 347.629 66.45 L 439.168 46.686 L 476.789 72.08 L 525.17 47.416 L 570.732 62.327 L 590.728 20.112 L 655.672 53.883 L 709.287 39.72 L 762.056 64.553 L 832.856 49.977 L 870.921 72.816 L 950.03 36.766 L 993.102 56.149 L 1066.908 37.013 L 1101.611 349.337 L -74.292 318.336 L -60.818 77.042 Z M -23.61 271.656 L 1047.823 299.903 L 1025.32 97.383 L 988.802 106.851 L 950.154 89.458 L 867.863 126.958 L 824.206 100.765 L 756.08 114.791 L 704.655 90.59 L 649.99 105.031 L 612.782 85.682 L 596.004 121.103 L 529.199 99.24 L 473.385 127.694 L 429.284 97.926 L 341.037 116.98 L 293.548 92.729 L 204.721 115.945 L 136.796 87.976 L 74.774 112.571 L 39.998 89.045 L -14.61 110.474 Z" style="filter: none; fill: rgb(119, 119, 119);"/><polygon style="paint-order: stroke; stroke-width: 48px; fill: url(&quot;#gradient-0&quot;); filter: none;" points="-37.714 93.758 42.986 62.091 77.717 85.586 136.965 62.091 206.428 90.693 296.322 67.198 344.333 91.715 434.226 72.306 475.087 99.887 527.184 73.328 583.368 91.715 601.755 52.897 652.831 79.457 706.971 65.155 759.068 89.672 828.531 75.371 869.392 99.887 950.092 63.112 990.952 81.5 1046.114 67.198 1074.717 324.62 -48.951 294.996"/></svg>