<svg viewBox="0 0 40 40" width="54px" height="54px" xmlns="http://www.w3.org/2000/svg">
  <defs>
    <radialGradient gradientUnits="userSpaceOnUse" cx="-4.753" cy="21.403" r="16" id="gradient-1" gradientTransform="matrix(-0.448653, 0.966681, -1.095732, -0.508547, 45.42594, 29.533611)">
      <stop offset="0" style="stop-color: rgb(222, 190, 76);"></stop>
      <stop offset="1" style="stop-color: rgb(166, 139, 67);"></stop>
    </radialGradient>
    <linearGradient gradientUnits="userSpaceOnUse" x1="17.635" y1="16.103" x2="17.635" y2="32" id="gradient-0" gradientTransform="matrix(-1.079926, 0, 0, -1.079926, 40.840302, 53.446608)">
      <stop offset="0" style="stop-color: rgba(0, 0, 0, 0.094);"></stop>
      <stop offset="1" style="stop-color: rgba(0, 0, 0, 0.094);"></stop>
    </linearGradient>
  </defs>
  <circle style="fill: url(#gradient-1);" cx="20" cy="20" r="17.574"></circle>
  <path style="fill: url(#gradient-0);" d="M 19.597 21.567 C 22.604 19.913 26.661 19.786 29.949 20.607 C 31.842 21.081 34.191 22.397 36.187 21.773 C 36.662 21.624 37.123 21.448 37.574 21.248 C 36.934 30.372 29.33 37.574 20.044 37.574 C 14.315 37.574 9.227 34.833 6.019 30.591 C 10.889 28.143 14.658 24.285 19.597 21.567 Z"></path>
  <path d="M 37.574 20 C 37.574 29.706 29.706 37.574 20 37.574 C 10.294 37.574 2.426 29.706 2.426 20 C 2.426 10.294 10.294 2.426 20 2.426 C 29.706 2.426 37.574 10.294 37.574 20 Z M 20 5.721 C 12.114 5.721 5.721 12.114 5.721 20 C 5.721 27.886 12.114 34.279 20 34.279 C 27.886 34.279 34.279 27.886 34.279 20 C 34.279 12.114 27.886 5.721 20 5.721 Z" style="fill: rgba(34, 34, 34, 0.133);"></path>
  <path stroke="rgb(255,0,0)" stroke-width="0" opacity="0.9725490196078431" d="M 15.25 8.953 C 15.805 8.907 16.926 9.001 17.402 9.175 C 17.721 9.292 17.9 9.431 18.032 9.657 C 18.175 9.902 18.256 10.288 18.181 10.622 C 18.093 11.014 17.668 11.595 17.402 11.845 C 17.207 12.029 17.094 12.077 16.808 12.143 C 16.371 12.244 15.434 12.292 14.879 12.216 C 14.407 12.153 13.884 12.089 13.655 11.809 C 13.428 11.531 13.415 10.96 13.506 10.547 C 13.604 10.106 13.961 9.51 14.285 9.249 C 14.561 9.026 14.84 8.986 15.25 8.953 Z M 11.907 12.679 C 12.226 12.659 12.79 12.76 12.984 12.939 C 13.136 13.079 13.146 13.289 13.132 13.531 C 13.113 13.859 13.009 14.514 12.724 14.756 C 12.433 15.003 11.687 15.044 11.388 14.979 C 11.183 14.933 11.074 14.825 10.98 14.644 C 10.854 14.4 10.776 13.825 10.832 13.531 C 10.876 13.296 10.999 13.116 11.165 12.975 C 11.347 12.823 11.629 12.695 11.907 12.679 Z" style="fill-opacity: 1; fill-rule: nonzero; stroke: none; stroke-dasharray: none; stroke-dashoffset: 0px; stroke-linecap: butt; stroke-linejoin: miter; stroke-miterlimit: 4; stroke-opacity: 1; stroke-width: 1px; paint-order: normal; vector-effect: none; opacity: 1; mix-blend-mode: normal; isolation: auto; fill: rgba(255, 255, 255, 0.094);"></path>
  <path style="stroke-linecap: round; fill: rgb(251, 187, 82); stroke-width: 2px; transform-box: fill-box; transform-origin: 50% 50%; stroke: rgb(186, 157, 71);" d="M 5.973 7.364 L 5.973 10.096" transform="matrix(-0.637295, 0.77062, -0.77062, -0.637295, 0.000002, -0.000002)"></path>
  <path style="stroke-linecap: round; fill: rgb(251, 187, 82); stroke-width: 2px; transform-origin: 11.866px 4.178px; stroke: rgb(186, 157, 71);" d="M 11.866 2.812 L 11.866 5.544" transform="matrix(-0.866025, 0.5, -0.5, -0.866025, 0.000004, 0)"></path>
  <path style="stroke-linecap: round; fill: rgb(251, 187, 82); stroke-width: 2px; transform-box: fill-box; transform-origin: 0% 90.0183%; stroke: rgb(186, 157, 71);" d="M 20.863 -0.89 L 20.863 1.842" transform="matrix(-0.989857, -0.142067, 0.142067, -0.989857, -0.000002, -0.000001)"></path>
  <path style="stroke-linecap: round; fill: rgb(251, 187, 82); stroke-width: 2px; transform-origin: 28.782px 5.136px; stroke: rgb(186, 157, 71);" d="M 28.782 3.77 L 28.782 6.502" transform="matrix(-0.848363, -0.529414, 0.529414, -0.848363, 0.000001, 0)"></path>
  <path style="stroke-linecap: round; fill: rgb(251, 187, 82); stroke-width: 2px; transform-origin: 34.733px 9.644px; stroke: rgb(186, 157, 71);" d="M 34.733 8.278 L 34.733 11.01" transform="matrix(-0.51454, -0.857466, 0.857466, -0.51454, 0.000004, 0)"></path>
  <path style="stroke-linecap: round; fill: rgb(251, 187, 82); stroke-width: 2px; transform-origin: 37.214px 15.396px; stroke: rgb(186, 157, 71);" d="M 37.214 14.03 L 37.214 16.762" transform="matrix(-0.285361, -0.95842, 0.95842, -0.285361, -0.000001, 0)"></path>
  <path style="stroke-linecap: round; fill: rgb(251, 187, 82); stroke-width: 2px; stroke: rgb(186, 157, 71); transform-origin: 37.077px 23.609px;" d="M 37.077 22.243 L 37.077 24.975" transform="matrix(0.258819, -0.965926, 0.965926, 0.258819, -0.000002, -0.000001)"></path>
  <path style="stroke-linecap: round; fill: rgb(251, 187, 82); stroke-width: 2px; transform-origin: 34.745px 30.382px; stroke: rgb(186, 157, 71);" d="M 34.745 29.016 L 34.745 31.748" transform="matrix(0.5, -0.866025, 0.866025, 0.5, -0.000001, -0.000002)"></path>
  <path style="stroke-linecap: round; fill: rgb(251, 187, 82); stroke-width: 2px; transform-origin: 28.778px 35.719px; stroke: rgb(186, 157, 71);" d="M 28.778 34.353 L 28.778 37.085" transform="matrix(0.850045, -0.52671, 0.52671, 0.850045, 0, 0)"></path>
  <path style="stroke-linecap: round; fill: rgb(251, 187, 82); stroke-width: 2px; transform-box: fill-box; transform-origin: 0% 64.1754%; stroke: rgb(186, 157, 71);" d="M 19.123 36.004 L 19.123 38.736" transform="matrix(0.996398, 0.084799, -0.084799, 0.996398, 0, -0.000004)"></path>
  <path style="stroke-linecap: round; fill: rgb(251, 187, 82); stroke-width: 2px; transform-origin: 10.155px 35.683px; stroke: rgb(186, 157, 71);" d="M 10.155 34.317 L 10.155 37.049" transform="matrix(0.876235, 0.481884, -0.481884, 0.876235, 0.000001, -0.000001)"></path>
  <path style="stroke-linecap: round; fill: rgb(251, 187, 82); stroke-width: 2px; transform-origin: 4.882px 30.456px; stroke: rgb(186, 157, 71);" d="M 4.882 29.09 L 4.882 31.822" transform="matrix(0.55425, 0.83235, -0.83235, 0.55425, 0.000001, 0)"></path>
  <path style="stroke-linecap: round; fill: rgb(251, 187, 82); stroke-width: 2px; stroke: rgb(186, 157, 71); transform-box: fill-box; transform-origin: 0% 52.0149%;" d="M 2.732 21.646 L 2.732 24.378" transform="matrix(0.300993, 0.953626, -0.953626, 0.300993, 0, -0.000002)"></path>
  <path style="stroke-linecap: round; fill: rgb(251, 187, 82); stroke-width: 2px; stroke: rgb(186, 157, 71); transform-origin: 2.89px 14.563px;" d="M 2.89 13.197 L 2.89 15.929" transform="matrix(-0.374657, 0.927164, -0.927164, -0.374657, 0, 0)"></path>
</svg>