<svg viewBox="0 0 80 32" width="105px" height="42px" xmlns="http://www.w3.org/2000/svg">
  <defs>
    <radialGradient gradientUnits="userSpaceOnUse" cx="40" cy="16" r="40" id="gradient-2" gradientTransform="matrix(0.688133, 0, 0, 0.399549, 12.474691, 9.607221)">
      <stop offset="0" style="stop-color: rgb(194, 161, 67);"></stop>
      <stop offset="1" style="stop-color: rgb(153, 129, 61);"></stop>
    </radialGradient>
  </defs>
  <path style="stroke-width: 0.8px; fill: url('#gradient-2');" d="M 0 0 L 0 32 C 24 18 56 18 80 32 L 80 0 C 56 14 24 14 0 0 Z"></path>
  <path style="stroke-linecap: round; fill: rgb(251, 187, 82); stroke-width: 2px; stroke: rgb(186, 157, 71); transform-origin: 36.341px 22.041px;" d="M 36.341 20.675 L 36.341 23.407" transform="matrix(0.99338, 0.114875, -0.114875, 0.99338, 0, 0)"></path>
  <path style="stroke-linecap: round; fill: rgb(251, 187, 82); stroke-width: 2px; stroke: rgb(186, 157, 71); transform-origin: 24.918px 23.267px;" d="M 24.918 21.901 L 24.918 24.633" transform="matrix(0.952554, -0.304368, 0.304368, 0.952554, 0, 0.000001)"></path>
  <path style="stroke-linecap: round; fill: rgb(251, 187, 82); stroke-width: 2px; stroke: rgb(186, 157, 71); transform-origin: 15.027px 25.721px;" d="M 15.027 24.355 L 15.027 27.087" transform="matrix(0.865321, -0.501219, 0.501219, 0.865321, 0, 0)"></path>
  <path style="stroke-linecap: round; fill: rgb(251, 187, 82); stroke-width: 2px; stroke: rgb(186, 157, 71); transform-box: fill-box; transform-origin: 0% 72.9479%;" d="M 46.162 20.977 L 46.162 23.709" transform="matrix(0.957187, 0.28947, -0.28947, 0.957187, -0.000001, -0.000002)"></path>
  <path style="stroke-linecap: round; fill: rgb(251, 187, 82); stroke-width: 2px; stroke: rgb(186, 157, 71); transform-origin: 58.117px 24.11px;" d="M 58.117 22.744 L 58.117 25.476" transform="matrix(0.902843, 0.429971, -0.429971, 0.902843, -0.000001, -0.000001)"></path>
  <path style="stroke-linecap: round; fill: rgb(251, 187, 82); stroke-width: 2px; stroke: rgb(186, 157, 71); transform-origin: 68.085px 27.024px;" d="M 68.085 25.658 L 68.085 28.39" transform="matrix(0.752581, 0.6585, -0.6585, 0.752581, 0.000001, 0.000001)"></path>
  <path style="stroke-linecap: round; fill: rgb(251, 187, 82); stroke-width: 2px; stroke: rgb(186, 157, 71); transform-origin: 43.779px 1.785px;" d="M 66.498 7.063 L 65.53 4.508"></path>
  <path style="stroke-linecap: round; fill: rgb(251, 187, 82); stroke-width: 2px; stroke: rgb(186, 157, 71); transform-origin: 41.94px 9.389px;" d="M 41.94 8.023 L 41.94 10.755" transform="matrix(0.99338, 0.114875, -0.114875, 0.99338, 0, 0)"></path>
  <path style="stroke-linecap: round; fill: rgb(251, 187, 82); stroke-width: 2px; stroke: rgb(186, 157, 71); transform-origin: 55.05px 8.853px;" d="M 55.05 7.487 L 55.05 10.219" transform="matrix(0.915922, -0.401356, 0.401356, 0.915922, 0, 0)"></path>
  <path style="stroke-linecap: round; fill: rgb(251, 187, 82); stroke-width: 2px; stroke: rgb(186, 157, 71); transform-origin: 30.745px 9.236px;" d="M 30.745 7.87 L 30.745 10.602" transform="matrix(0.923605, 0.383346, -0.383346, 0.923605, 0, 0)"></path>
  <path style="stroke-linecap: round; fill: rgb(251, 187, 82); stroke-width: 2px; stroke: rgb(186, 157, 71); transform-origin: 21.544px 8.01px;" d="M 21.544 6.644 L 21.544 9.376" transform="matrix(0.944675, 0.328008, -0.328008, 0.944675, -0.000001, 0)"></path>
  <path style="stroke-linecap: round; fill: rgb(251, 187, 82); stroke-width: 2px; stroke: rgb(186, 157, 71); transform-origin: 12.574px 5.479px;" d="M 12.574 4.113 L 12.574 6.845" transform="matrix(0.816863, 0.576832, -0.576832, 0.816863, -0.000001, 0)"></path>
</svg>