<?xml version="1.0" encoding="utf-8"?>
<svg viewBox="0 0 32 32" width="42px" height="42px" xmlns="http://www.w3.org/2000/svg">
  <defs>
    <radialGradient gradientUnits="userSpaceOnUse" cx="-4.753" cy="21.403" r="16" id="gradient-1" gradientTransform="matrix(-0.408479, 0.880121, -0.997616, -0.46301, 39.149204, 24.679935)">
      <stop offset="0" style="stop-color: rgb(37, 173, 28);"/>
      <stop offset="1" style="stop-color: rgb(35, 107, 24);"/>
    </radialGradient>
    <linearGradient gradientUnits="userSpaceOnUse" x1="17.635" y1="16.103" x2="17.635" y2="32" id="gradient-0" gradientTransform="matrix(-0.983225, 0, 0, -0.983225, 34.974184, 46.451673)">
      <stop offset="0" style="stop-color: rgba(0, 0, 0, 0.094);"/>
      <stop offset="1" style="stop-color: rgba(51, 51, 51, 0.094);"/>
    </linearGradient>
  </defs>
  <circle style="fill: url('#gradient-1');" cx="16" cy="16" r="16"/>
  <path style="fill: url('#gradient-0');" d="M 15.633 17.427 C 18.371 15.921 22.065 15.805 25.058 16.553 C 26.782 16.984 28.92 18.182 30.738 17.614 C 31.17 17.479 31.59 17.318 32 17.136 C 31.418 25.443 24.495 32 16.04 32 C 10.824 32 6.192 29.505 3.271 25.643 C 7.705 23.414 11.136 19.901 15.633 17.427 Z"/>
  <path d="M 32 16 C 32 24.837 24.837 32 16 32 C 7.163 32 0 24.837 0 16 C 0 7.163 7.163 0 16 0 C 24.837 0 32 7.163 32 16 Z M 16 3 C 8.82 3 3 8.82 3 16 C 3 23.18 8.82 29 16 29 C 23.18 29 29 23.18 29 16 C 29 8.82 23.18 3 16 3 Z" style="fill: rgba(31, 54, 7, 0.533);"/>
  <path stroke="rgb(255,0,0)" stroke-width="0" opacity="0.9725490196078431" d="M 10.734 5.481 C 11.135 5.448 11.945 5.516 12.289 5.642 C 12.519 5.726 12.649 5.827 12.744 5.99 C 12.847 6.167 12.906 6.446 12.852 6.687 C 12.788 6.97 12.481 7.39 12.289 7.571 C 12.148 7.704 12.066 7.738 11.86 7.786 C 11.544 7.859 10.867 7.894 10.466 7.839 C 10.125 7.793 9.747 7.747 9.582 7.545 C 9.418 7.344 9.408 6.931 9.474 6.633 C 9.545 6.314 9.803 5.884 10.037 5.695 C 10.236 5.534 10.438 5.505 10.734 5.481 Z M 8.319 8.173 C 8.549 8.159 8.957 8.232 9.097 8.361 C 9.207 8.462 9.214 8.614 9.204 8.789 C 9.19 9.026 9.115 9.499 8.909 9.674 C 8.699 9.852 8.16 9.882 7.944 9.835 C 7.796 9.802 7.717 9.724 7.649 9.593 C 7.558 9.417 7.502 9.001 7.542 8.789 C 7.574 8.619 7.663 8.489 7.783 8.387 C 7.914 8.277 8.118 8.185 8.319 8.173 Z" style="fill-opacity: 1; fill-rule: nonzero; stroke: none; stroke-dasharray: none; stroke-dashoffset: 0px; stroke-linecap: butt; stroke-linejoin: miter; stroke-miterlimit: 4; stroke-opacity: 1; stroke-width: 1px; paint-order: normal; vector-effect: none; opacity: 1; mix-blend-mode: normal; isolation: auto; fill: rgba(255, 255, 255, 0.094);"/>
</svg>