<svg xmlns="http://www.w3.org/2000/svg" viewBox="0 0 64 32">
  <defs>
    <linearGradient gradientUnits="userSpaceOnUse" x1="32.364" y1="7.959" x2="32.364" y2="48.706" id="gradient-0" gradientTransform="matrix(0.887718, 0, 0, 0.887718, 3.633898, 0.893653)">
      <stop offset="0" style="stop-color: rgb(69, 192, 40);"></stop>
      <stop offset="1" style="stop-color: rgb(0% 37.185% 0%)"></stop>
    </linearGradient>
  </defs>
  <path d="M 12.006 45.014 C 5.375 45.014 0 39.639 0 33.008 C 0 28.545 2.434 24.652 6.048 22.582 C 6.364 14.452 13.053 7.959 21.261 7.959 C 25.581 7.959 29.48 9.758 32.251 12.647 C 33.316 12.338 34.442 12.172 35.607 12.172 C 37.785 12.172 39.827 12.752 41.588 13.766 C 43.338 12.77 45.362 12.201 47.519 12.201 C 54.15 12.201 59.525 17.576 59.525 24.207 C 59.525 25.041 59.44 25.855 59.278 26.64 C 62.56 28.783 64.728 32.488 64.728 36.7 C 64.728 43.331 59.353 48.706 52.722 48.706 C 46.091 48.706 40.716 43.331 40.716 36.7 C 40.716 36.119 40.757 35.547 40.837 34.988 C 39.256 35.754 37.482 36.184 35.607 36.184 C 33.856 36.184 32.194 35.809 30.694 35.136 C 28.471 36.893 25.745 38.043 22.768 38.335 C 20.806 42.293 16.724 45.014 12.006 45.014 Z" style="fill: url(#gradient-0);"></path>
</svg>