<svg xmlns="http://www.w3.org/2000/svg" viewBox="0 0 64 32" xmlns:bx="https://boxy-svg.com">
  <defs>
    <linearGradient gradientUnits="userSpaceOnUse" x1="32" y1="0.996" x2="32" y2="31.005" id="gradient-0">
      <stop offset="0" style="stop-color: rgb(100% 100% 100%)"></stop>
      <stop offset="0.403" style="stop-color: rgb(228, 228, 228); stop-opacity: 0.9;"></stop>
      <stop offset="0.752" style="stop-color: rgb(206, 206, 206); stop-opacity: 0.5;"></stop>
      <stop offset="1" style="stop-color: rgb(191, 191, 191); stop-opacity: 0.1;"></stop>
    </linearGradient>
  </defs>
  <path stroke="rgb(255,0,0)" stroke-width="0" opacity="0.9882352941176471" d="M 22.29 1.03 C 22.947 0.978 23.399 0.968 24.111 1.131 C 25.043 1.346 26.357 1.769 27.447 2.446 C 28.671 3.207 30.065 4.587 31.037 5.632 C 31.879 6.538 31.993 8.099 33.059 8.311 C 34.493 8.596 37.275 5.999 39.481 5.48 C 41.643 4.971 44.477 5.078 46.155 5.176 C 47.336 5.246 47.871 5.256 48.885 5.682 C 50.209 6.238 52.169 7.374 53.386 8.666 C 54.621 9.977 55.661 11.77 56.217 13.519 C 56.775 15.276 56.741 17.441 56.722 19.182 C 56.706 20.75 56.598 22.335 56.217 23.53 C 55.896 24.536 55.108 25.677 54.801 26.007 C 54.67 26.149 54.65 26.031 54.497 26.159 C 54.134 26.469 53.453 27.738 52.526 28.435 C 51.365 29.307 49.444 30.356 47.772 30.761 C 46.106 31.164 44.601 30.971 42.515 30.861 C 39.853 30.723 35.352 29.847 32.908 29.749 C 31.182 29.681 30.364 30.023 28.863 29.952 C 27.115 29.87 24.643 29.534 22.998 29.143 C 21.642 28.821 20.816 28.272 19.56 27.928 C 18.176 27.551 16.412 27.444 15.009 27.019 C 13.695 26.621 12.416 26.134 11.368 25.502 C 10.401 24.918 9.522 24.159 8.891 23.429 C 8.335 22.785 7.948 22.177 7.678 21.407 C 7.386 20.574 7.244 19.462 7.273 18.576 C 7.3 17.751 7.409 16.995 7.778 16.249 C 8.189 15.421 9.099 14.434 9.751 13.873 C 10.277 13.419 10.985 13.456 11.319 12.962 C 11.691 12.41 11.464 11.478 11.723 10.587 C 12.04 9.491 12.648 7.905 13.24 6.845 C 13.763 5.907 14.615 4.889 15.009 4.468 C 15.213 4.251 15.329 4.249 15.464 4.115 C 15.599 3.979 15.557 3.859 15.818 3.659 C 16.416 3.203 18.691 1.967 19.862 1.535 C 20.781 1.198 21.546 1.089 22.29 1.03 Z" style="fill-opacity: 1; fill-rule: nonzero; stroke: none; stroke-dasharray: none; stroke-dashoffset: 0px; stroke-linecap: butt; stroke-linejoin: miter; stroke-miterlimit: 4; stroke-opacity: 1; stroke-width: 96px; paint-order: stroke; vector-effect: none; opacity: 1; mix-blend-mode: normal; isolation: auto; fill: url(#gradient-0);"></path>
</svg>