<svg xmlns="http://www.w3.org/2000/svg" viewBox="0 0 160 256" width="160px" height="256px" xmlns:bx="https://boxy-svg.com">
  <path d="M 68.752 38.603 C 71.064 38.176 74.15 38.295 76.401 39.053 C 78.548 39.775 80.627 41.289 82.026 42.877 C 83.359 44.392 83.984 45.764 84.725 48.277 C 85.818 51.979 86.261 57.472 86.975 64.025 C 87.941 72.889 88.581 90.174 89.675 97.771 C 90.351 102.464 91.451 103.637 91.925 107.67 C 92.538 112.89 92.724 120.969 92.374 127.017 C 92.051 132.61 90.358 135.524 90.125 142.766 C 89.76 154.091 92.956 180.598 92.824 191.36 C 92.746 197.816 91.498 200.823 91.475 204.858 C 91.454 208.357 92.29 212.87 92.374 214.307 C 92.407 214.867 92.374 214.557 92.374 215.207 C 92.374 217.361 93.696 228.598 92.374 233.205 C 91.328 236.853 89.375 239.837 86.75 241.529 C 84.078 243.251 79.536 243.994 76.401 243.329 C 73.322 242.675 69.723 239.578 68.077 237.704 C 66.891 236.354 66.681 235.981 66.278 233.655 C 65.453 228.895 66.041 214.041 66.278 207.108 C 66.451 202.031 67.235 199.136 67.177 194.959 C 67.117 190.599 65.688 185.998 65.828 181.461 C 65.969 176.85 67.769 172.996 68.077 167.513 C 68.46 160.7 66.824 145.824 67.177 143.216 C 67.276 142.486 67.554 143.053 67.627 142.316 C 67.897 139.619 65.308 123.957 65.378 116.669 C 65.434 110.734 67.589 106.73 67.177 101.37 C 66.729 95.53 63.567 90.363 62.228 82.923 C 60.525 73.461 57.429 55.083 58.628 48.277 C 59.3 44.464 61.101 42.928 62.903 41.302 C 64.541 39.825 66.595 39.001 68.752 38.603 Z" style="fill-opacity: 1; fill-rule: nonzero; stroke-dasharray: none; stroke-dashoffset: 0px; stroke-linecap: butt; stroke-linejoin: miter; stroke-miterlimit: 4; stroke-opacity: 1; paint-order: stroke; vector-effect: none; opacity: 1; mix-blend-mode: normal; isolation: auto; stroke: rgb(139, 93, 64); fill: rgb(185, 127, 86); stroke-width: 16px;"></path>
  <path d="M 91.353 17.792 C 102.93 19.838 117.336 24.327 124.795 28.755 C 130.062 31.882 133.46 36.476 135.08 39.298 C 136.097 41.064 135.78 41.812 136 43.779 C 136.318 46.622 135.01 52.318 136.418 55.268 C 137.703 57.963 142.542 57.819 143.446 61.155 C 144.79 66.102 141.296 79.654 137.999 85.058 C 135.438 89.258 131.57 91.809 127.628 93.01 C 123.637 94.221 117.964 91.052 114.161 92.178 C 110.653 93.214 109.517 98.242 105.396 98.86 C 99.679 99.722 86.177 94.789 81.31 92.162 C 78.285 90.526 78.621 86.735 75.898 86.801 C 71.499 86.912 63.316 100.305 55.507 101.624 C 47.19 103.029 32.628 97.424 27.104 93.507 C 23.35 90.843 21.896 87.139 21.311 83.841 C 20.762 80.735 23.787 76.927 23.238 74.32 C 22.762 72.04 20.149 71.898 19.084 68.773 C 17.205 63.276 15.748 47.575 16.428 40.423 C 16.916 35.282 18.778 31.327 20.318 28.559 C 21.433 26.549 21.815 25.061 24.064 24.408 C 27.792 23.337 38.233 28.786 43.47 27.185 C 48.24 25.727 48.942 18.493 54.726 16.539 C 62.889 13.783 79.586 15.712 91.353 17.792 Z" style="fill-opacity: 1; fill-rule: nonzero; stroke-dasharray: none; stroke-dashoffset: 0px; stroke-linecap: butt; stroke-linejoin: miter; stroke-miterlimit: 4; stroke-opacity: 1; paint-order: stroke; vector-effect: none; opacity: 1; mix-blend-mode: normal; isolation: auto; fill: rgb(44, 106, 21); stroke: rgb(26, 71, 31); stroke-width: 24px;"></path>
</svg>