<svg xmlns="http://www.w3.org/2000/svg" viewBox="0 0 1024 1024" width="1024px" height="1024px" xmlns:bx="https://boxy-svg.com">
  <defs>
    <radialGradient gradientUnits="userSpaceOnUse" cx="2035.998" cy="-2161.598" r="512" id="gradient-0" gradientTransform="matrix(0, -2.112545, 2.112545, 0, 5077.568421, 5180.408348)">
      <stop offset="0" style="stop-color: rgb(255, 178, 76);"></stop>
      <stop offset="0.273" style="stop-color: rgb(250, 174, 74);"></stop>
      <stop offset="1" style="stop-color: rgb(127, 74, 29);"></stop>
    </radialGradient>
    <bx:export>
      <bx:file format="png"></bx:file>
    </bx:export>
    <filter id="gaussian-blur-filter-0" bx:preset="gaussian-blur 1 4" color-interpolation-filters="sRGB" x="-50%" y="-50%" width="200%" height="200%">
      <feGaussianBlur stdDeviation="4 4" edgeMode="none"></feGaussianBlur>
    </filter>
  </defs>
  <rect x="-0.001" width="1024" height="1024" style="fill: url(#gradient-0); stroke-width: 1;" y="-0.004"></rect>
  <ellipse style="fill: rgb(255, 221, 132); filter: blur(64px); stroke-width: 1;" cx="512.003" cy="1043.41" rx="388.001" ry="388.001"></ellipse>
  <path style="fill: none; stroke: rgb(0, 0, 0); stroke-opacity: 0.1; stroke-width: 96; filter: url(#gaussian-blur-filter-0);" d="M -155.22 -144.96 C -118.06 -172.82 -92.489 -214.88 -53.1 -239.95 C 99.893 -337.31 180.453 -75.483 286.503 -35.715 C 361.143 -7.728 436.713 -118.34 519.243 -104.58 C 613.813 -88.826 721.903 17.325 785.233 80.654 C 802.113 97.536 807.903 121.499 832.733 130.527 C 905.103 156.842 957.163 90.596 1025.1 99.653 C 1088.64 108.126 1138.02 175.613 1174.71 220.772 C 1223.37 280.663 1288.62 343.01 1350.45 389.388"></path>
  <path style="fill: none; stroke: rgb(0, 0, 0); stroke-opacity: 0.1; stroke-width: 96; filter: url(#gaussian-blur-filter-0);" d="M -155.22 297.598 C -97.191 239.568 24.499 116.337 110.763 202.603 C 143.473 235.307 182.833 316.843 229.513 330.847 C 289.983 348.988 354.513 236.967 426.623 242.976 C 518.243 250.611 551.793 383.894 647.483 392.593 C 722.083 399.375 788.913 326.747 865.973 340.346 C 979.293 360.344 1024.36 520.451 1108.21 584.958 C 1165.91 629.34 1259.84 598.598 1326.7 613.457"></path>
  <path style="fill: none; stroke: rgb(0, 0, 0); stroke-opacity: 0.1; stroke-width: 96; filter: url(#gaussian-blur-filter-0);" d="M -270.71 546.672 C -178.89 528.308 -89.903 458.474 2.401 501.549 C 69.425 532.828 84.17 655.544 159.143 663.041 C 223.873 669.514 275.513 601.611 342.003 606.044 C 444.263 612.861 502.653 741.27 603.243 758.04 C 671.543 769.42 742.463 717.57 814.613 724.79 C 959.163 739.24 1083.44 885.09 1187.47 971.77"></path>
  <path style="fill: none; stroke: rgb(0, 0, 0); stroke-opacity: 0.1; stroke-width: 96; filter: url(#gaussian-blur-filter-0);" d="M -361.64 867.03 C -273.17 849.34 -193.65 798.33 -105.15 852.78 C -53.954 884.29 -21.402 954.66 32.591 978.65 C 89.086 1003.77 144.483 934.68 201.203 950.15 C 258.703 965.84 289.003 1021.62 343.703 1038.03 C 406.773 1056.95 470.793 1022.6 536.063 1035.65 C 602.293 1048.9 624.683 1117.32 678.553 1149.65 C 728.953 1179.88 793.503 1153.61 837.673 1178.15 C 876.483 1199.71 935.243 1281.32 961.163 1315.89"></path>
</svg>
