<?xml version="1.0" encoding="utf-8"?>
<svg xmlns="http://www.w3.org/2000/svg" viewBox="0 0 2048 1440" xmlns:bx="https://boxy-svg.com" width="2048px" height="1440px"><defs><linearGradient gradientUnits="userSpaceOnUse" x1="882.082" y1="122.168" x2="882.082" y2="1672.83" id="gradient-1" gradientTransform="matrix(0.886992, 0, 0, 0.886992, 532.421558, 18.521809)"><stop offset="0" style="stop-color: rgb(155, 83, 23);"/><stop offset="0.656" style="stop-color: rgb(125, 69, 20);"/><stop offset="0.813" style="stop-color: rgb(153, 83, 23);"/><stop offset="1" style="stop-color: rgb(99, 52, 12);"/></linearGradient><bx:export><bx:file format="png"/><bx:file format="svg"/></bx:export></defs><path d="M -142.19 1229.79 L 965.43 1229.79 C 1113.86 1229.79 1149.3 1155.81 1076.19 1008.27 L 743.91 343.698 C 670.8 195.946 670.8 122.168 743.91 122.168 L 1851.53 122.168 C 1924.63 122.168 1924.63 195.946 1851.53 343.698 L 1519.25 1008.27 C 1446.14 1155.81 1481.58 1229.79 1630.01 1229.79 C 1778.42 1229.79 1778.42 1377.33 1630.01 1672.83 L -142.19 1672.83 L -142.19 1229.79 Z" style="fill: rgb(79, 40, 8); stroke-width: 96px; paint-order: stroke;"/><path d="M 965.43 1181.79 C 979.934 1181.911 1093.952 1169.811 1114.901 1137.686 C 1140.955 1097.732 1149.647 1131.419 1141.732 1114.821 C 1141.732 1114.821 1153.517 1182.288 1146.91 1195.643 C 1140.199 1209.207 1127.92 1224.961 1116.316 1234.962 C 1105.061 1244.662 1088.4 1254.505 1073.496 1260.479 C 1045.396 1271.743 1006.188 1277.511 965.43 1277.79 L -94.19 1277.79 L -94.19 1624.83 L 1600.255 1624.83 C 1664.024 1494.382 1693.317 1406.697 1693.317 1340.498 C 1693.317 1325.454 1692.116 1317.057 1688.848 1307.308 C 1685.871 1298.423 1684.786 1296.609 1679.643 1291.495 C 1674.491 1286.371 1672.595 1285.249 1663.606 1282.269 C 1653.748 1279.002 1645.187 1277.79 1630.01 1277.79 C 1589.252 1277.79 1550.044 1271.743 1521.944 1260.479 C 1507.04 1254.505 1490.379 1244.662 1479.124 1234.962 C 1467.52 1224.961 1455.241 1209.207 1448.53 1195.643 C 1441.923 1182.288 1436.76 1163.405 1435.253 1147.817 C 1433.805 1132.847 1481.241 1121.118 1481.241 1121.118 C 1467.3 1150.371 1549.514 1168.105 1557.663 1171.372 C 1575.669 1178.589 1596.553 1181.79 1630.01 1181.79 C 1651.936 1181.79 1675.839 1185.189 1693.808 1191.144 C 1712.646 1197.388 1732.649 1204.421 1747.338 1223.426 C 1796.138 1286.564 1674.705 1471.855 1672.904 1694.373 L 1659.664 1720.83 L -190.19 1720.83 L -190.19 1181.79 L 965.43 1181.79 Z M 743.91 170.168 C 724.971 192.052 627.257 157.994 668.685 102.224 C 676.036 92.328 692.797 84.108 704.615 80.132 C 715.572 76.446 731.347 74.414 743.91 74.168 L 1851.53 74.168 C 1864.092 74.414 1880.322 75.3 1890.824 80.133 C 1985.461 123.684 1866.955 232.047 1851.53 170.168 L 743.91 170.168 Z" style="fill: rgb(80, 209, 89);"/><path style="fill: rgb(80, 209, 89);" d="M 1330.533 877.916 C 1330.533 877.916 1465.115 911.047 1517.25 911.047 C 1569.385 911.047 1556.865 966.07 1514.03 975.616 L 1387.62 964.35 L 1330.533 877.916 Z"/><path style="fill: rgb(80, 209, 89); transform-box: fill-box; transform-origin: 50% 50%;" d="M 906.302 701.733 C 943.236 769.218 1040.915 668.647 1093.03 668.602 C 1145.16 668.557 1132.64 613.579 1089.81 604.033 L 963.392 615.299 L 906.302 701.733 Z" transform="matrix(-1, 0, 0, -1, 0, -23.300293)"/><path d="M -142.19 1229.79 L 965.432 1229.79 C 1113.86 1229.79 1149.3 1155.81 1076.19 1008.27 L 912.403 680.69 L 937.216 680.69 C 993.741 680.69 1045.04 650.75 1073.3 602.176 C 1134.02 497.491 1058.64 366.634 937.216 366.634 L 755.379 366.634 L 743.911 343.698 C 670.804 195.946 670.804 122.168 743.911 122.168 L 1851.53 122.168 C 1924.63 122.168 1924.63 195.946 1851.53 343.698 L 1706.913 632.938 L 1494.558 632.938 C 1438.038 632.938 1386.738 662.878 1358.478 711.452 C 1297.758 816.137 1373.138 946.994 1494.558 946.994 L 1549.887 946.994 L 1519.25 1008.27 C 1446.14 1155.81 1481.58 1229.79 1630.01 1229.79 C 1778.42 1229.79 1778.42 1377.33 1630.01 1672.83 L -142.19 1672.83 Z" style="fill: url(&quot;#gradient-1&quot;);"/></svg>