<svg xmlns="http://www.w3.org/2000/svg" viewBox="0 0 1024 512" width="1024" height="512" xmlns:bx="https://boxy-svg.com">
  <defs>
    <linearGradient gradientUnits="userSpaceOnUse" x1="511.997" y1="70.246" x2="511.997" y2="512" id="gradient-0" gradientTransform="matrix(1.159019, 0, 0, 1.159019, -81.417507, -81.417982)">
      <stop offset="0" style="stop-color: rgb(97, 98, 151);"></stop>
      <stop offset="1" style="stop-color: rgb(46, 52, 77);"></stop>
    </linearGradient>
    <bx:export>
      <bx:file format="png"></bx:file>
    </bx:export>
    <clipPath id="clip-0">
      <path d="M 103.713 134.384 L 243.295 125.074 L 302.438 76.571 L 352.618 70.251 L 485.354 94.589 L 610.113 70.606 L 662.403 77.067 L 737.591 125.757 L 880.311 135.456 L 914.739 152.23 L 903.66 206.674 L 1009.83 246.35 L 1013.24 267.016 L 1013.24 267.016 L 1013.24 692.548 L 10.756 692.548 L 10.762 244.993 L 10.766 244.993 L 10.762 244.971 L 103.873 205.569 L 74.811 151.071 L 103.713 134.384 Z" style="fill: rgb(255, 255, 255);"></path>
    </clipPath>
  </defs>
  <g style="clip-path: url(#clip-0);">
    <path d="M 103.713 134.384 L 243.295 125.074 L 302.438 76.571 L 352.618 70.251 L 485.354 94.589 L 610.113 70.606 L 662.403 77.067 L 737.591 125.757 L 880.311 135.456 L 914.739 152.23 L 903.66 206.674 L 1009.83 246.35 L 1013.238 267.016 L 1013.24 267.016 L 1013.24 692.548 L 10.756 692.548 L 10.762 244.993 L 10.766 244.993 L 10.762 244.971 L 103.873 205.569 L 74.811 151.071 Z M 183.742 208.711 L 175.278 221.12 L 113.528 247.251 L 910.46 264.758 L 929.79 256.578 L 837.358 222.034 L 824.792 209.597 L 834.437 162.197 L 710.181 153.753 L 681.385 146.037 L 615.925 103.647 L 507.306 124.527 L 473.279 124.479 L 357.715 103.291 L 306.223 145.519 L 279.962 153.158 L 158.439 161.264 Z" style="fill: rgb(174, 174, 174);"></path>
    <path d="M 481.738 -34.696 L 553.978 35.189 L 653.499 21.113 L 670.865 120.113 L 759.654 167.222 L 715.512 257.522 L 759.654 347.822 L 670.865 394.931 L 653.499 493.931 L 553.978 479.855 L 481.738 549.74 L 409.498 479.855 L 309.977 493.931 L 292.611 394.931 L 203.822 347.822 L 247.964 257.522 L 203.822 167.222 L 292.611 120.113 L 309.977 21.113 L 409.498 35.189 Z" bx:shape="star 481.738 257.522 292.218 292.218 0.8 10 1@f4147446" style="stroke-width: 48px; paint-order: stroke; stroke-linejoin: bevel; fill: rgb(207, 207, 207); transform-box: fill-box; transform-origin: 50% 50%;" transform="matrix(0.866025, -0.5, 1.366025, 0.366025, 30.262215, -1.521907)"></path>
    <rect width="1024" height="512" style="mix-blend-mode: multiply; fill: url(#gradient-0);"></rect>
  </g>
</svg>