<svg xmlns="http://www.w3.org/2000/svg" viewBox="0 0 1024 512" width="1024px" height="512px" xmlns:bx="https://boxy-svg.com">
  <defs>
    <linearGradient gradientUnits="userSpaceOnUse" x1="468.774" y1="94.409" x2="468.774" y2="934.655" id="gradient-0" gradientTransform="matrix(0.651549, 0, 0, 0.651549, 163.34476, 32.896908)">
      <stop offset="0" style="stop-color: rgb(156, 121, 69);"></stop>
      <stop offset="1" style="stop-color: rgb(96, 76, 41);"></stop>
    </linearGradient>
    <bx:export>
      <bx:file format="png"></bx:file>
    </bx:export>
    <filter id="inner-shadow-filter-0" bx:preset="inner-shadow 1 0 10 10 0.3 #fff8" color-interpolation-filters="sRGB" x="-50%" y="-50%" width="200%" height="200%">
      <feOffset dx="0" dy="10"></feOffset>
      <feGaussianBlur stdDeviation="10"></feGaussianBlur>
      <feComposite operator="out" in="SourceGraphic"></feComposite>
      <feComponentTransfer result="choke">
        <feFuncA type="linear" slope="0.6"></feFuncA>
      </feComponentTransfer>
      <feFlood flood-color="#fff8" result="color"></feFlood>
      <feComposite operator="in" in="color" in2="choke" result="shadow"></feComposite>
      <feComposite operator="over" in="shadow" in2="SourceGraphic"></feComposite>
    </filter>
  </defs>
  <path style="stroke-width: 96px; paint-order: stroke; filter: url(#inner-shadow-filter-0);" d="M 210.203 461.396 C 256.072 452.864 301.852 446.124 347.543 441.176 L 359.754 413.607 C 360.273 412.435 360.91 412.367 361.665 413.402 L 379.606 437.997 C 397.382 436.397 415.144 435.069 432.892 434.013 L 448.782 406.49 C 449.422 405.381 450.063 405.381 450.704 406.49 L 465.646 432.371 C 484.327 431.611 502.994 431.152 521.645 430.995 L 537.812 407.023 C 538.529 405.962 539.168 406.006 539.73 407.158 L 551.359 431.001 C 576.188 431.218 600.989 431.972 625.764 433.261 L 639.237 409.855 C 639.876 408.745 640.517 408.744 641.159 409.852 L 655.77 435.085 C 674.034 436.355 692.284 437.917 710.519 439.771 L 727.63 417.71 C 728.416 416.698 729.05 416.785 729.535 417.971 L 739.745 442.992 C 779.617 447.731 819.419 453.865 859.152 461.396 C 920.071 472.943 886.755 525.235 759.206 618.273 C 602.884 732.299 410.237 714.253 181.265 564.136 C 150.985 544.284 160.631 510.037 210.203 461.396 Z"></path>
  <path d="M 296.557 54.632 C 313.909 54.235 334.32 52.627 347.935 60.216 C 503.897 147.148 330.018 235.775 299.269 150.575 L -43.085 151.929 C -86.019 207.93 -116.32 253.244 -144.03 305.647 C -149.453 315.902 -154.391 325.769 -158.871 335.308 L -262.851 335.308 C -253.602 310.981 -242.193 285.92 -228.895 260.771 C -198.878 204.006 -156.473 140.718 -104.369 74.346 L -90.05 56.107 L 296.557 54.632 Z M 806.091 165.824 C 726.535 233.236 676.258 149.795 751.872 85.05 C 757.126 80.57 765.398 74.598 771.556 71.565 C 778.085 68.349 789.067 65.054 796.349 64.212 C 803.631 63.369 815.076 64.069 822.166 65.708 C 828.854 67.255 838.367 71.007 844.41 74.341 C 855.283 80.34 868.534 91.577 877.982 102.202 C 886.797 112.117 896.675 125.875 905.391 139.886 C 908.68 145.572 910.37 147.384 914.004 150.782 C 917.382 153.942 917.596 154.087 921.225 155.752 C 924.854 157.416 925.104 157.483 929.702 157.982 C 934.648 158.519 937.095 158.436 943.58 157.401 C 957.781 155.136 971.125 150.173 991.408 139.159 C 1012.504 127.703 1034.451 112.756 1060.654 91.593 C 1081.1 75.318 1102.361 61.45 1119.053 54.511 C 1128.555 50.561 1142.189 47.054 1151.851 46.526 C 1157.313 46.228 1166.061 46.846 1171.522 48.029 C 1177.332 49.287 1186.599 52.894 1191.786 55.987 C 1196.972 59.08 1204.55 65.519 1208.418 70.033 C 1212.054 74.276 1216.755 81.679 1219.089 86.627 C 1223.216 95.379 1226.61 109.042 1227.65 119.279 C 1229.478 137.263 1227.509 162.585 1222.778 188.285 C 1215.869 225.818 1201.98 274.925 1181.267 335.308 C 1181.267 335.308 1131.461 155.967 1133.13 149.971 C 1129.755 154.891 1125.683 160.381 1120.816 166.403 C 1091.656 189.763 1062.656 209.71 1037.22 223.523 C 1010.972 237.776 982.2 248.455 958.701 252.203 C 946.336 254.175 931.037 254.691 919.34 253.421 C 907.296 252.114 892.008 247.967 881.202 243.011 C 870.397 238.055 857.28 229.173 848.432 220.899 C 839.839 212.863 830.407 200.833 823.677 190.272 C 816.933 179.211 811.862 172.315 806.241 165.993 C 806.19 165.936 806.14 165.88 806.091 165.824 Z" style="fill: rgb(148, 218, 85);"></path>
  <path style="fill: url(#gradient-0); stroke-width: 96px; paint-order: stroke;" d="M -66.638 104.018 L 296.949 102.631 C 354.309 99.855 382.064 127.61 380.213 185.895 C 375.865 322.806 312.029 444.001 188.705 549.482 C 20.241 693.572 239.041 729.191 845.105 656.338 C 883.782 651.689 886.558 612.832 853.432 539.768 C 806.499 436.251 770.418 328.47 745.188 216.425 C 737.621 182.821 750.573 150.903 784.045 120.671 C 806.785 100.132 833.614 114.935 864.534 165.079 C 904.609 230.07 980.009 218.043 1090.735 128.998 C 1238.081 10.504 1203.85 196.46 988.042 686.868 C 835.477 1033.56 457.087 1016.445 -147.127 635.522 C -297.545 540.692 -270.716 363.524 -66.638 104.018 Z"></path>
  <path d="M -5.878 148.092 C 13.741 152.903 34.852 162.589 48.365 172.417 C 61.823 182.204 74.377 194.799 83.949 205.079 C 101.853 224.309 111.89 239.4 125.485 245.484 C 125.773 245.374 126.346 245.313 127.31 245.342 C 132.191 245.489 136.844 245.127 144.088 244.24 C 158.611 242.462 175.719 238.982 188.093 237.601 C 210.991 235.334 240.647 233.643 268.504 236.023 C 296.475 238.413 330.894 247.832 357.082 262.699 C 361.186 265.299 365.309 268.014 369.436 270.824 C 362.095 303.172 351.085 334.551 336.406 364.96 C 326.397 357.361 316.304 350.317 306.203 344.107 C 294.439 335.255 281.33 333.468 260.333 331.675 C 239.22 329.871 218.466 331.02 197.645 333.125 C 190.447 333.701 174.416 337.244 155.753 339.528 C 146.404 340.673 134.453 341.602 124.407 341.298 C 113.74 340.975 97.115 337.14 85.363 332.458 C 54.533 314.673 30.644 288.707 13.688 270.496 C 5.224 261.405 -0.765 255.389 -8.098 250.056 C -15.376 244.764 -17.302 242.821 -24.705 242.228 C -52.391 235.628 -82.448 239.639 -119.39 242.18 C -133.29 243.136 -148.37 243.762 -164.05 243.501 C -145.25 212.09 -123.1 179.118 -97.582 144.584 C -68.748 143.027 -37.048 142.65 -5.878 148.092 Z M -140.88 381.443 C -109.72 390.56 -81.585 409.021 -62.89 423.53 C -44.195 438.038 -34.147 448.486 -21.533 450.146 C 2.905 458.15 29.108 456.934 62.311 456.293 C 95.516 455.652 135.118 455.293 173.333 463.452 C 196.188 469.617 221.654 481.856 244.82 496.075 C 227.73 514.309 209.025 532.115 188.705 549.495 C 182.846 554.506 177.455 559.387 172.533 564.136 C 165.231 560.594 158.233 558.117 151.345 556.9 C 125.542 549.996 97.86 551.625 64.162 552.275 C 30.462 552.925 -9.854 552.302 -47.906 542.452 C -77.351 532.095 -103.64 513.419 -121.75 499.371 C -139.85 485.322 -148.97 475.792 -161.7 475.157 C -178.76 469.357 -196.19 474.671 -223.5 479.95 C -229.41 481.094 -235.78 482.242 -242.49 483.282 C -244.27 452.927 -239.7 419.621 -228.77 383.364 C -203.22 379.13 -171.87 376.262 -140.88 381.443 Z" style="fill: rgba(0, 0, 0, 0.133);"></path>
  <path d="M 769.818 276.232 C 778.726 277.915 784.901 278.705 792.108 278.782 C 799.087 278.858 800.841 279.168 804.774 277.318 C 825.182 270.542 854.619 259.185 885.608 252.009 C 901.16 248.408 920.14 245.439 936.833 245.153 C 953.833 244.862 975.973 248.576 993.223 254.695 C 1023.37 267.967 1048.96 287.528 1067.99 302.878 C 1087.01 318.223 1098.49 329.145 1114.08 332.832 C 1120.18 335.813 1124.36 336.022 1130.59 335.296 C 1120.74 363.382 1109.4 393.924 1096.61 426.922 C 1092.28 426.082 1087.97 425.08 1083.74 423.906 C 1053.52 412.318 1027.06 393.219 1007.7 377.595 C 988.343 361.977 975.073 349.622 957.563 343.829 C 951.723 340.712 948.243 340.971 938.473 341.139 C 928.393 341.312 919.44 342.715 907.265 345.534 C 882.799 351.199 857.606 360.874 835.132 368.392 C 821.531 372.387 804.077 374.917 791.074 374.777 C 790.386 374.77 789.694 374.757 788.996 374.74 C 778.041 341.558 768.111 307.973 759.206 273.985 C 762.777 274.812 766.32 275.571 769.818 276.232 Z M 815.014 445.797 C 853.67 451.057 884.855 464.254 909.063 473.41 C 921.172 477.99 930.193 481.003 941.103 482.962 C 952.323 484.978 960.013 485.766 972.763 483.513 C 990.013 481.219 1015.06 474.377 1042.87 470.305 C 1054.33 468.627 1067.93 467.333 1080.72 467.297 C 1068.07 498.96 1054.23 532.639 1039.18 568.335 C 1021.67 571.71 1003.33 575.995 986.343 578.549 C 964.543 581.231 941.503 580.572 924.124 577.45 C 906.426 574.27 888.985 568.453 875.101 563.202 C 870.185 561.343 865.546 559.484 861.114 557.68 C 858.815 551.957 856.255 545.986 853.436 539.768 C 839.399 508.807 826.333 477.466 814.237 445.742 C 814.497 445.76 814.755 445.778 815.014 445.797 Z" style="fill: rgba(0, 0, 0, 0.133);"></path>
</svg>