<svg xmlns="http://www.w3.org/2000/svg" viewBox="0 0 256 1024" width="256px" height="1024px" xmlns:bx="https://boxy-svg.com">
  <defs>
    <bx:export>
      <bx:file format="png"></bx:file>
    </bx:export>
    <filter id="inner-shadow-filter-0" bx:preset="inner-shadow 1 0 0 10 0.5 rgba(0,0,0,0.7)" color-interpolation-filters="sRGB" x="-50%" y="-50%" width="200%" height="200%">
      <feOffset dx="0" dy="0"></feOffset>
      <feGaussianBlur stdDeviation="10"></feGaussianBlur>
      <feComposite operator="out" in="SourceGraphic"></feComposite>
      <feComponentTransfer result="choke">
        <feFuncA type="linear" slope="1"></feFuncA>
      </feComponentTransfer>
      <feFlood flood-color="rgba(0,0,0,0.7)" result="color"></feFlood>
      <feComposite operator="in" in="color" in2="choke" result="shadow"></feComposite>
      <feComposite operator="over" in="shadow" in2="SourceGraphic"></feComposite>
    </filter>
    <linearGradient gradientUnits="userSpaceOnUse" x1="78.514" y1="242.075" x2="78.514" y2="1135.409" id="gradient-0">
      <stop offset="0" style="stop-color: rgb(42.745% 42.745% 42.745%)"></stop>
      <stop offset="1" style="stop-color: rgb(92, 92, 92);"></stop>
    </linearGradient>
    <linearGradient gradientUnits="userSpaceOnUse" x1="78.514" y1="242.075" x2="78.514" y2="1135.409" id="gradient-1" gradientTransform="matrix(1.3853, 0, 0, 1.3853, -30.251483, -380.107217)">
      <stop offset="0" style="stop-color: rgb(111, 111, 111);"></stop>
      <stop offset="1" style="stop-color: rgb(55, 55, 55);"></stop>
    </linearGradient>
  </defs>
  <path d="M -11.472 242.075 L 228.49 1135.409 L -71.462 1135.409 L -11.472 242.075 Z" bx:shape="triangle -71.462 242.075 299.952 893.334 0.2 0 1@f67e6607" style="stroke-width: 96px; paint-order: stroke; stroke-miterlimit: 30; filter: url(#inner-shadow-filter-0); fill: url(#gradient-0); stroke: url(#gradient-1);"></path>
  <path d="M -79.408 894.509 C -70.294 893.807 -57.022 895.041 -47.4 897.039 C -42.016 898.758 -33.563 902.127 -29.338 904.775 C -25.42 907.231 -19.963 911.693 -17.038 914.592 C -11.778 919.806 -5.864 927.853 -2.404 933.495 C 4.011 943.951 9.814 956.794 14.501 967.117 C 18.118 975.085 21.12 981.673 24.109 987.247 C 32.84 983.841 43.407 978.757 52.659 975.29 C 111.603 955.192 166.675 948.893 219.875 939.979 C 219.464 940.305 221.363 939.511 225.216 938.278 L 250.094 1030.89 C 245.635 1032.15 240.442 1033.62 235.655 1034.67 C 179.484 1043.98 132.491 1048.2 84.602 1065.82 C 80.15 1067.15 68.427 1073.4 53.33 1078.8 C 45.719 1081.53 34.255 1084.77 24.729 1085.88 C 19.649 1086.46 11.399 1086.64 5.622 1085.99 C -0.504 1085.29 -10.89 1082 -17.55 1079.22 C -25.551 1074.53 -35.983 1066.7 -41.307 1060.82 C -46.276 1055.34 -51.759 1047.57 -55.315 1041.7 C -62.152 1030.43 -68.186 1017.21 -72.911 1006.8 C -75.572 1000.94 -77.792 996.044 -79.806 991.929 C -87.961 994.493 -95.06 998.064 -105.28 1004.23 C -107.18 1005.38 -109.08 1006.56 -110.97 1007.77 L -103.66 898.903 C -96.063 896.846 -86.894 895.085 -79.408 894.509 Z M 242.605 1023.68 C 242.943 1023.82 243.296 1023.97 243.661 1024.12 C 243.318 1023.96 242.966 1023.81 242.605 1023.68 Z M -72.964 600.107 C -68.25 606.664 -63.494 614.97 -60.094 621.319 C -53.33 633.951 -50.029 642.577 -47.792 644.302 C -34.361 662.89 -15.005 675.348 9.471 693.582 C 15.303 685.536 21.698 676.277 29.066 666.655 C 40.15 652.18 57.384 633.193 76.302 622.4 C 86.149 616.782 102.25 611.049 115.071 609.674 C 121.356 609 129.164 609.316 137.122 610.317 L 174.219 748.423 C 165.204 738.034 157.152 728.653 149.202 720.862 C 139.195 711.055 135.845 706.866 128.643 705.834 C 127.141 704.518 126.497 703.693 126.247 703.251 C 126.219 703.756 125.797 704.687 123.875 705.783 C 117.978 709.148 114.003 713.637 105.285 725.021 C 96.496 736.499 86.939 751.172 75.785 764.944 C 70.083 771.985 62.149 780.659 54.702 786.974 C 46.916 793.576 33.451 801.196 22.593 805.517 C 18.611 806.481 11.116 807.975 7.575 807.995 C 4.515 808.011 -1.033 807.338 -3.5 806.774 C -7.341 805.896 -13.493 803.399 -15.899 802.098 C -19.135 800.35 -23.7 796.958 -25.406 795.466 C -27.692 793.468 -30.673 790.311 -32.128 788.632 C -34.557 785.828 -37.478 782.058 -39.594 779.255 C -43.807 773.674 -39.462 777.443 -39.547 776.881 C -55.919 764.065 -74.415 750.821 -92.638 734.702 L -82.879 589.387 C -78.747 593.223 -75.193 597.008 -72.964 600.107 Z M -44.855 325.794 C -34.038 337.435 -25.263 350.084 -18.16 359.27 C -11.097 368.403 -8.285 371.712 -3.981 374.519 C -3.068 375.115 -2.642 375.605 -2.481 375.975 C -2.208 375.703 -1.777 375.359 -1.123 374.939 C 5.296 375.587 11.173 370.585 25.012 362.094 C 36.006 355.348 49.872 346.544 64.321 339.294 L 89.924 434.607 C 85.541 437.412 80.684 440.565 75.218 443.919 C 59.446 453.596 35.225 465.157 12.453 469.975 C 0.615 471.221 -14.845 470.882 -24.956 468.512 C -35.515 466.038 -48.529 460.078 -56.423 454.929 C -62.251 451.128 -67.819 446.524 -72.959 441.662 L -64.019 308.525 C -57.079 313.676 -49.837 320.432 -44.855 325.794 Z M -45.655 182.621 C -47.324 182.047 -49.033 183.814 -55.875 187.248 L -49.02 85.173 C -35.551 82.263 -21.245 79.123 -6.361 76.163 L 18.322 168.05 C -2.705 172.697 -24.146 178.07 -45.655 182.621 Z" style="fill: rgba(0, 0, 0, 0.133);"></path>
</svg>