<svg xmlns="http://www.w3.org/2000/svg" viewBox="0 0 2048 2048" width="2048px" height="2048px" xmlns:bx="https://boxy-svg.com">
  <defs>
    <linearGradient gradientUnits="userSpaceOnUse" x1="1023.999" y1="564.222" x2="1023.999" y2="1172.735" id="gradient-0">
      <stop offset="0" style="stop-color: rgb(133, 100, 56);"></stop>
      <stop offset="1" style="stop-color: rgb(94, 69, 30);"></stop>
    </linearGradient>
    <bx:export>
      <bx:file format="png"></bx:file>
    </bx:export>
    <linearGradient gradientUnits="userSpaceOnUse" x1="1031.582" y1="516.528" x2="1031.582" y2="856.102" id="gradient-2" gradientTransform="matrix(2.644266, 0, 0, 2.644266, -1696.195508, -849.309577)">
      <stop offset="0" style="stop-color: rgb(51.765% 85.098% 34.902%)"></stop>
      <stop offset="1" style="stop-color: rgb(15.401% 51.044% 0%)"></stop>
    </linearGradient>
  </defs>
  <path d="M 396.555 779.012 C 419.75 664.843 498.791 659.705 573.973 622.156 C 691.741 563.337 871.947 521.29 1000.975 516.929 C 1136.861 512.337 1306.62 548.088 1439.356 577.585 C 1501.408 591.374 1555.433 602.398 1601.101 651.841 C 1639.585 693.506 1675.345 721.989 1669.513 806.096 C 1663.681 890.203 1530.498 799.346 1531.409 717.863 C 1531.597 701.048 1504.894 696.461 1489.396 689.934 C 1468.246 681.027 1445.312 677.022 1422.884 672.161 C 1355.187 657.487 1287.705 641.087 1219.123 631.35 C 1148.215 621.283 1076.644 610.453 1005.065 612.841 C 881.872 616.951 726.267 655.54 614.048 709.391 C 566.967 731.984 518.206 760.781 490.821 806.096 C 494.14 847.584 370.835 905.609 396.555 779.012 Z" style="fill: url(#gradient-2);"></path>
  <path style="paint-order: stroke; stroke-width: 96px; fill: url(#gradient-0);" d="M 1271.539 1157.026 C 1236.09 1209.287 703.342 1116.345 668.122 1093.168 C 632.902 1069.99 588.43 1056.59 525.84 1052.97 C 484.135 1050.555 453.967 1037.533 436.699 1006.403 C 419.43 975.273 415.06 926.036 424.95 851.192 C 429.65 815.657 444.807 781.756 472.344 750.512 C 499.88 719.268 539.795 690.681 594.01 665.774 C 648.23 640.866 711.715 617.297 781.029 599.129 C 850.343 580.96 925.485 568.191 1003.02 564.885 C 1080.56 561.578 1155.913 571.059 1227.716 584.125 C 1299.52 597.19 1367.775 613.84 1431.12 624.873 C 1488.49 634.865 1533.535 650.313 1566.255 684.852 C 1598.975 719.391 1619.37 773.019 1627.44 859.372 C 1631.935 907.431 1617.822 953.048 1582.376 989.406 C 1546.93 1025.763 1490.15 1052.86 1409.31 1063.88 C 1353.82 1071.445 1306.987 1104.765 1271.539 1157.026 Z"></path>
  <path d="M 633.946 747.878 C 855.376 747.878 1077.62 664.398 1318.83 676.432 C 1353.56 679.786 1389.95 693.358 1418.05 707.264 C 1446.11 721.15 1470.16 735.48 1491.63 743.413 C 1530.84 758.494 1573.41 774.263 1617.14 791.421 C 1621.64 811.48 1625.07 834.015 1627.44 859.372 C 1628.69 872.731 1628.5 885.902 1626.81 898.738 C 1569.03 874.958 1511 853.714 1457.17 833.015 C 1428.81 821.779 1400.65 805.764 1375.47 793.304 C 1350.34 780.864 1332.46 772.088 1313.2 772.266 C 1092.07 757.102 872.646 843.878 633.946 843.878 C 563.316 843.878 497.526 836.666 431.136 822.617 C 440.466 791.955 458.436 762.797 486.386 735.857 C 534.056 744.038 581.436 747.878 633.946 747.878 Z M 818.996 962.606 C 890.606 968.842 959.396 991.123 1022.33 1012.23 C 1085.27 1033.34 1142.37 1053.26 1202.19 1057.13 C 1296.06 1065.6 1394.89 1044.46 1500.23 1041.38 C 1474.2 1051.47 1443.96 1059.15 1409.3 1063.88 C 1355.07 1071.28 1309.12 1103.27 1273.97 1153.49 C 1247.98 1154.57 1221.61 1154.6 1194.82 1152.85 C 1123.42 1146.63 1054.75 1124.35 991.816 1103.24 C 928.886 1082.14 871.676 1062.21 811.636 1058.33 C 740.736 1052.69 665.906 1053.37 592.676 1061.97 C 572.916 1057.41 550.826 1054.41 525.846 1052.96 C 480.016 1050.32 448.116 1034.85 431.956 996.615 C 556.546 963.068 697.376 953.526 818.996 962.606 Z" style="fill: rgba(0, 0, 0, 0.133); stroke-width: 1;"></path>
</svg>