<svg xmlns="http://www.w3.org/2000/svg" viewBox="0 0 2048 2048" width="2048px" height="2048px" xmlns:bx="https://boxy-svg.com">
  <defs>
    <linearGradient gradientUnits="userSpaceOnUse" x1="1024" y1="564.222" x2="1024" y2="2331.953" id="gradient-1">
      <stop offset="0" style="stop-color: rgb(35.294% 26.667% 15.686%)"></stop>
      <stop offset="1" style="stop-color: rgb(23.623% 16.025% 5.4658%)"></stop>
    </linearGradient>
    <bx:export>
      <bx:file format="png"></bx:file>
    </bx:export>
  </defs>
  <path style="stroke-width: 8px; paint-order: stroke; fill: url(#gradient-1);" d="M 765.797 2222.74 C 871.231 1791.91 903.951 1441.08 754.889 1192.03 C 703.733 1106.57 651.017 1060.21 525.844 1052.97 C 442.433 1048.14 405.168 1000.88 424.955 851.192 C 434.35 780.121 485.577 715.589 594.012 665.774 C 702.447 615.959 847.949 571.498 1003.02 564.885 C 1158.1 558.272 1304.43 602.808 1431.12 624.873 C 1545.86 644.857 1611.3 686.667 1627.44 859.372 C 1636.43 955.491 1570.98 1041.84 1409.3 1063.88 C 1298.33 1079.01 1221.98 1197.16 1202.07 1363.82 C 1167.86 1650.16 1202.4 1936.47 1305.69 2222.74 C 1356.91 2364.7 1116.96 2371.97 765.797 2222.74 Z"></path>
  <path d="M 927.576 1225.49 C 978.296 1243.18 1024.28 1271.82 1065.39 1297.61 C 1106.51 1323.39 1142.4 1346.37 1184.04 1357.85 C 1190.02 1359.72 1196.06 1361.43 1202.16 1363.02 C 1202.13 1363.29 1202.1 1363.55 1202.07 1363.82 C 1198.28 1395.48 1195.34 1427.14 1193.24 1458.81 C 1181.09 1456.26 1168.93 1453.32 1156.77 1449.89 C 1103.67 1433.31 1055.91 1404.98 1014.38 1378.92 C 972.856 1352.88 937.196 1329.12 897.216 1316.57 C 871.046 1306.73 841.616 1304.88 808.726 1307.07 C 797.376 1275.03 783.836 1244.3 767.926 1214.91 C 821.566 1209.59 878.946 1210.72 927.576 1225.49 Z M 1170.47 1936.38 C 1189.29 1939.55 1208.05 1941.97 1226.8 1943.79 C 1233.46 1976.34 1241.02 2008.88 1249.46 2041.42 C 1218.02 2039.44 1186.48 2036.14 1155 2031.13 C 1035.68 2010.62 929.486 1961.36 828.516 1921.32 C 833.896 1888.15 838.556 1855.61 842.436 1823.68 C 953.446 1866.47 1056.67 1918.92 1170.47 1936.38 Z M 855.686 1590.65 C 963.096 1594.52 1075.39 1583.27 1189.32 1585.57 C 1189.46 1617.22 1190.44 1648.88 1192.27 1680.54 C 1083.12 1677.22 969.246 1688.6 854.336 1685.26 C 855.836 1652.96 856.316 1621.42 855.686 1590.65 Z" style="fill: rgba(0, 0, 0, 0.133); stroke-width: 1;"></path>
</svg>