<?xml version="1.0" encoding="utf-8"?>
<svg viewBox="0 0 56 48" width="56px" height="48px" xmlns="http://www.w3.org/2000/svg" xmlns:bx="https://boxy-svg.com"><defs><bx:export><bx:file format="png" width="256" height="256"/><bx:file format="svg"/></bx:export><radialGradient gradientUnits="userSpaceOnUse" cx="56.893" cy="109.506" r="11.64" id="gradient-1" gradientTransform="matrix(2.409984, 2.409984, -2.409984, 2.409984, 149.412166, -385.008067)"><stop offset="0" style="stop-color: rgb(85, 85, 85);"/><stop offset="1" style="stop-color: rgb(34, 34, 34);"/></radialGradient><linearGradient gradientUnits="userSpaceOnUse" x1="32" y1="0" x2="32" y2="96" id="gradient-3" gradientTransform="matrix(0, -0.125043, 0.125043, 0, 115.262695, 16.995686)"><stop offset="0" style="stop-color: rgb(59, 59, 59);"/><stop offset="0.059" style="stop-color: rgb(66, 66, 66);"/><stop offset="0.138" style="stop-color: rgb(79, 79, 79);"/><stop offset="0.28" style="stop-color: rgb(105, 105, 105);"/><stop offset="0.416" style="stop-color: rgb(99, 99, 99);"/><stop offset="0.829" style="stop-color: rgb(63, 63, 63);"/><stop offset="1" style="stop-color: rgb(48, 48, 48);"/></linearGradient><linearGradient gradientUnits="userSpaceOnUse" x1="32" y1="87.347" x2="32" y2="104.652" id="gradient-2" gradientTransform="matrix(0.249816, 0, 0, 0.249816, 113.287254, 28.427353)"><stop offset="0" style="stop-color: rgb(255, 255, 255);"/><stop offset="1" style=""/></linearGradient><mask id="mask-0"><path style="stroke-linecap: round; stroke-linejoin: round; fill: url(&quot;#gradient-2&quot;);" d="M 109.643 64.881 C 117.219 67.265 125.343 67.265 132.919 64.881 C 132.995 57.39 130.384 50.861 126.712 49.364 L 115.85 49.364 C 112.178 50.861 109.567 57.39 109.643 64.881"/></mask></defs><path style="stroke: rgb(36, 36, 36); fill: url(&quot;#gradient-1&quot;); stroke-linecap: round; stroke-linejoin: round; stroke-width: 6px;" d="M 3.932 38.196 C 19.6 43.126 36.4 43.126 52.068 38.196 C 52.224 22.705 46.825 9.202 39.231 6.107 L 16.769 6.107 C 9.175 9.202 3.776 22.705 3.932 38.196"/><path style="stroke-linecap: round; stroke-linejoin: round; fill: url(&quot;#gradient-1&quot;);" d="M 3.932 38.196 C 19.6 43.126 36.4 43.126 52.068 38.196 C 52.224 22.705 46.825 9.202 39.231 6.107 L 16.769 6.107 C 9.175 9.202 3.776 22.705 3.932 38.196"/><g transform="matrix(2.068048, 0, 0, 2.067986, -222.814911, -95.977303)" style=""><path style="stroke-linecap: round; stroke-linejoin: round; fill: url(&quot;#gradient-3&quot;); mask: url(&quot;#mask-0&quot;);" d="M 109.643 64.881 C 117.219 67.265 125.343 67.265 132.919 64.881 C 132.995 57.39 130.384 50.861 126.712 49.364 L 115.85 49.364 C 112.178 50.861 109.567 57.39 109.643 64.881"/></g></svg>