<?xml version="1.0" encoding="utf-8"?>
<svg viewBox="0 0 56 48" width="56px" height="48px" xmlns="http://www.w3.org/2000/svg" xmlns:bx="https://boxy-svg.com"><defs><bx:export><bx:file format="png" width="256" height="256"/><bx:file format="svg"/></bx:export><radialGradient gradientUnits="userSpaceOnUse" cx="56.893" cy="109.506" r="11.64" id="gradient-1" gradientTransform="matrix(2.409984, 2.409984, -2.409984, 2.409984, 149.412499, -385.008314)"><stop offset="0" style="stop-color: rgb(85, 85, 85);"/><stop offset="1" style="stop-color: rgb(34, 34, 34);"/></radialGradient><linearGradient gradientUnits="userSpaceOnUse" x1="32" y1="0" x2="32" y2="96" id="gradient-3" gradientTransform="matrix(0, -0.258587, 0.258595, 0, 15.554044, -60.830592)"><stop offset="0" style="stop-color: rgb(59, 59, 59);"/><stop offset="0.059" style="stop-color: rgb(66, 66, 66);"/><stop offset="0.138" style="stop-color: rgb(79, 79, 79);"/><stop offset="0.28" style="stop-color: rgb(105, 105, 105);"/><stop offset="0.416" style="stop-color: rgb(99, 99, 99);"/><stop offset="0.829" style="stop-color: rgb(63, 63, 63);"/><stop offset="1" style="stop-color: rgb(48, 48, 48);"/></linearGradient><linearGradient gradientUnits="userSpaceOnUse" x1="32" y1="87.347" x2="32" y2="104.652" id="gradient-2" gradientTransform="matrix(0.516632, 0, 0, 0.516616, 11.468516, -37.189699)"><stop offset="0" style="stop-color: rgb(255, 255, 255);"/><stop offset="1" style=""/></linearGradient><mask id="mask-0"><path style="stroke-linecap: round; stroke-linejoin: round; fill: url(&quot;#gradient-2&quot;);" d="M 3.932 35.196 C 19.6 40.126 36.4 40.126 52.068 35.196 C 52.224 19.705 46.825 9.202 39.231 6.107 L 16.769 6.107 C 9.175 9.202 3.776 19.705 3.932 35.196"/></mask></defs><path style="stroke: rgb(36, 36, 36); fill: url(&quot;#gradient-1&quot;); stroke-linecap: round; stroke-linejoin: round; stroke-width: 6px;" d="M 3.932 35.196 C 19.6 40.126 36.4 40.126 52.068 35.196 C 52.224 19.705 46.825 9.202 39.231 6.107 L 16.769 6.107 C 9.175 9.202 3.776 19.705 3.932 35.196"/><path style="paint-order: stroke; stroke-width: 6px; fill: none; stroke: rgb(36, 36, 36);" d="M 3.929 35.018 C 3.929 43.042 52.071 43.042 52.071 35.018 C 52.071 26.994 3.929 26.994 3.929 35.018 Z"/><path style="stroke-linecap: round; stroke-linejoin: round; fill: url(&quot;#gradient-1&quot;);" d="M 3.932 35.196 C 19.6 40.126 36.4 40.126 52.068 35.196 C 52.224 19.705 46.825 9.202 39.231 6.107 L 16.769 6.107 C 9.175 9.202 3.776 19.705 3.932 35.196"/><path style="stroke-linecap: round; stroke-linejoin: round; fill: url(&quot;#gradient-3&quot;); mask: url(&quot;#mask-0&quot;);" d="M 3.932 35.196 C 19.6 40.126 36.4 40.126 52.068 35.196 C 52.224 19.705 46.825 9.202 39.231 6.107 L 16.769 6.107 C 9.175 9.202 3.776 19.705 3.932 35.196"/><path style="paint-order: stroke; stroke-width: 3px; stroke: url(&quot;#gradient-1&quot;);" d="M 3.929 35.018 C 3.929 43.042 52.071 43.042 52.071 35.018 C 52.071 26.994 3.929 26.994 3.929 35.018 Z"/></svg>