<svg xmlns="http://www.w3.org/2000/svg" viewBox="0 0 2048 2048" width="2048" height="2048" xmlns:bx="https://boxy-svg.com">
  <defs>
    <linearGradient x1="0" x2="0" y1="0" y2="1" id="gradient-1">
      <stop offset="0" style="stop-color: rgb(156, 121, 69);"></stop>
      <stop offset="1" style="stop-color: rgb(76, 58, 28);"></stop>
    </linearGradient>
    <linearGradient gradientUnits="userSpaceOnUse" x1="1120.609" y1="1142.69" x2="1120.609" y2="2505.912" id="gradient-0" gradientTransform="matrix(1, 0, 0, 1, -284.243084, -205.476925)">
      <stop offset="0" style="stop-color: rgb(141, 115, 75);"></stop>
      <stop offset="1" style="stop-color: rgb(59, 43, 15);"></stop>
    </linearGradient>
    <linearGradient x1="0" x2="0" y1="0" y2="1" id="gradient-3" gradientTransform="matrix(0.977382, 0.227842, -0.196539, 0.978588, 0.196539, 0.021412)">
      <stop offset="0" style="stop-color: rgb(143, 113, 67);"></stop>
      <stop offset="1" style="stop-color: rgb(81, 62, 29);"></stop>
    </linearGradient>
    <linearGradient x1="0" x2="0" y1="0" y2="1" id="gradient-4" gradientTransform="matrix(0.983728, 0.192664, -0.175389, 0.987326, 0.175389, 0.012674)">
      <stop offset="0" style="stop-color: rgb(111, 89, 55);"></stop>
      <stop offset="1" style="stop-color: rgb(79, 59, 25);"></stop>
    </linearGradient>
    <bx:export>
      <bx:file format="png"></bx:file>
    </bx:export>
    <linearGradient gradientUnits="userSpaceOnUse" x1="550.567" y1="1299.734" x2="550.567" y2="1933.449" id="gradient-2" gradientTransform="matrix(0.979142, 0, 0, 0.979142, 11.483975, 40.32875)">
      <stop offset="0" style="stop-color: rgb(46.667% 79.608% 23.922%)"></stop>
      <stop offset="1" style="stop-color: rgb(97, 176, 42);"></stop>
    </linearGradient>
    <linearGradient gradientUnits="userSpaceOnUse" x1="550.567" y1="1299.734" x2="550.567" y2="1933.449" id="gradient-5">
      <stop offset="0" style="stop-color: rgb(41.961% 75.686% 19.216%)"></stop>
      <stop offset="1" style="stop-color: rgb(80, 156, 29);"></stop>
    </linearGradient>
    <linearGradient gradientUnits="userSpaceOnUse" x1="842.01" y1="687.003" x2="842.01" y2="1176.269" id="gradient-6">
      <stop offset="0" style="stop-color: rgb(41.961% 75.686% 19.216%)"></stop>
      <stop offset="1" style="stop-color: rgb(80, 156, 29);"></stop>
    </linearGradient>
    <linearGradient gradientUnits="userSpaceOnUse" x1="842.01" y1="687.003" x2="842.01" y2="1176.269" id="gradient-7">
      <stop offset="0" style="stop-color: rgb(46.667% 79.608% 23.922%)"></stop>
      <stop offset="1" style="stop-color: rgb(97, 176, 42);"></stop>
    </linearGradient>
    <linearGradient x1="0" x2="0" y1="0" y2="1" id="gradient-8">
      <stop offset="0" style="stop-color: rgb(110, 196, 51);"></stop>
      <stop offset="1" style="stop-color: rgb(87, 166, 32);"></stop>
    </linearGradient>
    <linearGradient x1="0" x2="0" y1="0" y2="1" id="gradient-9">
      <stop offset="0" style="stop-color: rgb(96, 181, 39);"></stop>
      <stop offset="1" style="stop-color: rgb(72, 141, 25);"></stop>
    </linearGradient>
    <linearGradient x1="0" x2="0" y1="0" y2="1" id="gradient-12" gradientTransform="matrix(0.794738, 0.525144, -0.795425, 0.901141, 0.795425, 0.098859)">
      <stop offset="0" style="stop-color: rgb(193, 193, 193);"></stop>
      <stop offset="1" style="stop-color: rgb(85, 85, 85);"></stop>
    </linearGradient>
    <linearGradient x1="0" x2="0" y1="0" y2="1" id="gradient-13" gradientTransform="matrix(0.814204, 0.502325, -0.711927, 0.871273, 0.79103, 0.041275)">
      <stop offset="0" style="stop-color: rgb(152, 152, 152);"></stop>
      <stop offset="1" style="stop-color: rgb(60, 60, 60);"></stop>
    </linearGradient>
  </defs>
  <polyline style="fill: url(#gradient-12); stroke: url(#gradient-13); paint-order: stroke; stroke-width: 60px;" points="1292.625 1232.434 1522.29 1331.244 1642.464 1176.269 1589.053 1066.862 1727.921 1017.125 1698.545 847.492 1826.73 818.503 1869.459 915.286 1850.765 1017.125 1759.967 1132.199 1792.014 1246.679 1687.863 1520.851 1261.777 1376.643"></polyline>
  <path style="fill: url(#gradient-1); stroke-width: 96px; paint-order: stroke; stroke-linejoin: round; stroke: url(#gradient-0);" d="M 226.786 968.032 C 407.149 1261.4 503.039 1639.26 514.454 2101.59 C 520.797 2358.47 777.647 2366.47 1285.01 2125.55 C 1162.09 1817.12 1215.73 1420.99 1445.95 937.212 L 226.786 968.032 Z"></path>
  <path fill="rgb(255,0,0)" stroke="rgb(255,0,0)" stroke-width="0" opacity="0.9882352941176471" d="M 538.104 1134.87 C 559.822 1131.07 635.106 1130.8 668.96 1137.54 C 694.582 1142.64 717.11 1148.58 729.046 1162.91 C 740.487 1176.65 730.507 1203.28 741.064 1220.33 C 752.882 1239.41 788.475 1254.36 801.151 1269.73 C 810.447 1281 813.25 1286.17 817.174 1301.78 C 823.315 1326.21 830.196 1388.78 825.185 1411.27 C 822.174 1424.79 817.914 1430.94 807.827 1436.64 C 794.252 1444.31 765.449 1446.6 743.734 1444.65 C 720.975 1442.61 694.329 1424.67 674.301 1423.29 C 657.991 1422.15 643.394 1433.61 631.572 1431.3 C 621.281 1429.29 611.965 1424.68 606.202 1413.94 C 597.788 1398.25 612.219 1354.59 598.191 1335.16 C 583.334 1314.59 529.537 1310.1 515.404 1296.44 C 506.505 1287.83 506.942 1282.97 504.722 1269.73 C 501.046 1247.8 498.964 1189.62 504.722 1168.25 C 508.293 1155 515.828 1148.49 522.081 1142.88 C 527.119 1138.36 528.301 1136.58 538.104 1134.87 Z M 622.225 1233.68 C 622.144 1233.6 626.131 1237.58 627.566 1239.02 C 628.655 1240.11 630.37 1241.82 630.237 1241.69 C 630.03 1241.48 622.321 1233.77 622.225 1233.68 Z" style="fill: rgb(0, 0, 0); fill-opacity: 0.6; fill-rule: nonzero; stroke: none; stroke-dasharray: none; stroke-dashoffset: 0px; stroke-linecap: butt; stroke-linejoin: miter; stroke-miterlimit: 4; stroke-opacity: 1; stroke-width: 96px; paint-order: stroke; vector-effect: none; opacity: 1; mix-blend-mode: normal; isolation: auto;"></path>
  <path d="M 714.689 689.534 C 796.487 685.614 900.867 686.109 968.107 691.995 C 1019.13 696.459 1047.37 703.768 1091.39 714.136 C 1141.29 725.883 1200.13 740.462 1252.36 760.882 C 1306.99 782.241 1374.34 814.343 1411.61 840.843 C 1440.57 861.433 1460.4 880.743 1469.82 902.343 C 1478.67 922.693 1476.16 945.132 1469.82 966.312 C 1463.14 988.612 1447.85 1011.53 1428.72 1032.74 C 1408.16 1055.56 1375.02 1083.18 1348.24 1097.93 C 1326.52 1109.91 1315.26 1112.11 1283.17 1120.09 C 1230.33 1133.22 1140.29 1155.18 1040.03 1164.37 C 908.627 1176.4 660.968 1180.13 546.878 1171.74 C 473.648 1166.38 432.898 1154.94 389.345 1142.22 C 352.781 1131.55 325.531 1122.72 298.593 1104.1 C 268.091 1082.98 234.713 1049.74 219.826 1017.98 C 204.768 985.842 208.716 936.882 209.552 912.183 C 210.088 896.373 210 889.583 216.402 877.743 C 223.892 863.893 231.336 852.263 255.785 834.693 C 298.198 804.203 405.382 738.041 485.234 714.136 C 558.854 692.098 635.718 693.318 714.689 689.534 Z" style="stroke-width: 96px; paint-order: stroke; stroke: url(#gradient-6); fill: url(#gradient-7);"></path>
  <path d="M 666.712 1963.16 C 816.512 1992.09 967.832 2060.46 1089.56 2076.08 C 1166.37 2086.67 1244.25 2090.83 1323.49 2091.91 C 1325.52 2097.21 1327.6 2102.52 1329.73 2107.79 C 1339.11 2131.31 1328.6 2158.06 1305.73 2168.92 C 1293.04 2174.92 1280.49 2180.79 1268.06 2186.5 C 1203.82 2184.33 1139.63 2179.71 1076.59 2171.21 C 941.832 2151.87 787.662 2084.29 648.502 2057.42 C 579.992 2044.18 521.432 2040.76 465.152 2055.75 C 463.932 2022.8 462.262 1990.36 460.142 1958.4 C 526.042 1945.09 598.802 1950.05 666.712 1963.16 Z M 449.512 1722.91 C 536.822 1722.91 617.542 1748.4 689.492 1774.33 C 761.462 1800.26 826.262 1827.36 894.652 1836.41 C 1001.25 1853.35 1115.1 1824.32 1230.92 1808.93 C 1243.51 1807.3 1256.17 1805.81 1268.88 1804.42 C 1269.75 1837.17 1272.15 1869.07 1276.09 1900.17 C 1265.1 1901.39 1254.22 1902.68 1243.44 1904.12 C 1132.61 1918.57 1005.7 1947.52 881.072 1931.44 C 801.412 1919.35 727.112 1889.92 656.952 1864.65 C 586.772 1839.36 522.342 1818.91 449.512 1818.91 C 448.932 1818.91 448.342 1818.91 447.752 1818.92 C 444.117 1786.6 439.98 1754.79 435.343 1723.47 C 440.275 1723.11 445.017 1722.91 449.512 1722.91 Z M 434.551 1483.14 C 568.992 1483.69 712.782 1528.56 819.462 1560.56 C 892.872 1585.43 1017.76 1558.54 1110.47 1558.54 C 1169.78 1558.54 1228.57 1560.5 1286.78 1563.23 C 1284.57 1576.77 1282.56 1590.22 1280.75 1603.59 C 1278.23 1622.23 1276.09 1640.63 1274.34 1658.75 C 1219.86 1656.27 1165.4 1654.54 1110.47 1654.54 C 1026.87 1654.54 888.182 1678.54 791.882 1652.5 C 684.672 1620.35 554.472 1579.64 434.153 1579.14 C 425.849 1579.11 417.735 1579.23 409.792 1579.56 C 403.11 1547.48 395.847 1515.95 388.002 1484.94 C 403.641 1483.66 419.224 1483.08 434.551 1483.14 Z M 542.252 1262.09 C 634.712 1279.35 723.722 1306.38 808.232 1323.16 C 954.022 1352.42 1099.51 1368.39 1247.2 1356.62 C 1279.58 1354.98 1309.91 1345.67 1341.31 1332.39 C 1329.97 1369.66 1319.98 1406.26 1311.32 1442.21 C 1292.74 1446.94 1273.77 1450.47 1254.56 1452.34 C 1098.05 1463.96 939.472 1447.21 789.402 1417.31 C 700.412 1399.39 611.952 1372.75 524.632 1356.45 C 463.212 1344.98 405.008 1338.02 346.717 1342.65 C 336.366 1311.3 325.367 1280.69 313.698 1250.8 C 391.712 1241.75 469.692 1248.54 542.252 1262.09 Z" style="fill: rgba(0, 0, 0, 0.133);"></path>
  <path style="fill: url(#gradient-3); stroke: url(#gradient-4); stroke-linejoin: round; stroke-width: 96px; paint-order: stroke;" d="M 98.959 1577.183 C 159.69 1843.487 138.632 2004.876 82.335 2300.437 C 44.202 2500.638 248.002 2500.638 693.737 2300.437 C 870.197 2221.18 978.551 2060.932 1018.798 1819.694"></path>
  <path stroke-width="0" opacity="0.9764705882352941" d="M 175.341 1300.69 C 199.061 1297.81 224.478 1301.43 252.141 1311.66 C 286.195 1324.25 335.754 1347.6 363.683 1379.31 C 392.273 1411.77 381.549 1468.28 420.368 1505.48 C 472.888 1555.82 607.032 1602.21 687.337 1629.83 C 754.333 1652.86 816.068 1648.34 870.192 1670.05 C 920.611 1690.28 984.262 1734.49 1003.68 1752.34 C 1012.42 1760.37 1012.31 1760.72 1014.65 1770.62 C 1018.75 1788.07 1021.45 1835.1 1014.65 1858.39 C 1008.99 1877.75 996.873 1892.8 983.563 1904.11 C 970.538 1915.18 962.956 1921.18 936.02 1926.05 C 882.414 1935.74 744.386 1936.09 643.451 1926.05 C 536.36 1915.4 446.86 1894.443 320.736 1823.251 C 239.82 1777.577 103.937 1616.06 93.056 1558.51 C 82.499 1502.67 79.102 1431.26 85.742 1390.29 C 90.406 1361.5 98.05 1341.24 113.17 1326.29 C 128.081 1311.54 152.941 1303.4 175.341 1300.69 Z" style="fill-opacity: 1; fill-rule: nonzero; stroke-dasharray: none; stroke-dashoffset: 0px; stroke-linecap: butt; stroke-linejoin: miter; stroke-miterlimit: 4; stroke-opacity: 1; stroke-width: 96px; paint-order: stroke; vector-effect: none; opacity: 1; mix-blend-mode: normal; isolation: auto; fill: url(#gradient-2); stroke: url(#gradient-5);"></path>
  <path d="M 186.503 1888.93 C 235.532 1914.8 278.656 1956.07 316.916 1990.58 C 336.04 2007.83 353.365 2022.68 372.123 2035.29 C 390.758 2047.83 405.312 2055.88 424.465 2060.05 C 505.578 2082.76 593.795 2062.22 691.918 2044 C 740.983 2034.89 792.812 2025.79 843.312 2023.29 C 894.002 2020.77 949.612 2026.14 1000.01 2043.09 C 1001.14 2043.52 1002.27 2043.95 1003.39 2044.39 C 990.002 2075.05 975.002 2103.77 958.462 2130.26 C 923.422 2118.89 888.752 2117.15 848.072 2119.17 C 803.512 2121.38 758.046 2129.36 709.44 2138.39 C 612.222 2156.44 503.599 2176.35 401.181 2153.18 C 371.964 2145.26 342.065 2130.77 318.552 2114.96 C 295.161 2099.23 272.643 2079.93 252.617 2061.87 C 212.578 2025.75 180.178 1991.73 143.569 1974.79 C 131.202 1968.5 109.989 1960.12 85.15 1953.02 C 85.733 1943.91 86.219 1934.84 86.604 1925.79 C 87.624 1901.84 87.947 1878.43 87.502 1854.92 C 129.534 1865.12 167.545 1879.58 186.503 1888.93 Z" style="fill: rgba(0, 0, 0, 0.133);"></path>
  <path d="M 330.049 702.963 C 348.706 640.375 376.038 581.011 409.612 532.305 C 443.331 483.389 487.912 439.061 536.395 404.723 C 595.654 363.425 652.967 329.99 704.515 307.059 C 756.824 283.789 809.55 268.904 854.816 264.989 C 901.262 260.972 950.333 268.566 988.653 286.116 C 1026.974 303.665 1064.225 336.259 1092.08 373.648 C 1135.03 433.209 1169.785 489.423 1193.909 538.906 C 1218.454 589.253 1234.628 639.056 1239.358 680.383 C 1241.805 701.762 1241.428 725.497 1238.197 744.664 C 1234.893 764.266 1227.09 786.548 1217.599 803.213 C 1212.514 812.14 1205.797 821.473 1198.323 830.189 C 1108.865 885.968 1104.213 790.146 1115.732 777.521 C 1123.663 768.828 1128.962 764.864 1134.179 755.704 C 1139.396 746.544 1141.576 740.311 1143.532 728.707 C 1145.562 716.668 1145.721 706.507 1143.98 691.3 C 1140.336 659.455 1129.239 625.324 1107.618 580.975 C 1085.576 535.764 1055.269 486.521 1014.262 429.864 C 994.185 400.904 975.1 385.497 948.681 373.398 C 922.262 361.299 898.189 357.596 863.088 360.632 C 826.805 363.77 789.58 374.288 743.534 394.772 C 696.726 415.594 647.28 444.264 591.375 483.421 C 549.449 512.245 517.528 544.9 488.653 586.789 C 459.634 628.887 438.281 674.148 422.161 730.008 C 418.988 739.323 419.013 743.24 419.885 751.273 C 420.748 759.23 421.005 762.883 426.331 770.447 C 450.868 805.294 395.301 891.61 342.701 817.584 C 331.94 802.439 326.385 779.513 324.445 761.627 C 322.512 743.817 325.164 721.091 330.049 702.963 Z" style="fill: url(#gradient-9);"></path>
  <path style="fill: url(#gradient-8); stroke-width: 96px; paint-order: stroke;" d="M 458.093 861.949 C 683.782 939.53 898.892 932.477 1103.422 840.791 C 1237.835 780.537 1221.085 634.192 1053.171 401.756 C 957.307 269.056 794.212 283.162 563.885 444.072 C 473.475 507.234 410.882 598.038 376.105 716.486 C 359.99 771.371 387.32 819.859 458.093 861.949 Z"></path>
  <path stroke="rgb(255,0,0)" stroke-width="0" opacity="0.9764705882352941" d="M 548.586 1018.75 C 566.243 1015.9 620.793 1016.29 644.181 1024.06 C 661.857 1029.93 674.877 1038.96 682.685 1051.94 C 690.882 1065.57 693.481 1091.33 690.651 1105.05 C 688.392 1116 679.608 1124.7 673.391 1130.27 C 668.381 1134.77 667.054 1136.43 657.458 1138.24 C 636.732 1142.16 559.461 1144.6 535.309 1138.24 C 521.432 1134.59 515.665 1129.97 510.083 1120.98 C 503.518 1110.41 499.084 1090.83 502.116 1075.84 C 505.444 1059.39 523.504 1035.63 532.654 1026.71 C 538.366 1021.15 539.575 1020.2 548.586 1018.75 Z" style="fill-rule: nonzero; stroke: none; stroke-dasharray: none; stroke-dashoffset: 0px; stroke-linecap: butt; stroke-linejoin: miter; stroke-miterlimit: 4; stroke-opacity: 1; stroke-width: 96px; paint-order: stroke; vector-effect: none; opacity: 1; mix-blend-mode: normal; isolation: auto; fill: rgb(78, 62, 34);"></path>
  <path fill="rgb(255,0,0)" stroke="rgb(255,0,0)" stroke-width="0" opacity="0.9686274509803922" d="M 1275.34 1040.67 C 1277.81 1039.66 1281.92 1039.66 1284.4 1040.67 C 1286.73 1041.62 1288.42 1042.04 1289.93 1046.2 C 1293.56 1056.23 1299.91 1106.21 1294.96 1116.63 C 1292.32 1122.19 1284.9 1122.61 1281.38 1122.16 C 1278.54 1121.81 1276.58 1120.96 1274.84 1116.63 C 1270.79 1106.57 1267.16 1056.23 1269.81 1046.2 C 1270.91 1042.04 1273.01 1041.62 1275.34 1040.67 Z M 1356.84 1033.62 C 1359.31 1032.62 1363.42 1032.62 1365.89 1033.62 C 1368.22 1034.57 1369.58 1034.92 1371.42 1039.16 C 1376.09 1049.82 1389.8 1105.51 1385.51 1116.63 C 1383.32 1122.31 1375.45 1122.61 1371.93 1122.16 C 1369.09 1121.81 1367.5 1121.04 1365.39 1116.63 C 1360.27 1105.93 1349.31 1049.82 1351.3 1039.16 C 1352.09 1034.92 1354.5 1034.57 1356.84 1033.62 Z" style="fill: rgb(123, 89, 36); fill-opacity: 1; fill-rule: nonzero; stroke: none; stroke-dasharray: none; stroke-dashoffset: 0px; stroke-linecap: butt; stroke-linejoin: miter; stroke-miterlimit: 4; stroke-opacity: 1; stroke-width: 96px; paint-order: stroke; vector-effect: none; opacity: 1; mix-blend-mode: normal; isolation: auto; transform-box: fill-box; transform-origin: 50% 50%;" transform="matrix(0.983457, -0.181139, 0.181139, 0.983457, -0.000004, 0.000005)"></path>
  <path opacity="0.984313725490196" d="M 882.482 754.292 C 904.045 747.951 935.813 747.624 955.879 754.292 C 973.437 760.125 989.624 770.268 998.449 787.104 C 1008.88 806.997 1012.04 850.483 1007.26 871.482 C 1003.56 887.728 995.81 895.031 982.301 907.422 C 962.791 925.315 913.576 956.473 891.289 963.673 C 877.395 968.162 867.33 965.257 858.994 963.673 C 852.73 962.484 851.261 958.423 844.315 957.422 C 833.569 955.874 814.106 963.908 797.34 960.548 C 777.803 956.632 746.161 942.166 734.219 930.861 C 726.104 923.177 724.762 917.189 722.475 905.858 C 719.256 889.916 717.253 857.852 722.475 840.232 C 726.953 825.122 733.718 812.81 747.429 804.292 C 765.483 793.081 806.234 797.958 829.635 788.668 C 850.4 780.424 862.333 760.214 882.482 754.292 Z" style="fill-rule: nonzero; stroke-dasharray: none; stroke-dashoffset: 0px; stroke-linecap: butt; stroke-linejoin: miter; stroke-miterlimit: 4; stroke-opacity: 1; paint-order: stroke; vector-effect: none; opacity: 1; mix-blend-mode: normal; isolation: auto; fill: rgb(52, 117, 27); transform-box: fill-box; transform-origin: 50% 50%; stroke-width: 24px; stroke: rgb(33, 82, 14);" transform="matrix(0.995746, 0.092137, -0.092137, 0.995746, 0.000001, 0.000001)"></path>
  <path style="paint-order: stroke; fill: rgb(225, 91, 91); stroke: rgb(193, 49, 49); stroke-width: 32px; transform-box: fill-box; transform-origin: 50% 50%;" d="M 1242.82 985.212 C 1223.92 985.212 1226.52 996.318 1226.17 1014.09 C 1225.95 1023.64 1233.73 1029.19 1249.48 1030.75 C 1268.42 1032.62 1286.93 1037.06 1305 1044.07 C 1316.16 1048.4 1314.98 1062.5 1312.71 1080.39 C 1309.71 1104.12 1332.3 1087.74 1379.72 1046.24 C 1389.48 1037.71 1394.36 1029.25 1383.86 1011.87 C 1371.21 990.942 1366.51 975.82 1351.02 956.763 C 1341.57 945.143 1346.65 968.147 1319.48 991.68 C 1305.19 1004.07 1261.71 985.212 1242.82 985.212 Z" transform="matrix(0.901874, -0.431999, 0.431999, 0.901874, 0.000023, 0.000032)"></path>
  <path opacity="0.984313725490196" d="M 979.718 1639.72 C 996.114 1651.3 1018.93 1673.95 1032.32 1692.52 C 1044.03 1708.76 1054.13 1726.69 1057.94 1743.46 C 1062.46 1763.29 1058.25 1792.5 1051.7 1802.07 C 1046.63 1809.46 1039.99 1808.42 1028.47 1806.38 C 1011.82 1803.43 971.917 1787.32 954.874 1775.75 C 944.249 1768.54 937.469 1759.5 931.73 1752.51 C 927.417 1747.27 926.969 1743.69 922.14 1738.08 C 914.67 1729.4 899.527 1720.37 888.011 1706.22 C 874.592 1689.76 854.069 1658.02 847.194 1642.44 C 842.521 1631.83 842.451 1627.15 842.497 1618.5 C 842.563 1606.31 845.898 1585 852.262 1577.84 C 857.719 1571.7 864.401 1568.94 875.492 1573.53 C 890.101 1579.58 918.578 1611.91 936.731 1622.99 C 952.838 1632.82 964.398 1628.89 979.718 1639.72 Z" style="fill-rule: nonzero; stroke-dasharray: none; stroke-dashoffset: 0px; stroke-linecap: butt; stroke-linejoin: miter; stroke-miterlimit: 4; stroke-opacity: 1; paint-order: stroke; vector-effect: none; opacity: 1; mix-blend-mode: normal; isolation: auto; fill: rgb(63, 137, 34); stroke-width: 24px; stroke: rgb(50, 116, 24); transform-origin: 951.333px 1690.75px;"></path>
  <path fill="rgb(255,0,0)" opacity="0.9137254901960784" d="M 228.508 741.945 C 234.793 740.701 248.403 743.016 257.074 750.347 C 268.68 760.157 278.069 780.11 287.322 804.12 C 300.11 837.305 328.432 919.465 320.93 938.552 C 316.874 948.87 302.361 954.471 292.363 946.954 C 270.544 930.55 219.208 772.833 220.106 750.347 C 220.39 743.211 224.155 742.806 228.508 741.945 Z" style="fill: rgb(123, 89, 36); fill-opacity: 1; fill-rule: nonzero; stroke-dasharray: none; stroke-dashoffset: 0px; stroke-linecap: butt; stroke-linejoin: miter; stroke-miterlimit: 4; stroke-opacity: 1; paint-order: stroke; vector-effect: none; opacity: 1; mix-blend-mode: normal; isolation: auto; stroke-width: 24px;"></path>
  <path opacity="0.9725490196078431" d="M 223.616 570.363 C 258.067 565.442 302.73 564.779 327.801 570.363 C 345.494 574.303 359.289 584.091 366.45 590.527 C 370.937 594.56 370.738 596.962 373.171 602.29 C 376.689 609.992 378.257 627.215 384.934 634.218 C 391.035 640.616 404.514 635.745 410.14 644.3 C 418.477 656.979 421.15 698.322 416.862 716.558 C 413.527 730.737 405 741.482 395.017 748.485 C 384.905 755.579 366.024 751.9 356.367 758.568 C 347.461 764.717 348.902 779.907 337.883 785.454 C 322.592 793.151 280.061 791.72 263.945 788.815 C 253.928 787.009 251.382 776.029 243.78 778.733 C 231.51 783.097 220.838 828.316 200.09 839.227 C 177.984 850.853 131.853 848.507 112.709 842.588 C 99.689 838.562 92.191 829.477 87.503 820.743 C 83.084 812.511 88.087 799.011 84.142 792.176 C 80.696 786.205 73.216 788.218 67.338 780.413 C 56.993 766.677 38.416 723.86 33.73 703.114 C 30.36 688.195 31.939 675.355 33.73 666.146 C 35.029 659.468 34.707 654.929 40.452 651.022 C 49.939 644.568 84.323 650.272 97.585 640.94 C 109.658 632.444 104.961 611.441 119.431 600.61 C 139.848 585.326 188.602 575.363 223.616 570.363 Z" style="fill-opacity: 1; fill-rule: nonzero; stroke-dasharray: none; stroke-dashoffset: 0px; stroke-linecap: butt; stroke-linejoin: miter; stroke-miterlimit: 4; stroke-opacity: 1; paint-order: stroke; vector-effect: none; opacity: 1; mix-blend-mode: normal; isolation: auto; stroke-width: 24px; fill: rgb(44, 106, 21); stroke: rgb(32, 78, 15);"></path>
</svg>