<svg xmlns="http://www.w3.org/2000/svg" viewBox="0 0 1024 512">
  <defs>
    <radialGradient gradientUnits="userSpaceOnUse" cx="296.242" cy="-363.986" r="762.73" id="gradient-1" gradientTransform="matrix(0, 1.058283, -1.058283, 0, 130.979416, -853.804043)">
      <stop offset="0" style="stop-color: rgb(53.333% 53.333% 53.333%)"></stop>
      <stop offset="0.766" style="stop-color: rgb(243, 243, 243);"></stop>
      <stop offset="1" style="stop-color: rgb(31.366% 31.366% 31.366%)"></stop>
    </radialGradient>
    <linearGradient gradientUnits="userSpaceOnUse" x1="512" y1="36.978" x2="512" y2="609.021" id="gradient-0">
      <stop offset="0" style="stop-color: rgb(88, 88, 88);"></stop>
      <stop offset="1" style="stop-color: rgb(16, 16, 16);"></stop>
    </linearGradient>
  </defs>
  <path d="M -250.73 75.114 C 130.633 75.114 130.633 265.795 511.998 265.795 C 893.361 265.795 893.361 75.114 1274.73 75.114 L 1274.73 36.978 C 893.361 36.978 893.361 151.387 511.998 151.387 C 130.633 151.387 130.633 36.978 -250.73 36.978 L -250.73 75.114 Z" style="fill: url(#gradient-1);"></path>
  <path d="M -250.73 36.978 C 130.638 36.978 130.638 227.659 511.999 227.659 C 893.363 227.659 893.363 36.978 1274.73 36.978 L 1274.73 609.021 L -250.73 609.021 L -250.73 36.978 Z" style="stroke-width: 96px; paint-order: stroke; fill: url(#gradient-0);"></path>
  <path style="fill: none; stroke: rgba(255, 255, 255, 0.067); stroke-width: 96px;" d="M -339.233 419.859 C -305.746 408.697 -273.133 383.858 -237.974 370.185 C -189.563 351.358 -134.696 347.119 -83.218 351.079 C -21.269 355.845 35.736 395.378 92.553 416.038 C 177.149 446.8 268.427 479.087 360.031 479.087 C 386.931 479.087 419.656 484.357 446.006 479.087 C 498.601 468.568 543.547 440.033 593.119 421.77 C 615.48 413.532 640.777 410.546 663.81 404.575 C 766.051 378.068 866.424 353.192 971.41 341.526 C 1028.337 335.201 1086.814 362.163 1139.539 379.738 C 1199.482 399.719 1264.701 409.886 1326.774 423.681"></path>
</svg>