<svg xmlns="http://www.w3.org/2000/svg" viewBox="0 0 512 512" width="512px" height="512px">
  <defs>
    <linearGradient gradientUnits="userSpaceOnUse" x1="215.635" y1="111.815" x2="215.635" y2="481.475" id="gradient-0">
      <stop offset="0" style="stop-color: rgb(106, 106, 106);"></stop>
      <stop offset="1" style="stop-color: rgb(40, 40, 40);"></stop>
    </linearGradient>
    <radialGradient gradientUnits="userSpaceOnUse" cx="400.212" cy="147.176" r="43.725" id="gradient-1" gradientTransform="matrix(1.679895, 0, 0, 1.679895, -272.193933, -92.518898)">
      <stop offset="0" style="stop-color: rgb(143, 143, 143);"></stop>
      <stop offset="1" style="stop-color: rgb(213, 213, 213);"></stop>
    </radialGradient>
  </defs>
  <path d="M 0 419.865 L 0 481.475 C 61.61 481.475 431.271 173.425 431.271 111.815 L 369.661 111.815 C 431.271 173.425 61.61 481.475 0 419.865 Z" style="fill: url(#gradient-0);"></path>
  <path stroke-width="0" opacity="0.984313725490196" d="M 357.763 97.04 C 373.169 90.543 429.495 92.051 446.273 104.146 C 463.051 116.241 452.12 143.014 429.883 133.802 C 407.646 124.59 401.687 118.262 370.947 130.995 C 340.206 143.728 342.358 103.537 357.763 97.04 Z" style="fill-opacity: 1; fill-rule: nonzero; stroke-dasharray: none; stroke-dashoffset: 0px; stroke-linecap: butt; stroke-linejoin: miter; stroke-miterlimit: 4; stroke-opacity: 1; stroke-width: 1px; paint-order: normal; vector-effect: none; opacity: 1; mix-blend-mode: normal; isolation: auto; fill: url(#gradient-1);"></path>
  <path d="M 182.56 358.761 C 184.171 359.609 185.813 360.506 187.467 361.444 C 173.214 372.835 159.094 383.835 145.347 394.247 C 139.118 391.611 132.815 389.26 126.593 387.082 C 142.337 377.556 158.636 366.725 175.017 354.985 C 177.557 356.197 180.078 357.455 182.56 358.761 Z M 324.36 223.948 C 327.931 226.477 331.555 229.367 335.161 232.535 C 324.02 243.281 312.244 254.306 300.026 265.451 C 299.133 264.809 298.232 264.194 297.32 263.606 C 294.799 261.814 292.202 260.117 289.536 258.506 C 301.594 246.557 312.844 234.652 322.98 223.047 C 323.441 223.346 323.901 223.646 324.36 223.948 Z M 256.224 294.809 C 258.009 296.327 259.787 297.958 261.548 299.687 C 249.437 310.212 237.108 320.702 224.72 331.029 C 221.632 328.432 218.611 326.233 215.462 324.294 C 228.352 313.968 241.045 303.274 253.3 292.411 C 254.295 293.198 255.27 293.997 256.224 294.809 Z M 369.055 160.008 C 378.209 162.507 387.413 165.18 396.632 168.256 C 386.389 180.296 374.183 193.489 360.506 207.435 C 359.161 207.064 357.8 206.691 356.424 206.316 C 350.755 204.683 345.669 202.807 341.055 201.117 C 352.52 186.26 361.639 172.232 367.68 159.646 C 368.146 159.774 368.604 159.895 369.055 160.008 Z M 84.681 409.867 C 89.584 415.924 94.272 422.072 98.749 428.246 C 84.435 438.242 70.983 447.164 58.757 454.714 C 51.642 444.797 44.349 435.415 36.584 426.659 C 50.436 424.196 66.779 418.34 84.681 409.867 Z" style="fill: rgba(255, 255, 255, 0.067);"></path>
</svg>