<svg xmlns="http://www.w3.org/2000/svg" viewBox="0 0 512 1024" width="512px" height="1024px" xmlns:bx="https://boxy-svg.com">
  <defs>
    <linearGradient gradientUnits="userSpaceOnUse" x1="368.993" y1="40.359" x2="368.993" y2="1104.398" id="gradient-0" gradientTransform="matrix(1, 0, 0, 1, -3.873413, 40.274017)">
      <stop offset="0" style="stop-color: rgb(190, 119, 61);"></stop>
      <stop offset="1" style="stop-color: rgb(86, 46, 28);"></stop>
    </linearGradient>
    <bx:export>
      <bx:file format="png"></bx:file>
    </bx:export>
    <linearGradient gradientUnits="userSpaceOnUse" x1="242.265" y1="694.496" x2="242.265" y2="835.644" id="gradient-1" gradientTransform="matrix(0.967044, 0.254605, -0.183485, 0.635217, -55.950943, 274.531525)">
      <stop offset="0" style="stop-color: rgb(52.157% 85.882% 33.333%)"></stop>
      <stop offset="1" style="stop-color: rgb(69, 132, 43);"></stop>
    </linearGradient>
    <radialGradient gradientUnits="userSpaceOnUse" cx="513.494" cy="95.668" r="61.899" id="gradient-2" gradientTransform="matrix(-0.597819, -0.990648, 0.990648, -0.597819, 721.823608, 701.825928)">
      <stop offset="0" style="stop-color: rgb(60.392% 92.549% 42.353%)"></stop>
      <stop offset="0.681" style="stop-color: rgb(120, 201, 71);"></stop>
      <stop offset="1" style="stop-color: rgb(133, 216, 81);"></stop>
    </radialGradient>
    <filter id="inner-shadow-filter-0" bx:preset="inner-shadow 1 2 1 3 0.5 #fff4" color-interpolation-filters="sRGB" x="-50%" y="-50%" width="200%" height="200%">
      <feOffset dx="2" dy="1"></feOffset>
      <feGaussianBlur stdDeviation="3"></feGaussianBlur>
      <feComposite operator="out" in="SourceGraphic"></feComposite>
      <feComponentTransfer result="choke">
        <feFuncA type="linear" slope="1"></feFuncA>
      </feComponentTransfer>
      <feFlood flood-color="#fff4" result="color"></feFlood>
      <feComposite operator="in" in="color" in2="choke" result="shadow"></feComposite>
      <feComposite operator="over" in="shadow" in2="SourceGraphic"></feComposite>
    </filter>
  </defs>
  <path d="M 198.856 543.124 C 198.36 544.351 197.692 544.454 196.852 543.432 L 184.471 528.392 C 176.17 529.182 160.518 529.515 145.836 529.483 L 135.136 544.992 C 134.385 546.081 133.711 546.035 133.114 544.855 L 125.17 529.157 C 121.711 529.043 118.723 528.899 116.434 528.729 C 108.771 528.16 108.301 526.56 101.446 525.968 C 98.711 525.731 94.978 525.679 90.791 525.709 L 74.517 541.322 C 73.562 542.238 72.911 542.058 72.563 540.782 L 68.548 526.063 C 63.561 526.084 59.228 525.978 56.481 525.573 C 51.685 524.866 50.077 524.035 47.41 522.418 C 44.756 520.809 42.615 518.754 40.507 515.91 C 40.406 515.774 40.304 515.634 40.202 515.492 L 17.432 511.911 C 16.126 511.705 15.875 511.078 16.68 510.028 L 31.831 490.279 C 31.831 490.277 31.831 490.275 31.83 490.273 C 31.497 485.984 30.858 480.975 31.83 477.257 C 32.698 473.936 34.737 470.577 36.76 468.776 C 38.463 467.261 40.678 466.662 42.676 466.41 C 44.623 466.164 46.759 466.423 48.593 467.199 C 50.519 468.014 52.632 469.638 53.918 471.34 C 55.174 473.005 55.672 474.427 56.284 477.257 C 57.247 481.708 56.595 493.059 57.862 496.978 C 58.598 499.254 58.305 500.134 60.82 501.119 C 66.724 503.432 93.127 500.675 103.812 501.514 C 111.216 502.095 112.806 503.707 120.772 504.275 C 133.588 505.188 163.54 505.559 177.175 504.275 C 186.352 503.41 191.7 501.886 197.685 499.936 C 202.945 498.223 207.474 493.691 211.49 493.625 C 214.86 493.57 218.359 495.549 220.364 497.767 C 222.354 499.967 223.497 504.081 223.52 506.838 C 223.54 509.283 222.289 511.634 221.153 513.544 C 220.082 515.345 219.201 516.603 217.013 518.079 C 214.781 519.585 210.988 521.209 207.128 522.63 L 198.856 543.124 Z" style="stroke-width: 45.4589px; fill: rgb(17, 17, 17); filter: url(#inner-shadow-filter-0);"></path>
  <path d="M 59.863 756.887 C 59.863 756.887 353.471 758.011 373.618 758.011 C 393.765 758.011 442.735 711.643 456.921 749.894 L 401.927 804.887 L 67.863 804.887 L 67.863 824.374 C 69.667 835.318 38.044 934.666 19.863 824.374 L 19.863 796.887 C 20.126 792.181 21.321 785.317 23.016 781.31 C 24.74 777.235 28.541 771.64 31.579 768.603 C 34.616 765.565 40.211 761.764 44.286 760.04 C 48.293 758.345 55.157 757.15 59.863 756.887 Z" style="fill: url(#gradient-1);"></path>
  <path d="M 508.212 542.48 C 508.274 542.679 510.224 545.253 510.195 545.776 L 508.127 543.708 L 508.127 539.852 C 508.183 540.874 508.155 542.299 508.212 542.48 Z" style="fill: rgb(133, 219, 85);"></path>
  <path d="M 494.456 374.073 C 494.456 387.899 399.844 451.392 399.844 451.392 L 67.863 451.392 C 7.041 469.869 27.516 420.568 31.579 415.108 C 35.642 409.648 40.211 408.269 44.286 406.545 C 48.293 404.85 55.157 403.655 59.863 403.392 C 59.863 403.392 351.487 403.392 371.019 403.392 C 390.551 403.392 411.431 368.106 430.486 355.423 C 449.541 342.74 494.456 374.073 494.456 374.073 Z" style="fill: rgb(132, 219, 83);"></path>
  <path d="M 514.479 132.848 C 514.98 131.861 511.953 123.464 507.445 112.689 C 506.95 111.507 506.474 110.399 506.012 109.36 C 502.534 110.922 498.398 112.312 494.88 114.987 C 445.08 152.854 410.083 119.585 471.115 73.283 C 487.511 60.844 507.182 57.641 507.182 57.641 L 511.57 56.326 L 514.065 56.633 C 517.99 57.117 524.336 58.477 527.093 59.948 C 529.364 61.159 532.562 63.582 534.147 65.082 C 536.774 67.568 539.89 71.606 541.796 74.571 C 545.264 79.965 548.963 87.559 551.727 94.165 C 557.217 107.288 561.978 125 562.479 132.848 L 562.479 144.348 L 514.479 144.348 L 514.479 132.848 Z" style="fill: url(#gradient-2);"></path>
  <path d="M 59.863 780.887 L 391.986 780.887 C 391.986 780.887 447.21 725.663 465.966 706.907 C 484.722 688.151 482.173 606.212 465.966 590.005 C 449.759 573.798 389.903 513.941 389.903 513.941 L 59.863 513.941 C 51.026 513.941 43.863 506.778 43.863 497.941 L 43.863 443.392 C 43.863 434.555 51.026 427.392 59.863 427.392 L 389.903 427.392 L 451.93 365.364 C 451.93 365.364 451.93 166.462 451.93 132.848 C 451.93 99.234 514.065 80.633 514.065 80.633 C 522.902 80.633 538.479 124.012 538.479 132.848 L 538.479 411.392 C 538.479 420.229 531.316 427.392 522.479 427.392 L 664.832 427.392 C 673.669 427.392 680.832 434.555 680.832 443.392 L 680.832 497.941 C 680.832 506.778 673.669 513.941 664.832 513.941 L 512.302 513.941 L 527.166 528.805 C 530.961 532.6 532.451 537.827 531.636 542.747 L 670.377 542.747 C 679.214 542.747 686.377 549.91 686.377 558.747 L 686.377 741.322 C 686.377 750.159 679.214 757.322 670.377 757.322 L 531.843 757.322 C 531.714 761.239 530.155 765.117 527.166 768.106 L 514.385 780.887 L 664.832 780.887 C 673.669 780.887 680.832 788.05 680.832 796.887 L 680.832 1128.68 C 680.832 1137.51 673.669 1144.68 664.832 1144.68 L 59.863 1144.68 C 51.026 1144.68 43.863 1137.51 43.863 1128.68 L 43.863 796.887 C 43.863 788.05 51.026 780.887 59.863 780.887 Z" style="fill: url(#gradient-0); paint-order: stroke; stroke-width: 48px;"></path>
  <path d="M 499.327 223.735 C 482.762 218.596 467.089 214.017 451.93 211.152 C 451.93 193.707 451.93 177.392 451.93 163.916 C 473.274 166.646 494.046 171.84 513.549 177.89 C 522.008 180.514 530.313 183.257 538.479 185.99 L 538.479 236.401 C 525.183 232.097 512.097 227.697 499.327 223.735 Z M 161.13 464.588 C 125.363 478.014 84.411 482.99 43.863 483.186 L 43.863 443.388 C 43.863 440.384 44.691 437.573 46.131 435.172 C 72.536 434.944 96.439 432.786 118.91 427.388 L 224.398 427.388 C 204.702 443.836 183.152 456.321 161.13 464.588 Z M 410.194 513.55 C 406.869 517.034 403.521 520.583 400.145 524.179 C 393.916 517.95 389.903 513.937 389.903 513.937 L 344.473 513.937 C 354.635 502.864 364.855 491.531 375.472 480.408 C 415.001 438.997 471.656 396.191 518.791 365.849 C 524.412 362.848 531.948 360.25 538.479 359.016 L 538.479 410.287 C 494.406 439.106 445.386 476.682 410.194 513.55 Z M 678.384 725.259 C 671.912 735.212 665.058 746.105 657.728 757.318 L 599.617 757.318 C 613.411 738.244 625.909 717.923 638.139 699.099 C 644.168 690.241 650.084 674.892 658.843 658.988 C 663.24 651.004 669.108 641.794 675.474 634.605 C 678.416 631.282 682.199 627.883 686.377 624.748 L 686.377 710.964 C 683.811 715.976 681.167 720.836 678.384 725.259 Z M 622.437 806.35 C 600.498 832.996 570.932 858.209 537.497 870.7 C 502.669 882.396 465.475 887.276 431.17 884.626 C 396.875 881.986 361.118 871.654 328.507 856.149 C 313.287 848.449 297.533 835.994 283.657 827.062 C 276.753 822.619 271.437 819.631 265.573 817.494 C 259.935 815.439 258.227 814.538 254.436 815.736 C 216.14 818.863 168.391 875.839 129.636 903.006 C 100.439 923.156 72.207 942.006 43.863 959.076 L 43.863 902.926 C 62.83 890.626 82.183 877.446 102.362 863.506 C 129.646 844.989 171.456 803.006 213.734 780.883 L 299.997 780.883 C 303.388 782.79 306.641 784.772 309.637 786.701 C 325.803 797.107 338.894 808.249 349.33 812.901 C 378.083 826.942 405.31 834.491 434.86 836.77 C 464.399 839.047 491.91 835.886 521.893 825.308 C 545.309 818.185 563.039 802.211 581.166 780.883 L 641.77 780.883 C 635.655 789.526 629.224 798.106 622.437 806.35 Z M 486.625 1047.12 C 459.454 1041.47 431.187 1030.34 404.752 1022.69 C 378.359 1015.05 356.831 1010.06 335.644 1016.73 C 312.902 1021.57 291.981 1039.77 268.454 1055.85 C 229.136 1082.54 191.527 1114.19 152.312 1144.68 L 71.729 1144.68 C 128.741 1106 181.683 1057.1 241.414 1016.19 C 263.391 1001.25 291.774 979.666 323.528 970.286 C 355.014 963.216 389.307 968.246 418.092 976.576 C 446.836 984.896 473.106 995.666 496.039 1000.04 C 557.903 1012.44 618.065 1020.93 680.113 1018.26 C 680.354 1018.26 680.593 1018.25 680.832 1018.24 L 680.832 1066.27 C 614.941 1068.58 549.525 1059.68 486.625 1047.12 Z M 664.832 427.388 C 673.669 427.388 680.832 434.551 680.832 443.388 L 680.832 456.631 C 658.762 447.807 637.341 436.752 617.335 427.388 L 664.832 427.388 Z" style="fill: rgba(0, 0, 0, 0.133);"></path>
</svg>