<?xml version="1.0" encoding="utf-8"?>
<svg viewBox="0 0 1024 1024" width="1024px" height="1024px" xmlns="http://www.w3.org/2000/svg" xmlns:bx="https://boxy-svg.com"><defs><bx:export><bx:file format="svg" path="cliff2.svg"/></bx:export><linearGradient gradientUnits="userSpaceOnUse" x1="590.144" y1="473.246" x2="590.144" y2="1145.95" id="gradient-0"><stop offset="0" style="stop-color: rgb(106, 70, 27);"/><stop offset="1" style="stop-color: rgb(73, 37, 7);"/></linearGradient><mask id="mask-1"><path style="stroke-linecap: round; stroke-linejoin: round; stroke-width: 48px; fill: rgb(255, 255, 255);" d="M 101.188 473.246 C 120.523 492.581 202.153 538.845 253.97 517.382 C 305.787 495.919 341.35 489.834 440.703 480.035 C 562.817 467.991 539.81 542.744 668.176 520.778 C 796.542 498.812 790.577 459.375 894.464 488.015 C 998.351 516.655 1150.042 564.157 1153.736 541.99 L 1095.285 1145.95 L 46.866 1064 C -12.277 724.222 73.841 547.942 101.188 473.246 Z"/></mask></defs><path style="stroke-linecap: round; stroke-linejoin: round; fill: url(&quot;#gradient-0&quot;); stroke-width: 48px;" d="M 101.188 473.246 C 120.523 492.581 202.153 538.845 253.97 517.382 C 305.787 495.919 341.35 489.834 440.703 480.035 C 562.817 467.991 539.81 542.744 668.176 520.778 C 796.542 498.812 790.577 459.375 894.464 488.015 C 998.351 516.655 1150.042 564.157 1153.736 541.99 L 1095.285 1145.95 L 46.866 1064 C -12.277 724.222 73.841 547.942 101.188 473.246 Z"/><path d="M 1073.666 1120.187 L 1126.806 571.103 C 1125.757 571.01 1124.712 570.907 1123.675 570.794 C 1106.13 568.882 1082.004 563.796 1055.919 557.355 C 1003.996 544.534 939.791 525.406 888.086 511.152 C 840.42 498.011 823.172 499.968 797.973 508.226 C 772.118 516.699 739.852 532.862 672.224 544.434 C 637.853 550.316 610.658 549.652 590.728 545.475 C 569.65 541.057 553.331 532.389 540.291 525.024 C 527.251 517.658 517.098 511.569 502.983 507.447 C 487.935 503.052 471.068 500.891 443.059 503.919 C 344.552 513.604 312.517 519.109 263.154 539.555 C 246.751 546.35 225.823 547.976 208.418 546.125 C 191.2 544.294 172.484 539.069 156.763 533.006 C 125.148 520.814 127.715 510.8 112.425 510.8 C 97.135 510.8 74.331 544.95 74.331 544.95 C 84.782 514.698 94.66 491.078 101.188 473.246 C 120.523 492.581 202.153 538.845 253.97 517.382 C 305.787 495.919 341.35 489.834 440.703 480.035 C 562.817 467.991 539.81 542.744 668.176 520.778 C 796.542 498.812 790.577 459.375 894.464 488.015 C 998.351 516.655 1150.042 564.157 1153.736 541.99 L 1095.285 1145.95 L 98.185 1068.011 L 103.367 1044.344 L 1073.666 1120.187 Z" style="fill: rgba(0, 0, 0, 0.267);"/><path style="stroke: rgba(255, 255, 255, 0.067); stroke-width: 96px; fill: none; mask: url(&quot;#mask-1&quot;);" d="M -52.219 557.517 C -52.219 618.149 22.866 648.238 72.067 656.439 C 126.119 665.447 199.225 665.801 252.155 651.366 C 313.952 634.512 372.679 610.783 437.316 610.783 C 465.374 610.783 485.816 630.81 508.336 646.293 C 562.031 683.208 607.871 722.199 670.669 740.141 C 702.081 749.116 749.961 740.141 782.273 740.141 C 873.297 740.141 967.975 732.577 1058.745 740.141 C 1148.47 747.618 1200.502 863.987 1274.344 905.01 C 1301.439 920.064 1363.666 907.547 1391.02 907.547 C 1474.4 907.547 1573.609 912.602 1649.738 950.667 M -125.776 816.892 C -55.45 805.172 4.353 849.391 59.385 887.913 C 83.512 904.802 105.498 941.293 135.478 948.788 C 209.139 967.202 292.739 916.399 361.222 900.595 C 428.052 885.173 518.312 876.223 586.966 885.377 C 637.218 892.077 653.351 941.907 675.742 979.225 C 681.645 989.064 688.928 1005.603 701.106 1009.663 C 822.488 1050.123 958.389 1036.253 1073.964 1100.975 C 1131.794 1133.36 1181.3 1182.947 1226.151 1227.797"/><polygon style="stroke-width: 24px; transform-box: fill-box; transform-origin: 50% 50%; fill: rgb(140, 140, 140); stroke: rgb(93, 93, 93);" points="32.886 460.587 122.608 452.552 145.372 518.169 109.216 544.952 38.243 527.543" transform="matrix(0.757294, -0.653074, 0.653074, 0.757294, -0.000009, -0.000003)"/></svg>