<?xml version="1.0" encoding="utf-8"?>
<svg viewBox="0 0 1024 1024" width="1024px" height="1024px" xmlns="http://www.w3.org/2000/svg" xmlns:bx="https://boxy-svg.com"><defs><linearGradient gradientUnits="userSpaceOnUse" x1="720" y1="10.543" x2="720" y2="2210.543" id="gradient-1" gradientTransform="matrix(0.595173, 0, 0, 0.595173, 1755.056274, -445.146652)"><stop offset="0" style="stop-color: rgb(106, 72, 27);"/><stop offset="1" style="stop-color: rgb(69, 35, 0);"/></linearGradient><radialGradient gradientUnits="userSpaceOnUse" cx="720" cy="1110.542" r="1110.543" id="gradient-0" gradientTransform="matrix(1, 0, 0, 1, 1463.581146, -449.414749)"><stop offset="0" style="stop-color: rgb(37.255% 71.373% 35.686%)"/><stop offset="0.889" style="stop-color: rgb(30, 130, 31);"/><stop offset="1" style="stop-color: rgb(95, 182, 91);"/></radialGradient><linearGradient gradientUnits="userSpaceOnUse" x1="305.394" y1="132.28" x2="305.394" y2="1221.014" id="gradient-2" gradientTransform="matrix(0.954703, 0.29756, -0.255362, 0.819318, 427.927013, 77.284706)"><stop offset="0" style="stop-color: rgb(106, 72, 27);"/><stop offset="1" style="stop-color: rgb(69, 35, 0);"/></linearGradient><linearGradient gradientUnits="userSpaceOnUse" x1="305.394" y1="132.28" x2="305.394" y2="1221.014" id="gradient-3" gradientTransform="matrix(0.288892, 0, 0, 0.288892, 510.198668, -38.260934)"><stop offset="0" style="stop-color: rgb(118, 182, 91);"/><stop offset="1" style="stop-color: rgb(68, 127, 46);"/></linearGradient><bx:export><bx:file format="svg" path="hill1.svg"/></bx:export><mask id="mask-0"><path style="fill-rule: evenodd; stroke-linecap: round; stroke-linejoin: round; paint-order: stroke; stroke-width: 96px; fill: rgb(255, 255, 255);" d="M -147.64 143.604 C -211.58 284.944 668.271 167.88 739.047 138.564 C 811.407 108.592 921.801 190.915 834.744 277.972 C 747.687 365.029 456.063 496.527 420.992 581.196 C 385.921 665.865 158.726 1048.697 308.366 1221.014 L -255.956 1194.025 L -147.64 143.604 Z"/></mask></defs><circle style="fill: url('#gradient-1');" cx="2183.582" cy="661.128" r="1100"/><path style="fill: none; stroke: rgba(255, 255, 255, 0.067); stroke-width: 96px;" d="M 1397.734 84.905 C 1402.599 65.445 1405.086 43.706 1412.128 24.93 C 1442.758 -56.75 1523.155 -21.04 1584.856 -26.649 C 1612.935 -29.202 1644.935 -38.926 1671.22 -49.439 C 1778.398 -92.311 1845.634 -215.062 1960.3 -236.562 C 2043.074 -252.082 2169.422 -221.362 2239.783 -176.587 C 2265.733 -160.074 2294.547 -126.345 2323.749 -116.612 C 2366.551 -102.344 2434.74 -104.492 2478.484 -114.213 C 2547.283 -129.501 2614.354 -172.756 2688.397 -138.203 C 2748.418 -110.193 2821.805 -75.61 2879.324 -41.982 C 2923.236 -16.309 2990.784 23.989 3038.048 61.127"/><path style="fill: none; stroke: rgba(255, 255, 255, 0.067); stroke-width: 96px; transform-origin: 2138.41px 154.635px;" d="M 1279.077 171.591 C 1353.863 190.287 1403.631 240.311 1486.59 219.571 C 1530.535 208.584 1560.155 177.248 1596.945 153.598 C 1669.871 106.717 1837.661 16.831 1928.63 21.379 C 2058.584 27.877 2080.555 174.915 2212.27 182.663 C 2317.181 188.834 2336.85 160.842 2433.814 133.908 C 2484.149 119.925 2570.167 105.444 2620.728 113.276 C 2668.372 120.657 2707.549 146.995 2747.024 169.2 C 2783.422 189.674 2818.447 233.985 2852.512 257.405 C 2886.868 281.025 2956.577 292.411 2997.746 286.53" transform="matrix(0.995845, -0.091063, 0.091063, 0.995845, 0.000004, 0.000017)"/><path d="M 2539.202 -294.869 L 2542.128 -327.105 C 2502.385 -341.528 2461.524 -353.621 2419.711 -363.221 L 2404.768 -344.598 L 2395.699 -368.436 C 2336.829 -380.502 2276.165 -387.645 2214.155 -389.416 L 2154.742 -343.66 L 2124.147 -388.199 C 2057.02 -384.457 1991.573 -374.416 1928.389 -358.656 L 1933.059 -343.755 L 1900.502 -351.289 C 1810.967 -326.306 1726.254 -289.766 1648.07 -243.377 L 1633.012 -197.155 L 1583.363 -201.711 C 1310.894 -11.818 1132.602 303.833 1132.602 661.127 C 1132.602 1241.568 1603.142 1712.108 2183.582 1712.108 C 2764.022 1712.107 3234.562 1241.568 3234.562 661.128 C 3234.562 343.699 3093.836 59.139 2871.368 -133.569 L 2868.661 -85.455 L 2806.978 -185.088 C 2734.69 -238.43 2655.324 -282.731 2570.547 -316.322 L 2539.202 -294.869 Z M 3294.125 661.128 C 3294.125 1274.464 2796.918 1771.671 2183.582 1771.67 C 1570.246 1771.671 1073.038 1274.464 1073.039 661.128 C 1073.039 47.792 1570.246 -449.415 2183.582 -449.415 C 2796.917 -449.415 3294.125 47.793 3294.125 661.128 Z" style="fill: url('#gradient-0');"/><polygon style="stroke-width: 24px; transform-box: fill-box; transform-origin: 50% 50%; stroke: rgb(77, 77, 77); fill: rgb(110, 110, 110);" points="254.694 886.33 340.292 878.664 362.011 941.266 327.517 966.818 259.804 950.209" transform="matrix(0.794775, -0.606904, 0.606904, 0.794775, -0.000035, -0.000013)"/><path d="M -198.589 150.074 C -197.823 142.388 -194.398 131.171 -191.373 123.82 C -181.671 102.373 -157.849 91.127 -135.124 97.264 C -112.927 103.26 -98.175 124.113 -99.753 146.9 C -97.517 147.708 -94.76 148.579 -91.14 149.641 C -69.696 155.935 -41.281 159.757 -3.218 162.012 C 74.134 166.594 174.606 162.674 278.473 154.484 C 486.282 138.096 692.743 106.519 720.678 94.218 C 734.051 89.141 751.763 85.049 765.31 84.428 C 778.809 83.811 795.787 85.689 808.575 88.934 C 821.355 92.177 836.764 98.446 848.078 104.978 C 859.066 111.321 859.936 109.747 880.887 130.698 C 901.838 151.649 907.938 255.423 799.208 187.618 C 794.114 184.733 791.01 183.519 784.963 181.985 C 778.586 180.367 775.748 180.051 769.7 180.328 C 763.699 180.603 762.133 180.494 757.416 182.91 C 718.522 198.29 497.477 233.511 286.02 250.186 C 180.254 258.527 73.153 262.704 -8.895 257.844 C -46.553 255.613 -82.251 251.076 -109.744 244.062 L -173.847 865.72 L -277.829 938.183 L -198.118 165.17 C -198.745 159.779 -199.011 154.316 -198.589 150.074 Z" style="fill: url(&quot;#gradient-3&quot;);"/><path style="fill-rule: evenodd; stroke-linecap: round; stroke-linejoin: round; fill: url(&quot;#gradient-2&quot;); paint-order: stroke; stroke-width: 96px;" d="M -147.64 143.604 C -211.58 284.944 668.271 167.88 739.047 138.564 C 811.407 108.592 921.801 190.915 834.744 277.972 C 747.687 365.029 456.063 496.527 420.992 581.196 C 385.921 665.865 158.726 1048.697 308.366 1221.014 L -255.956 1194.025 L -147.64 143.604 Z"/><path style="fill: none; stroke: rgba(255, 255, 255, 0.067); stroke-width: 96px; mask: url(&quot;#mask-0&quot;);" d="M -261.879 338.503 C -248.253 341.909 -233.869 368.514 -217.862 376.518 C -142.083 414.407 -55.776 418.933 28.239 410.532 C 89.46 404.41 142.694 363.79 200.309 346.506 C 219.962 340.61 256.573 325.618 278.341 336.502 C 360.533 377.598 449.119 400.057 544.45 390.524 C 569.328 388.036 587.398 373.615 610.477 366.514 C 676.18 346.298 742.442 327.02 808.557 310.491 C 829.659 305.216 850.393 292.484 872.584 292.484 M -359.92 1014.779 C -327.63 1014.779 -313.733 989.718 -283.888 980.765 C -234.235 965.868 -174.155 961.25 -121.822 966.759 C -92.591 969.836 -70.502 991.419 -47.792 1002.774 C -2.793 1025.273 80.902 1045.465 132.281 1030.785 C 181.722 1016.659 226.384 981.41 276.34 964.758 C 289.39 960.408 326.507 946.133 340.366 950.752 C 346.813 952.901 352.971 978.341 356.373 984.766 C 376.8 1023.35 402.486 1078.805 452.412 1078.805 M -397.935 716.656 C -404.036 698.353 -379.72 672.783 -369.923 658.633 C -334.931 608.088 -297.795 562.84 -231.867 570.597 C -184.558 576.163 -146.822 623.324 -119.821 658.633 C -75.593 716.47 -4.535 768.306 74.258 744.668 C 115.091 732.418 157.421 700.158 194.307 678.641 C 229.231 658.268 264.898 647.107 302.351 634.623 C 308.118 632.701 306.01 645.658 306.353 646.628 C 309.035 654.227 313.275 661.19 316.357 668.637 C 333.558 710.207 346.742 778.682 398.39 778.682 C 440.501 778.682 473.153 763.553 514.438 756.673 C 561.611 748.81 612.4 742.384 660.497 740.666 C 681.841 739.904 738.529 727.387 738.529 758.674"/><polygon style="stroke-width: 24px; fill: rgb(153, 153, 153); stroke: rgb(105, 105, 105);" points="247.323 950.753 381.378 938.748 415.392 1036.788 361.37 1076.804 255.327 1050.793"/></svg>