<svg xmlns="http://www.w3.org/2000/svg" viewBox="0 0 2048 1440" xmlns:bx="https://boxy-svg.com" width="2048px" height="1440px">
  <defs>
    <linearGradient gradientUnits="userSpaceOnUse" x1="882.082" y1="122.168" x2="882.082" y2="1672.83" id="gradient-1" gradientTransform="matrix(0.886992, 0, 0, 0.886992, 532.421558, 18.521809)">
      <stop offset="0" style="stop-color: rgb(155, 83, 23);"></stop>
      <stop offset="0.656" style="stop-color: rgb(125, 69, 20);"></stop>
      <stop offset="0.813" style="stop-color: rgb(153, 83, 23);"></stop>
      <stop offset="1" style="stop-color: rgb(99, 52, 12);"></stop>
    </linearGradient>
    <bx:export></bx:export>
  </defs>
  <path d="M 965.43 1181.79 C 979.934 1181.911 1093.952 1169.811 1114.901 1137.686 C 1140.955 1097.732 1149.647 1131.419 1141.732 1114.821 C 1141.732 1114.821 1153.517 1182.288 1146.91 1195.643 C 1140.199 1209.207 1127.92 1224.961 1116.316 1234.962 C 1105.061 1244.662 1088.4 1254.505 1073.496 1260.479 C 1045.396 1271.743 1006.188 1277.511 965.43 1277.79 L -94.19 1277.79 L -94.19 1624.83 L 1600.255 1624.83 C 1664.024 1494.382 1693.317 1406.697 1693.317 1340.498 C 1693.317 1325.454 1692.116 1317.057 1688.848 1307.308 C 1685.871 1298.423 1684.786 1296.609 1679.643 1291.495 C 1674.491 1286.371 1672.595 1285.249 1663.606 1282.269 C 1653.748 1279.002 1645.187 1277.79 1630.01 1277.79 C 1589.252 1277.79 1550.044 1271.743 1521.944 1260.479 C 1507.04 1254.505 1490.379 1244.662 1479.124 1234.962 C 1467.52 1224.961 1455.241 1209.207 1448.53 1195.643 C 1441.923 1182.288 1436.76 1163.405 1435.253 1147.817 C 1433.805 1132.847 1481.241 1121.118 1481.241 1121.118 C 1467.3 1150.371 1549.514 1168.105 1557.663 1171.372 C 1575.669 1178.589 1596.553 1181.79 1630.01 1181.79 C 1651.936 1181.79 1675.839 1185.189 1693.808 1191.144 C 1712.646 1197.388 1732.649 1204.421 1747.338 1223.426 C 1796.138 1286.564 1674.705 1471.855 1672.904 1694.373 L 1659.664 1720.83 L -190.19 1720.83 L -190.19 1181.79 L 965.43 1181.79 Z M 743.91 170.168 C 724.971 192.052 627.257 157.994 668.685 102.224 C 676.036 92.328 692.797 84.108 704.615 80.132 C 715.572 76.446 731.347 74.414 743.91 74.168 L 1851.53 74.168 C 1864.092 74.414 1880.322 75.3 1890.824 80.133 C 1985.461 123.684 1866.955 232.047 1851.53 170.168 L 743.91 170.168 Z" style="fill: rgb(80, 209, 89);" id="object-1"></path>
  <path style="fill: rgb(80, 209, 89);" d="M 1330.533 877.916 C 1330.533 877.916 1465.115 911.047 1517.25 911.047 C 1569.385 911.047 1556.865 966.07 1514.03 975.616 L 1387.62 964.35 L 1330.533 877.916 Z" id="object-2"></path>
  <path style="fill: rgb(80, 209, 89); transform-box: fill-box; transform-origin: 50% 50%;" d="M 906.302 701.733 C 943.236 769.218 1040.915 668.647 1093.03 668.602 C 1145.16 668.557 1132.64 613.579 1089.81 604.033 L 963.392 615.299 L 906.302 701.733 Z" transform="matrix(-1, 0, 0, -1, 0, -23.300293)" id="object-3"></path>
  <path d="M -142.19 1229.79 L 965.432 1229.79 C 1113.86 1229.79 1149.3 1155.81 1076.19 1008.27 L 912.403 680.69 L 937.216 680.69 C 993.741 680.69 1045.04 650.75 1073.3 602.176 C 1134.02 497.491 1058.64 366.634 937.216 366.634 L 755.379 366.634 L 743.911 343.698 C 670.804 195.946 670.804 122.168 743.911 122.168 L 1851.53 122.168 C 1924.63 122.168 1924.63 195.946 1851.53 343.698 L 1706.913 632.938 L 1494.558 632.938 C 1438.038 632.938 1386.738 662.878 1358.478 711.452 C 1297.758 816.137 1373.138 946.994 1494.558 946.994 L 1549.887 946.994 L 1519.25 1008.27 C 1446.14 1155.81 1481.58 1229.79 1630.01 1229.79 C 1778.42 1229.79 1778.42 1377.33 1630.01 1672.83 L -142.19 1672.83 Z" style="fill: url(#gradient-1);" id="object-0"></path>
  <path style="fill: none; stroke-width: 96px;" d="M 548.713 631.314 C 573.583 631.314 603.853 683.856 625.962 698.596 C 707.285 752.811 779.146 811.19 875.152 823.191 C 994.861 838.154 1132.976 822.54 1248.937 795.78 C 1282.22 788.099 1311.797 763.212 1343.63 753.417 C 1361.887 747.8 1386.953 748.472 1405.927 745.942 C 1447.422 740.409 1503.726 724.842 1545.473 735.974 C 1572.06 743.064 1600.106 762.193 1625.214 773.353 C 1687.141 800.876 1747.761 829.203 1802.139 868.045 C 1829.329 887.466 1873.22 899.256 1894.339 920.375 M 1002.239 1027.526 C 1029.076 1027.526 1070.846 1044.758 1099.423 1049.954 C 1167.665 1062.361 1244.493 1054.937 1313.727 1054.937 C 1380.836 1054.937 1453.67 1062.806 1520.554 1054.937 C 1554.074 1050.994 1589.693 1048.307 1622.722 1042.478 C 1671.904 1033.799 1719.608 1007.591 1769.745 1007.591 M 167.452 469.34 C 239.605 469.34 298.325 421.081 366.804 402.059 C 487.241 368.604 615.304 320.703 740.589 312.351 C 789.11 309.116 848.85 305.999 895.087 322.318 C 976.935 351.206 1056.1 394.697 1136.8 426.978 C 1207.77 455.364 1268.54 507.254 1348.61 511.703 C 1527.11 521.619 1699.96 514.552 1876.9 489.276 C 1976.51 475.045 2084.3 426.978 2183.4 426.978"></path>
  <path d="M 1238.2 749.009 C 1249.2 747.244 1258.89 741.377 1274.04 733.176 C 1289.19 724.976 1308.91 714.478 1329.57 707.54 C 1341.16 704.561 1353.35 702.877 1364.64 701.718 C 1362.49 704.872 1360.45 708.118 1358.51 711.452 C 1340.46 742.558 1334.44 775.975 1338.07 807.583 C 1332.6 810.471 1326.63 813.872 1319.73 817.606 C 1303.82 826.218 1282.07 836.635 1259.79 842.551 C 1183.69 860.009 1096.14 872.87 1010.06 875.894 L 962.77 781.329 C 1054.59 782.836 1151.25 769.198 1238.2 749.009 Z M 1108.07 1002.73 C 1169.71 1014.86 1242.24 1006.94 1313.79 1006.94 C 1383.47 1006.94 1453.5 1015.11 1515 1007.27 C 1516.69 1007.07 1518.38 1006.87 1520.07 1006.68 L 1519.28 1008.27 C 1500.9 1045.36 1489.38 1077.8 1484.79 1105.59 C 1425.63 1107.91 1366.06 1102.94 1313.79 1102.94 C 1252.44 1102.94 1179.16 1108.76 1109.72 1099.96 C 1104.58 1073.45 1093.4 1042.88 1076.25 1008.27 L 1068.11 991.991 C 1084.14 996.662 1097.77 1001.04 1108.07 1002.73 Z M 737.444 264.457 C 786.314 261.202 855.634 259.4 911.114 277.055 C 996.53 307.54 1076.63 351.378 1154.68 382.411 C 1193.75 398.393 1228.56 419.216 1260.86 435.405 C 1293.13 451.579 1318.88 463.232 1351.33 463.777 C 1503.07 472.302 1648.82 468.396 1797.84 451.143 L 1747.04 552.74 C 1613.78 564.878 1480.79 567.033 1346.01 559.629 C 1298.39 555.725 1253.72 539.209 1217.84 521.229 C 1182 503.264 1150.94 483.949 1119.03 471.545 C 1105.41 466.066 1091.93 460.33 1078.56 454.448 C 1053.65 403.841 1001.99 366.634 937.24 366.634 L 876.738 366.634 C 842.1 353.584 796.545 356.665 751.964 359.696 L 743.964 343.698 C 729.974 315.438 718.664 289.884 710.034 267.034 C 719.174 266.001 728.314 265.136 737.444 264.457 Z" style="fill: rgba(255, 255, 255, 0.067);" id="path-1"></path>
</svg>