<svg xmlns="http://www.w3.org/2000/svg" viewBox="0 0 2048 1440" xmlns:bx="https://boxy-svg.com" width="2048px" height="1440px">
  <path d="M -142.19 1229.79 L 965.43 1229.79 C 1113.86 1229.79 1149.3 1155.81 1076.19 1008.27 L 743.91 343.698 C 670.8 195.946 670.8 122.168 743.91 122.168 L 1851.53 122.168 C 1924.63 122.168 1924.63 195.946 1851.53 343.698 L 1519.25 1008.27 C 1446.14 1155.81 1481.58 1229.79 1630.01 1229.79 C 1778.42 1229.79 1778.42 1377.33 1630.01 1672.83 L -142.19 1672.83 L -142.19 1229.79 Z" style="fill: rgb(79, 40, 8); stroke-width: 96px; paint-order: stroke;"></path>
  <path d="M 1238.17 749.009 C 1249.17 747.244 1258.86 741.377 1274.01 733.176 C 1289.16 724.976 1308.88 714.478 1329.54 707.54 C 1355.5 700.87 1384.45 700.691 1399.61 698.363 C 1418.47 695.926 1442.98 690.56 1469.43 687.111 C 1495.92 683.658 1529.73 683.243 1557.87 689.595 C 1591.8 700.047 1623.4 720.435 1644.74 729.491 C 1648.52 731.174 1652.32 732.868 1656.12 734.575 L 1613.15 820.512 C 1610.69 819.415 1608.22 818.316 1605.75 817.215 C 1576.86 803.951 1552.38 786.081 1533.13 782.353 C 1519.53 777.573 1504.31 779.376 1481.84 782.306 C 1459.33 785.241 1434.94 790.425 1412.3 793.521 C 1389.51 796.253 1368.33 794.73 1357.77 799.295 C 1346.6 802.151 1335.62 808.994 1319.7 817.606 C 1303.79 826.218 1282.04 836.635 1259.76 842.551 C 1183.66 860.009 1096.11 872.87 1010.03 875.894 L 962.746 781.329 C 1054.56 782.836 1151.22 769.198 1238.17 749.009 Z M 1108.04 1002.73 C 1169.68 1014.86 1242.21 1006.94 1313.76 1006.94 C 1383.44 1006.94 1453.47 1015.11 1514.97 1007.27 C 1516.67 1007.07 1518.37 1006.87 1520.07 1006.68 L 1519.28 1008.27 C 1500.9 1045.36 1489.38 1077.8 1484.79 1105.59 C 1425.62 1107.91 1366.04 1102.94 1313.76 1102.94 C 1252.41 1102.94 1179.13 1108.76 1109.69 1099.96 C 1104.55 1073.45 1093.37 1042.88 1076.22 1008.27 L 1068.08 991.991 C 1084.11 996.662 1097.74 1001.04 1108.04 1002.73 Z M 737.416 264.457 C 786.286 261.202 855.606 259.4 911.086 277.055 C 996.506 307.54 1076.6 351.378 1154.65 382.411 C 1193.72 398.393 1228.53 419.216 1260.83 435.405 C 1293.1 451.579 1318.85 463.232 1351.3 463.777 C 1503.05 472.303 1648.81 468.395 1797.84 451.139 L 1747.04 552.737 C 1613.77 564.878 1480.77 567.034 1345.98 559.629 C 1298.36 555.725 1253.69 539.209 1217.81 521.229 C 1181.97 503.264 1150.91 483.949 1119 471.545 C 1035.66 438.016 957.416 394.873 879.136 367.582 C 844.216 353.439 797.566 356.594 751.936 359.696 L 743.936 343.698 C 729.946 315.438 718.636 289.884 710.006 267.034 C 719.146 266.001 728.286 265.136 737.416 264.457 Z" style="fill: rgba(255, 255, 255, 0.067);" id="object-4"></path>
</svg>